<?xml version="1.0" standalone="no"?>
<!DOCTYPE svg PUBLIC "-//W3C//DTD SVG 1.1//EN" "http://www.w3.org/Graphics/SVG/1.1/DTD/svg11.dtd">
<svg width="108" height="96" viewBox="-62 -50 108 96" xmlns="http://www.w3.org/2000/svg" version="1.1">
<title>OpenSCAD Model</title>
<path d="
M -34.4021,12.5938 L -34.5793,11.248 L -34.4021,9.90213 L -33.8827,8.64798 L -33.0563,7.57103 L -31.9793,6.74466
 L -30.7252,6.22517 L -29.3793,6.04797 L -28.0335,6.22516 L -26.7793,6.74464 L -25.7024,7.57101 L -24.876,8.64798
 L -24.3565,9.90211 L -24.1798,11.2479 L -24.33,12.3922 L -24.3276,15.1682 L -22.7834,15.8077 L -20.2981,17.7147
 L -18.3911,20.2 L -17.1923,23.0941 L -16.7834,26.2 L -13.1273,26.2 L -13.1273,36 L -14.3273,37.2
 L -17.6273,37.2 L -17.6273,35.9732 L -17.3149,35.2811 L -17.2161,34.5306 L -17.3149,33.78 L -17.6046,33.0806
 L -18.0655,32.48 L -18.6661,32.0191 L -19.3655,31.7294 L -20.1161,31.6306 L -20.8667,31.7294 L -21.5661,32.0191
 L -22.1667,32.48 L -22.6276,33.0806 L -22.9173,33.78 L -23.0161,34.5306 L -22.9173,35.2812 L -22.6276,35.9806
 L -22.1667,36.5812 L -22.1273,36.586 L -22.1273,40.2 L -21.957,41.494 L -21.4574,42.7 L -20.6629,43.7355
 L -19.6273,44.5301 L -18.4214,45.0296 L -17.1273,45.2 L 0.472641,45.1999 L 1.76675,45.0296 L 2.97266,44.5301
 L 4.00818,43.7355 L 4.80278,42.6999 L 5.30228,41.494 L 5.47263,40.1999 L 5.47267,36.586 L 5.51204,36.5812
 L 5.9729,35.9806 L 6.2626,35.2811 L 6.36142,34.5306 L 6.2626,33.78 L 5.97289,33.0806 L 5.51204,32.4799
 L 4.91142,32.0191 L 4.21201,31.7294 L 3.4614,31.6306 L 2.71083,31.7294 L 2.0114,32.0191 L 1.41078,32.4799
 L 0.949921,33.0806 L 0.660217,33.78 L 0.561401,34.5306 L 0.660217,35.2811 L 0.972641,35.9732 L 0.972641,37.1999
 L -2.32733,37.2 L -3.52737,36 L -3.52731,26.2 L 0.128723,26.2 L 0.537628,23.0941 L 1.73642,20.2
 L 3.64345,17.7147 L 6.12872,15.8077 L 7.67294,15.1682 L 7.67528,12.3922 L 7.52464,11.248 L 7.70183,9.9021
 L 8.22131,8.64795 L 9.04768,7.571 L 10.1246,6.74463 L 11.3788,6.22514 L 12.7246,6.04796 L 14.0705,6.22514
 L 15.3246,6.74463 L 16.4016,7.571 L 17.228,8.64795 L 17.7474,9.9021 L 17.9246,11.248 L 17.7474,12.5938
 L 17.6726,12.7744 L 17.6726,15.6187 L 18.1287,15.8077 L 20.614,17.7147 L 22.521,20.2 L 23.3495,22.2
 L 34.4727,22.2 L 34.4727,5.20003 L 25.2727,-0.247314 L 25.2727,-34.3899 L 35.2727,-43.8 L 45.2727,-43.8
 L 45.2727,-49.8 L -61.9275,-49.7999 L -61.9275,-43.7999 L -51.9275,-43.7999 L -41.9275,-34.3899 L -41.9274,-0.24733
 L -51.1274,5.20007 L -51.1273,22.2001 L -40.0041,22.2 L -39.1757,20.2 L -37.2687,17.7147 L -34.7834,15.8077
 L -34.3273,15.6188 L -34.3273,12.7745 z
M 14.4906,-26.6495 L 13.7727,-26.6966 L 13.0548,-26.6495 L 12.3492,-26.5092 L 11.6679,-26.2779 L 11.0227,-25.9597
 L 10.4245,-25.56 L 9.88359,-25.0856 L 9.40924,-24.5448 L 9.00954,-23.9466 L 8.69135,-23.3013 L 8.46008,-22.6201
 L 8.31973,-21.9145 L 8.27267,-21.1966 L 8.27267,-17.7999 L 0.672684,-4.69656 L -17.3274,-4.69655 L -24.9274,-17.7999
 L -24.9274,-21.1965 L -24.9745,-21.9144 L -25.1148,-22.6201 L -25.3461,-23.3013 L -25.6643,-23.9465 L -26.064,-24.5447
 L -26.5383,-25.0856 L -27.0792,-25.56 L -27.6774,-25.9597 L -28.3227,-26.2779 L -29.0039,-26.5091 L -29.7095,-26.6495
 L -30.4274,-26.6965 L -31.1453,-26.6495 L -31.8509,-26.5091 L -32.5322,-26.2779 L -33.1774,-25.9597 L -33.7756,-25.56
 L -34.3165,-25.0856 L -34.7909,-24.5447 L -35.1906,-23.9465 L -35.5088,-23.3013 L -35.74,-22.62 L -35.8804,-21.9144
 L -35.9274,-21.1966 L -35.9275,-46.7999 L 19.2727,-46.7999 L 19.2727,-21.1966 L 19.2256,-21.9145 L 19.0853,-22.6201
 L 18.854,-23.3013 L 18.5358,-23.9466 L 18.1361,-24.5448 L 17.6618,-25.0856 L 17.1209,-25.56 L 16.5227,-25.9597
 L 15.8774,-26.2779 L 15.1962,-26.5092 z
M 13.2586,-15.0511 L 12.8727,-15.2109 L 12.5413,-15.4652 L 12.287,-15.7966 L 12.1272,-16.1824 L 12.0727,-16.5966
 L 12.0727,-20.7966 L 12.1272,-21.2107 L 12.287,-21.5966 L 12.5413,-21.9279 L 12.8727,-22.1822 L 13.2586,-22.342
 L 13.6727,-22.3966 L 14.0868,-22.342 L 14.4727,-22.1822 L 14.804,-21.9279 L 15.0583,-21.5966 L 15.2182,-21.2107
 L 15.2727,-20.7966 L 15.2727,-16.5966 L 15.2182,-16.1824 L 15.0583,-15.7966 L 14.804,-15.4652 L 14.4727,-15.2109
 L 14.0868,-15.0511 L 13.6727,-14.9966 z
M -30.7415,-15.0511 L -31.1274,-15.2109 L -31.4588,-15.4652 L -31.713,-15.7965 L -31.8729,-16.1824 L -31.9274,-16.5965
 L -31.9274,-20.7965 L -31.8729,-21.2106 L -31.7131,-21.5965 L -31.4588,-21.9279 L -31.1274,-22.1822 L -30.7415,-22.342
 L -30.3274,-22.3965 L -29.9133,-22.342 L -29.5274,-22.1822 L -29.196,-21.9279 L -28.9418,-21.5965 L -28.7819,-21.2106
 L -28.7274,-20.7965 L -28.7274,-16.5965 L -28.7819,-16.1824 L -28.9418,-15.7965 L -29.196,-15.4652 L -29.5274,-15.2109
 L -29.9133,-15.0511 L -30.3274,-14.9965 z
M -8.74149,6.9489 L -9.12738,6.78906 L -9.45876,6.53479 L -9.71303,6.20343 L -9.87286,5.81754 L -9.92738,5.40343
 L -9.92738,1.20343 L -9.87286,0.789307 L -9.71303,0.403427 L -9.45876,0.072052 L -9.1274,-0.182205 L -8.7415,-0.342041
 L -8.32738,-0.396561 L -7.91319,-0.342041 L -7.5273,-0.182205 L -7.19594,0.072052 L -6.94167,0.403427 L -6.78183,0.789307
 L -6.72731,1.20341 L -6.72731,5.40343 L -6.78183,5.81754 L -6.94167,6.20341 L -7.19594,6.53479 L -7.5273,6.78906
 L -7.91319,6.9489 L -8.32738,7.00342 z
M -3.06958,3.28932 L 0.510025,-0.290726 L 5.92073,-0.247345 L -1.06979,6.74452 L -3.06958,6.74461 z
M -15.5847,6.74461 L -22.5753,-0.247528 L -17.164,-0.29039 L -13.5847,3.28934 L -13.5847,6.74461 z
M -12.0274,42.1999 L -12.0274,38.7999 L -4.6273,38.7999 L -4.6273,42.1999 z
" stroke="black" fill="lightgray" stroke-width="0.5"/></svg>
