<?xml version="1.0" standalone="no"?>
<!DOCTYPE svg PUBLIC "-//W3C//DTD SVG 20010904//EN"
 "http://www.w3.org/TR/2001/REC-SVG-20010904/DTD/svg10.dtd">
<svg version="1.0" xmlns="http://www.w3.org/2000/svg"
 width="151.000000pt" height="48.000000pt" viewBox="0 0 151.000000 48.000000"
 preserveAspectRatio="xMidYMid meet">
<metadata>
Created by potrace 1.15, written by Peter Selinger 2001-2017
</metadata>
<g transform="translate(0.000000,48.000000) scale(0.100000,-0.100000)"
fill="#000000" stroke="none">
<path d="M97 383 c-4 -3 -7 -28 -7 -55 l0 -48 680 0 680 0 0 55 0 55 -673 0
c-371 0 -677 -3 -680 -7z"/>
<path d="M92 118 l3 -53 132 -3 133 -3 0 56 0 55 -136 0 -135 0 3 -52z"/>
<path d="M632 118 l3 -53 138 -3 137 -3 0 56 0 55 -141 0 -140 0 3 -52z"/>
<path d="M1180 115 l0 -55 135 0 135 0 0 55 0 55 -135 0 -135 0 0 -55z"/>
</g>
</svg>
