<?xml version="1.0" encoding="UTF-8" standalone="no"?>
<!-- Created with Inkscape (http://www.inkscape.org/) -->

<svg
   xmlns:dc="http://purl.org/dc/elements/1.1/"
   xmlns:cc="http://creativecommons.org/ns#"
   xmlns:rdf="http://www.w3.org/1999/02/22-rdf-syntax-ns#"
   xmlns:svg="http://www.w3.org/2000/svg"
   xmlns="http://www.w3.org/2000/svg"
   xmlns:sodipodi="http://sodipodi.sourceforge.net/DTD/sodipodi-0.dtd"
   xmlns:inkscape="http://www.inkscape.org/namespaces/inkscape"
   width="990"
   height="765"
   id="svg2"
   version="1.1"
   inkscape:version="0.47 r22583"
   sodipodi:docname="New document 1">
  <defs
     id="defs4">
    <inkscape:perspective
       sodipodi:type="inkscape:persp3d"
       inkscape:vp_x="0 : 526.18109 : 1"
       inkscape:vp_y="0 : 1000 : 0"
       inkscape:vp_z="744.09448 : 526.18109 : 1"
       inkscape:persp3d-origin="372.04724 : 350.78739 : 1"
       id="perspective10" />
    <inkscape:perspective
       id="perspective3177"
       inkscape:persp3d-origin="210 : 140 : 1"
       inkscape:vp_z="420 : 210 : 1"
       inkscape:vp_y="0 : 1000 : 0"
       inkscape:vp_x="0 : 210 : 1"
       sodipodi:type="inkscape:persp3d" />
  </defs>
  <sodipodi:namedview
     id="base"
     pagecolor="#ffffff"
     bordercolor="#666666"
     borderopacity="1.0"
     inkscape:pageopacity="0.0"
     inkscape:pageshadow="2"
     inkscape:zoom="0.45254834"
     inkscape:cx="206.57933"
     inkscape:cy="342.25902"
     inkscape:document-units="in"
     inkscape:current-layer="layer1"
     showgrid="false"
     units="in"
     showguides="true"
     inkscape:guide-bbox="true"
     inkscape:window-width="1280"
     inkscape:window-height="726"
     inkscape:window-x="0"
     inkscape:window-y="24"
     inkscape:window-maximized="1">
    <sodipodi:guide
       orientation="1,0"
       position="494.91797,321.3125"
       id="guide2816" />
  </sodipodi:namedview>
  <metadata
     id="metadata7">
    <rdf:RDF>
      <cc:Work
         rdf:about="">
        <dc:format>image/svg+xml</dc:format>
        <dc:type
           rdf:resource="http://purl.org/dc/dcmitype/StillImage" />
        <dc:title></dc:title>
      </cc:Work>
    </rdf:RDF>
  </metadata>
  <g
     inkscape:label="Layer 1"
     inkscape:groupmode="layer"
     id="layer1"
     transform="translate(0,-287.362)">
    <flowRoot
       xml:space="preserve"
       id="flowRoot2818"
       style="font-size:26px;font-style:normal;font-variant:normal;font-weight:normal;font-stretch:normal;text-align:center;text-anchor:middle;fill:#000000;fill-opacity:1;stroke:none;font-family:Capture it 2;-inkscape-font-specification:'Capture it 2,'"
       transform="translate(0,769.0785)"><flowRegion
         id="flowRegion2820"><rect
           id="rect2822"
           width="494.91797"
           height="349.134"
           x="1.7678042e-06"
           y="0.4407891"
           style="font-size:26px;text-align:center;text-anchor:middle" /></flowRegion><flowPara
         style="font-size:26px;font-style:normal;font-variant:normal;font-weight:normal;font-stretch:normal;font-family:NeoRetroShadow;-inkscape-font-specification:NeoRetroShadow"
         id="flowPara2830">A free, open to the public cooperative maker space in </flowPara><flowPara
         style="font-size:26px;font-style:normal;font-variant:normal;font-weight:normal;font-stretch:normal;font-family:NeoRetroShadow;-inkscape-font-specification:NeoRetroShadow"
         id="flowPara3223">Columbia Heights</flowPara><flowPara
         style="font-size:26px;font-style:normal;font-variant:normal;font-weight:normal;font-stretch:normal;font-family:NeoRetroShadow;-inkscape-font-specification:NeoRetroShadow"
         id="flowPara3225" /><flowPara
         style="font-size:26px;font-style:normal;font-variant:normal;font-weight:normal;font-stretch:normal;font-family:NeoRetroShadow;-inkscape-font-specification:NeoRetroShadow"
         id="flowPara3227">Come Get your hack on.</flowPara></flowRoot>    <flowRoot
       xml:space="preserve"
       id="flowRoot2834"
       style="font-size:40px;font-style:normal;font-variant:normal;font-weight:normal;font-stretch:normal;text-align:center;text-anchor:middle;fill:#000000;fill-opacity:1;stroke:none;font-family:Cortoba;-inkscape-font-specification:Cortoba"
       transform="translate(0,285.15229)"><flowRegion
         id="flowRegion2836"><rect
           id="rect2838"
           width="494.97476"
           height="81.759224"
           x="0"
           y="681.03107"
           style="font-style:normal;font-variant:normal;font-weight:normal;font-stretch:normal;text-align:center;text-anchor:middle;font-family:Cortoba;-inkscape-font-specification:Cortoba" /></flowRegion><flowPara
         id="flowPara2840"
         style="font-weight:bold;-inkscape-font-specification:AlArabiya Bold">www.hacdc.org</flowPara></flowRoot>    <g
       id="g3180"
       transform="matrix(0.87017299,0,0,0.87016369,90.0625,426.91734)">
      <path
         id="path3105"
         d="M 0,0 336,0 336,336 0,336 0,0 z"
         style="fill:#000000;stroke:#000000;stroke-width:0.09375" />
      <path
         id="path3107"
         d="m 15,13.6 c 101.8,0 203.6,0 305.5,0 0,17.6 0,35.3 0,53 -101.8,0.1 -203.7,0 -305.5,0 0,-17.7 -0.1,-35.3 0,-53 z"
         style="fill:#ffffff;stroke:#ffffff;stroke-width:0.09375" />
      <path
         id="path3109"
         d="m 244.8,28.1 c 1.2,3.5 2.3,7.1 3.5,10.6 3.7,0 7.3,0 11,0.1 -2.9,2.3 -5.9,4.4 -8.9,6.5 1.1,3.6 2.3,7.1 3.4,10.6 -3,-2.1 -6,-4.3 -9,-6.4 -3,2.1 -6,4.3 -9,6.5 1.1,-3.6 2.2,-7.1 3.4,-10.7 -3,-2.1 -6,-4.3 -9,-6.5 3.7,-0.1 7.5,0 11.2,-0.1 1.1,-3.5 2.2,-7.1 3.4,-10.6 z"
         style="fill:#000000;stroke:#000000;stroke-width:0.09375" />
      <path
         id="path3111"
         d="m 87.2,38.7 c 1.1,-3.5 2.2,-7 3.4,-10.5 1.3,3.5 2.4,7 3.5,10.5 3.7,0 7.4,0 11.1,0.1 -2.9,2.3 -5.9,4.4 -8.9,6.5 1.1,3.6 2.3,7.1 3.3,10.6 -3,-2.1 -6,-4.3 -9,-6.4 -3,2.1 -6,4.4 -9.1,6.6 1.2,-3.6 2.4,-7.2 3.5,-10.8 -3,-2.1 -6,-4.2 -8.9,-6.5 3.7,-0.1 7.4,-0.1 11.1,-0.1 z"
         style="fill:#000000;stroke:#000000;stroke-width:0.09375" />
      <path
         id="path3113"
         d="m 167.7,28.2 c 1.2,3.5 2.3,7 3.5,10.5 3.7,0 7.4,0 11,0.1 -2.9,2.3 -5.8,4.4 -8.8,6.5 1.1,3.6 2.3,7.1 3.3,10.6 -3,-2.1 -6,-4.3 -9,-6.4 -3,2.1 -6,4.3 -9,6.5 1.1,-3.6 2.3,-7.1 3.4,-10.6 -3,-2.2 -6,-4.4 -8.9,-6.6 3.7,-0.1 7.4,0 11.1,-0.1 1.1,-3.5 2.2,-7 3.4,-10.5 z"
         style="fill:#000000;stroke:#000000;stroke-width:0.09375" />
      <path
         id="path3115"
         d="m 15,97.5 c 101.8,0 203.6,0 305.5,0 0,5.1 0,10.3 0,15.4 -101.9,0 -203.7,0 -305.5,0 0,-5.1 0,-10.3 0,-15.4 z"
         style="fill:#ffffff;stroke:#ffffff;stroke-width:0.09375" />
      <path
         id="path3117"
         d="m 15,143.8 c 1.6,0 3.2,0 4.9,0 -1.6,1.9 -3.3,3.8 -4.9,5.7 0,-1.9 0,-3.8 0,-5.7 z"
         style="fill:#ffffff;stroke:#ffffff;stroke-width:0.09375" />
      <path
         id="path3119"
         d="m 29.8,145.8 c 2.3,-2.6 6.1,-1.9 9.2,-2 6.6,0.3 13.8,-1.2 19.9,2.3 11.2,8.9 18.3,22.1 21.7,35.8 -2.1,2.6 -4,5.5 -5.5,8.5 -9.1,-8.8 -20.5,-15.7 -33.2,-17.1 -9.3,-1.1 -18.7,1.2 -26.9,5.4 0.1,-4.8 -0.4,-9.6 0.2,-14.4 3.9,-6.9 8.9,-13 14.6,-18.5 z"
         style="fill:#ffffff;stroke:#ffffff;stroke-width:0.09375" />
      <path
         id="path3121"
         d="m 66.7,143.9 c 11.2,-0.2 22.3,-0.1 33.5,-0.1 2.9,8 0.9,16.9 -1.8,24.7 -1,3.8 -5.6,4 -8.4,5.9 -4.3,-12.2 -12,-23.7 -23.3,-30.5 z"
         style="fill:#ffffff;stroke:#ffffff;stroke-width:0.09375" />
      <path
         id="path3123"
         d="m 105.6,143.8 c 7.6,0 15.3,-0.1 22.9,0 -1.6,9.6 -7.4,18.3 -14.7,24.5 -2.1,0.3 -4.2,0.3 -6.2,0.4 1.4,-8.3 0.8,-17 -2,-24.9 z"
         style="fill:#ffffff;stroke:#ffffff;stroke-width:0.09375" />
      <path
         id="path3125"
         d="m 133.5,143.8 c 6.7,0 13.5,0 20.3,0 0.8,6.9 -1.1,14.7 -6.8,19.2 -5.6,4.3 -12,8 -19,9.3 -1.5,-0.5 -3,-1.2 -4.5,-1.8 4.6,-8.3 9.6,-16.9 10,-26.7 z"
         style="fill:#ffffff;stroke:#ffffff;stroke-width:0.09375" />
      <path
         id="path3127"
         d="m 168.1,143.8 c 48,0 95.9,0 143.8,0 2.4,17 3,34.2 1.8,51.2 -1.7,19.7 -8,38.6 -16.5,56.3 -13.7,28.4 -34.2,54.6 -62.3,69.9 -21.9,0.2 -43.8,0.2 -65.7,0 -3.6,-2.8 -7.3,-5.7 -10.2,-9.3 -4.1,-10.3 -4.1,-21.7 -2.8,-32.5 1.2,-9.4 3.6,-18.6 6.7,-27.5 0.5,-1.4 0.9,-2.9 2.1,-3.9 11.7,-11 19.5,-25.9 22.5,-41.7 2.3,-12.2 1.7,-25.1 -3.2,-36.6 -4.1,-9.4 -9.7,-18 -16.2,-25.9 z"
         style="fill:#ffffff;stroke:#ffffff;stroke-width:0.09375" />
      <path
         id="path3129"
         d="m 159.2,146.5 c 5.6,6.3 10.5,13.2 14.5,20.7 -3.2,6.3 -7.7,14.2 -15.7,14.2 -7.4,0.7 -15,-0.3 -21.9,-2.9 6.8,-5.1 14.7,-9.7 19.1,-17.3 2.7,-4.4 3.6,-9.6 4,-14.7 z"
         style="fill:#ffffff;stroke:#ffffff;stroke-width:0.09375" />
      <path
         id="path3131"
         d="m 166.3,184.3 c 4.3,-2.9 7.5,-7.1 10.4,-11.4 3,7.9 4.3,16.5 3.4,25 -5.9,3.8 -12.9,6.2 -20,6.8 -5.9,-1 -11.3,-4.1 -15.8,-8 -2.2,-1.4 -1.9,-4.1 -2.5,-6.3 8.5,0.5 17.4,-1.1 24.5,-6.1 z"
         style="fill:#ffffff;stroke:#ffffff;stroke-width:0.09375" />
      <path
         id="path3133"
         d="m 101.5,178.4 c 2.7,-0.6 5.5,-1.2 8.4,-1.5 2.5,3.3 3.5,7.5 2.8,11.6 -0.6,0.1 -1.7,0.2 -2.2,0.3 -2.1,-4.2 -5.3,-7.6 -9,-10.4 z"
         style="fill:#ffffff;stroke:#ffffff;stroke-width:0.09375" />
      <path
         id="path3135"
         d="m 116.2,177.1 c 3.3,0.8 6.5,1.9 9.4,3.7 -0.4,4.5 -3.6,8.3 -7.9,9.5 0.4,-4.5 0.2,-9 -1.5,-13.2 z"
         style="fill:#ffffff;stroke:#ffffff;stroke-width:0.09375" />
      <path
         id="path3137"
         d="m 15.1,184.4 c 4.7,-2.3 9.5,-5.1 14.8,-5.4 16.1,2.5 30.3,12.4 40.1,25.1 2.3,2.7 1,6.5 1.6,9.7 -10.2,-3.3 -21.5,-3.8 -31.6,0.1 -10.3,3.7 -18.5,11.4 -25,19.9 0,-16.4 -0.2,-32.9 0.1,-49.4 z"
         style="fill:#ffffff;stroke:#ffffff;stroke-width:0.09375" />
      <path
         id="path3139"
         d="m 86.2,188.3 c 3.3,-2.8 7.2,-8.7 12.1,-5.6 3.7,1.6 7.1,6.1 4.9,10.1 -4.9,-3.5 -10.9,-5.8 -17,-4.5 z"
         style="fill:#ffffff;stroke:#ffffff;stroke-width:0.09375" />
      <path
         id="path3141"
         d="m 122.5,194.1 c 3.3,-2.4 6,-5.5 7.6,-9.2 2.6,3.5 3.9,7.8 4.4,12.2 -2.8,3.4 -7.4,3.6 -10.9,1.4 -0.4,-1.4 -0.7,-2.9 -1.1,-4.4 z"
         style="fill:#ffffff;stroke:#ffffff;stroke-width:0.09375" />
      <path
         id="path3143"
         d="m 84.6,194.6 c 2.6,-1.4 5.9,-2.3 8.8,-1.1 2.5,2 5.9,4.4 4.4,8 -6.5,-1.2 -13.3,0.6 -18.1,5.2 0.9,-4.1 0.2,-10.1 4.9,-12.1 z"
         style="fill:#ffffff;stroke:#ffffff;stroke-width:0.09375" />
      <path
         id="path3145"
         d="m 106,207.8 c -0.6,-3.3 -0.5,-7.6 3,-9.3 0.9,3.5 -1.8,6.3 -3,9.3 z"
         style="fill:#ffffff;stroke:#ffffff;stroke-width:0.09375" />
      <path
         id="path3147"
         d="m 119.2,204.8 c 2,-2.2 4.6,-0.5 6.9,-0.1 2.6,0.7 5.3,-0.1 7.9,-0.5 -1.2,3.3 -2.5,6.4 -4.3,9.4 -4.6,-1.3 -8.5,-4.5 -10.5,-8.8 z"
         style="fill:#ffffff;stroke:#ffffff;stroke-width:0.09375" />
      <path
         id="path3149"
         d="m 111.5,215.4 c -1.4,-3.7 -0.3,-7.9 1.9,-11.1 1.5,2.6 2.6,5.5 4.6,7.7 2,2.4 4.8,3.9 7.3,5.8 -4.7,1.8 -10,0.8 -13.8,-2.4 z"
         style="fill:#ffffff;stroke:#ffffff;stroke-width:0.09375" />
      <path
         id="path3151"
         d="m 142,205.1 c 11.3,7.3 25.8,5 37.2,-0.7 -1.7,9.1 -5.1,17.9 -10,25.7 -6.4,1.5 -13.9,1.3 -19,-3.3 -4.2,-4.8 -7,-10.8 -8.6,-17 -0.4,-1.5 0.2,-3.1 0.4,-4.7 z"
         style="fill:#ffffff;stroke:#ffffff;stroke-width:0.09375" />
      <path
         id="path3153"
         d="m 86.3,208.1 c 3.8,-1 7.7,0.2 11.4,1.3 0.6,1.4 1.2,2.9 1.8,4.4 -3.4,1.2 -7,2.5 -9.4,5.3 -2.5,2.4 -3.4,5.9 -4.5,9.2 -2.2,-4.2 -4.7,-8.4 -5.1,-13.2 1.3,-2.8 3.1,-5.4 5.8,-7 z"
         style="fill:#ffffff;stroke:#ffffff;stroke-width:0.09375" />
      <path
         id="path3155"
         d="m 301.2,262.1 c 9,-16.8 15.5,-34.8 19.3,-53.5 0,37.6 -0.1,75.1 0,112.7 -23.3,0 -46.5,0.1 -69.8,-0.1 21.7,-14.9 38.1,-36.1 50.5,-59.1 z"
         style="fill:#ffffff;stroke:#ffffff;stroke-width:0.09375" />
      <path
         id="path3157"
         d="m 131.2,236 c -0.3,-6.3 0,-13.5 5.3,-17.8 3.5,6.3 8.2,12.3 14.9,15.4 4.1,2.1 8.8,2.5 13.4,2.5 -5.5,6.4 -12.2,11.7 -20,14.8 -4.8,-2.9 -9.4,-6.4 -12.6,-11 -0.8,-1.2 -0.8,-2.6 -1,-3.9 z"
         style="fill:#ffffff;stroke:#ffffff;stroke-width:0.09375" />
      <path
         id="path3159"
         d="m 94.7,221.7 c 2.8,-1.3 5.9,-2.2 8.9,-1.6 2,1.3 3.9,2.8 5.9,4.1 -2.5,2.9 -4.8,6.1 -5.5,9.9 -1,3.8 0,7.7 1,11.4 -5,-3.1 -10.1,-6.3 -13.9,-10.8 -0.8,-4.5 -0.3,-10.1 3.6,-13 z"
         style="fill:#ffffff;stroke:#ffffff;stroke-width:0.09375" />
      <path
         id="path3161"
         d="m 31.4,224.4 c 13.4,-4.3 28.1,-2.8 41.2,1.9 1.4,0.6 3.1,0.9 3.7,2.4 1.9,3.4 4,6.6 6.5,9.6 -14.1,2.4 -27.1,10.8 -34.1,23.4 -7.9,13.7 -9.1,30 -8.4,45.5 -10.3,-8.8 -18.8,-19.6 -24.7,-31.8 -1,-2 -0.6,-4.2 -0.7,-6.4 0.2,-8.6 -0.2,-17.2 0.2,-25.8 4,-7.3 9.5,-14 16.3,-18.8 z"
         style="fill:#ffffff;stroke:#ffffff;stroke-width:0.09375" />
      <path
         id="path3163"
         d="m 117.4,227.3 c 2,-0.3 4,-0.2 6.1,-0.3 -0.9,10.8 6.5,19.8 14.7,25.8 -8.5,1.2 -17.4,-0.1 -25.3,-3.7 -2.1,-2.5 -3.5,-5.8 -4,-9 1.3,-5.1 4.2,-9.9 8.5,-12.8 z"
         style="fill:#ffffff;stroke:#ffffff;stroke-width:0.09375" />
      <path
         id="path3165"
         d="m 51.4,269.4 c 11.8,-12.1 29.2,-16.5 45.6,-17 4.1,-0.6 7.2,2.4 10.8,3.8 -8.9,6 -15.3,15.6 -17.2,26.2 -2.5,13.2 0.8,26.6 5.6,38.9 -12.4,0 -24.8,0.1 -37.2,-0.1 -4.8,-2.3 -8.9,-6 -13.2,-9.3 -1.1,-11.7 -1,-23.7 2.1,-35.1 0.7,-2.6 1.3,-5.5 3.5,-7.4 z"
         style="fill:#ffffff;stroke:#ffffff;stroke-width:0.09375" />
      <path
         id="path3167"
         d="m 129,262.9 c 3,-1.9 6.8,-1.2 10.1,-1.8 -4.2,7.9 -5.1,17.5 -2.5,26.1 4.1,13.8 14.2,24.6 24.6,34.1 -19.8,0.1 -39.7,0 -59.5,0 -2.5,-5.9 -4.6,-12.1 -5.8,-18.4 -0.6,-2.9 0.9,-5.6 1.8,-8.3 5.9,-14.1 18.2,-24.3 31.3,-31.7 z"
         style="fill:#ffffff;stroke:#ffffff;stroke-width:0.09375" />
      <path
         id="path3169"
         d="m 15,291.3 c 7.8,11.7 18.1,21.3 29,30 -9.7,0.1 -19.4,0 -29,0 0,-10 -0.1,-20 0,-30 z"
         style="fill:#ffffff;stroke:#ffffff;stroke-width:0.09375" />
    </g>
    <flowRoot
       xml:space="preserve"
       id="flowRoot3215"
       style="font-size:100px;font-style:normal;font-variant:normal;font-weight:normal;font-stretch:normal;text-align:center;text-anchor:middle;fill:#000000;fill-opacity:1;stroke:none;font-family:Capture it;-inkscape-font-specification:Capture it"
       transform="matrix(0.91247525,0,0,0.91247525,11.651881,307.08113)"><flowRegion
         id="flowRegion3217"><rect
           id="rect3219"
           width="494.97476"
           height="117.11456"
           x="0"
           y="0.44079062"
           style="font-size:100px;font-style:normal;font-variant:normal;font-weight:normal;font-stretch:normal;text-align:center;text-anchor:middle;font-family:Capture it;-inkscape-font-specification:Capture it" /></flowRegion><flowPara
         id="flowPara3221">HacDC</flowPara></flowRoot>    <flowRoot
       transform="translate(495.00162,769.0785)"
       style="font-size:26px;font-style:normal;font-variant:normal;font-weight:normal;font-stretch:normal;text-align:center;text-anchor:middle;fill:#000000;fill-opacity:1;stroke:none;font-family:Capture it 2;-inkscape-font-specification:'Capture it 2,'"
       id="flowRoot3404"
       xml:space="preserve"><flowRegion
         id="flowRegion3406"><rect
           style="font-size:26px;text-align:center;text-anchor:middle"
           y="0.4407891"
           x="1.7678042e-06"
           height="349.134"
           width="494.91797"
           id="rect3408" /></flowRegion><flowPara
         id="flowPara3410"
         style="font-size:26px;font-style:normal;font-variant:normal;font-weight:normal;font-stretch:normal;font-family:NeoRetroShadow;-inkscape-font-specification:NeoRetroShadow">A free, open to the public cooperative maker space in </flowPara><flowPara
         id="flowPara3412"
         style="font-size:26px;font-style:normal;font-variant:normal;font-weight:normal;font-stretch:normal;font-family:NeoRetroShadow;-inkscape-font-specification:NeoRetroShadow">Columbia Heights</flowPara><flowPara
         id="flowPara3414"
         style="font-size:26px;font-style:normal;font-variant:normal;font-weight:normal;font-stretch:normal;font-family:NeoRetroShadow;-inkscape-font-specification:NeoRetroShadow" /><flowPara
         id="flowPara3416"
         style="font-size:26px;font-style:normal;font-variant:normal;font-weight:normal;font-stretch:normal;font-family:NeoRetroShadow;-inkscape-font-specification:NeoRetroShadow">Come Get your hack on.</flowPara></flowRoot>    <flowRoot
       transform="translate(495.00162,285.15229)"
       style="font-size:40px;font-style:normal;font-variant:normal;font-weight:normal;font-stretch:normal;text-align:center;text-anchor:middle;fill:#000000;fill-opacity:1;stroke:none;font-family:Cortoba;-inkscape-font-specification:Cortoba"
       id="flowRoot3418"
       xml:space="preserve"><flowRegion
         id="flowRegion3420"><rect
           style="font-style:normal;font-variant:normal;font-weight:normal;font-stretch:normal;text-align:center;text-anchor:middle;font-family:Cortoba;-inkscape-font-specification:Cortoba"
           y="681.03107"
           x="0"
           height="81.759224"
           width="494.97476"
           id="rect3422" /></flowRegion><flowPara
         style="font-weight:bold;-inkscape-font-specification:AlArabiya Bold"
         id="flowPara3424">www.hacdc.org</flowPara></flowRoot>    <g
       transform="matrix(0.87017299,0,0,0.87016369,585.06411,426.91734)"
       id="g3426">
      <path
         style="fill:#000000;stroke:#000000;stroke-width:0.09375"
         d="M 0,0 336,0 336,336 0,336 0,0 z"
         id="path3428" />
      <path
         style="fill:#ffffff;stroke:#ffffff;stroke-width:0.09375"
         d="m 15,13.6 c 101.8,0 203.6,0 305.5,0 0,17.6 0,35.3 0,53 -101.8,0.1 -203.7,0 -305.5,0 0,-17.7 -0.1,-35.3 0,-53 z"
         id="path3430" />
      <path
         style="fill:#000000;stroke:#000000;stroke-width:0.09375"
         d="m 244.8,28.1 c 1.2,3.5 2.3,7.1 3.5,10.6 3.7,0 7.3,0 11,0.1 -2.9,2.3 -5.9,4.4 -8.9,6.5 1.1,3.6 2.3,7.1 3.4,10.6 -3,-2.1 -6,-4.3 -9,-6.4 -3,2.1 -6,4.3 -9,6.5 1.1,-3.6 2.2,-7.1 3.4,-10.7 -3,-2.1 -6,-4.3 -9,-6.5 3.7,-0.1 7.5,0 11.2,-0.1 1.1,-3.5 2.2,-7.1 3.4,-10.6 z"
         id="path3432" />
      <path
         style="fill:#000000;stroke:#000000;stroke-width:0.09375"
         d="m 87.2,38.7 c 1.1,-3.5 2.2,-7 3.4,-10.5 1.3,3.5 2.4,7 3.5,10.5 3.7,0 7.4,0 11.1,0.1 -2.9,2.3 -5.9,4.4 -8.9,6.5 1.1,3.6 2.3,7.1 3.3,10.6 -3,-2.1 -6,-4.3 -9,-6.4 -3,2.1 -6,4.4 -9.1,6.6 1.2,-3.6 2.4,-7.2 3.5,-10.8 -3,-2.1 -6,-4.2 -8.9,-6.5 3.7,-0.1 7.4,-0.1 11.1,-0.1 z"
         id="path3434" />
      <path
         style="fill:#000000;stroke:#000000;stroke-width:0.09375"
         d="m 167.7,28.2 c 1.2,3.5 2.3,7 3.5,10.5 3.7,0 7.4,0 11,0.1 -2.9,2.3 -5.8,4.4 -8.8,6.5 1.1,3.6 2.3,7.1 3.3,10.6 -3,-2.1 -6,-4.3 -9,-6.4 -3,2.1 -6,4.3 -9,6.5 1.1,-3.6 2.3,-7.1 3.4,-10.6 -3,-2.2 -6,-4.4 -8.9,-6.6 3.7,-0.1 7.4,0 11.1,-0.1 1.1,-3.5 2.2,-7 3.4,-10.5 z"
         id="path3436" />
      <path
         style="fill:#ffffff;stroke:#ffffff;stroke-width:0.09375"
         d="m 15,97.5 c 101.8,0 203.6,0 305.5,0 0,5.1 0,10.3 0,15.4 -101.9,0 -203.7,0 -305.5,0 0,-5.1 0,-10.3 0,-15.4 z"
         id="path3438" />
      <path
         style="fill:#ffffff;stroke:#ffffff;stroke-width:0.09375"
         d="m 15,143.8 c 1.6,0 3.2,0 4.9,0 -1.6,1.9 -3.3,3.8 -4.9,5.7 0,-1.9 0,-3.8 0,-5.7 z"
         id="path3440" />
      <path
         style="fill:#ffffff;stroke:#ffffff;stroke-width:0.09375"
         d="m 29.8,145.8 c 2.3,-2.6 6.1,-1.9 9.2,-2 6.6,0.3 13.8,-1.2 19.9,2.3 11.2,8.9 18.3,22.1 21.7,35.8 -2.1,2.6 -4,5.5 -5.5,8.5 -9.1,-8.8 -20.5,-15.7 -33.2,-17.1 -9.3,-1.1 -18.7,1.2 -26.9,5.4 0.1,-4.8 -0.4,-9.6 0.2,-14.4 3.9,-6.9 8.9,-13 14.6,-18.5 z"
         id="path3442" />
      <path
         style="fill:#ffffff;stroke:#ffffff;stroke-width:0.09375"
         d="m 66.7,143.9 c 11.2,-0.2 22.3,-0.1 33.5,-0.1 2.9,8 0.9,16.9 -1.8,24.7 -1,3.8 -5.6,4 -8.4,5.9 -4.3,-12.2 -12,-23.7 -23.3,-30.5 z"
         id="path3444" />
      <path
         style="fill:#ffffff;stroke:#ffffff;stroke-width:0.09375"
         d="m 105.6,143.8 c 7.6,0 15.3,-0.1 22.9,0 -1.6,9.6 -7.4,18.3 -14.7,24.5 -2.1,0.3 -4.2,0.3 -6.2,0.4 1.4,-8.3 0.8,-17 -2,-24.9 z"
         id="path3446" />
      <path
         style="fill:#ffffff;stroke:#ffffff;stroke-width:0.09375"
         d="m 133.5,143.8 c 6.7,0 13.5,0 20.3,0 0.8,6.9 -1.1,14.7 -6.8,19.2 -5.6,4.3 -12,8 -19,9.3 -1.5,-0.5 -3,-1.2 -4.5,-1.8 4.6,-8.3 9.6,-16.9 10,-26.7 z"
         id="path3448" />
      <path
         style="fill:#ffffff;stroke:#ffffff;stroke-width:0.09375"
         d="m 168.1,143.8 c 48,0 95.9,0 143.8,0 2.4,17 3,34.2 1.8,51.2 -1.7,19.7 -8,38.6 -16.5,56.3 -13.7,28.4 -34.2,54.6 -62.3,69.9 -21.9,0.2 -43.8,0.2 -65.7,0 -3.6,-2.8 -7.3,-5.7 -10.2,-9.3 -4.1,-10.3 -4.1,-21.7 -2.8,-32.5 1.2,-9.4 3.6,-18.6 6.7,-27.5 0.5,-1.4 0.9,-2.9 2.1,-3.9 11.7,-11 19.5,-25.9 22.5,-41.7 2.3,-12.2 1.7,-25.1 -3.2,-36.6 -4.1,-9.4 -9.7,-18 -16.2,-25.9 z"
         id="path3450" />
      <path
         style="fill:#ffffff;stroke:#ffffff;stroke-width:0.09375"
         d="m 159.2,146.5 c 5.6,6.3 10.5,13.2 14.5,20.7 -3.2,6.3 -7.7,14.2 -15.7,14.2 -7.4,0.7 -15,-0.3 -21.9,-2.9 6.8,-5.1 14.7,-9.7 19.1,-17.3 2.7,-4.4 3.6,-9.6 4,-14.7 z"
         id="path3452" />
      <path
         style="fill:#ffffff;stroke:#ffffff;stroke-width:0.09375"
         d="m 166.3,184.3 c 4.3,-2.9 7.5,-7.1 10.4,-11.4 3,7.9 4.3,16.5 3.4,25 -5.9,3.8 -12.9,6.2 -20,6.8 -5.9,-1 -11.3,-4.1 -15.8,-8 -2.2,-1.4 -1.9,-4.1 -2.5,-6.3 8.5,0.5 17.4,-1.1 24.5,-6.1 z"
         id="path3454" />
      <path
         style="fill:#ffffff;stroke:#ffffff;stroke-width:0.09375"
         d="m 101.5,178.4 c 2.7,-0.6 5.5,-1.2 8.4,-1.5 2.5,3.3 3.5,7.5 2.8,11.6 -0.6,0.1 -1.7,0.2 -2.2,0.3 -2.1,-4.2 -5.3,-7.6 -9,-10.4 z"
         id="path3456" />
      <path
         style="fill:#ffffff;stroke:#ffffff;stroke-width:0.09375"
         d="m 116.2,177.1 c 3.3,0.8 6.5,1.9 9.4,3.7 -0.4,4.5 -3.6,8.3 -7.9,9.5 0.4,-4.5 0.2,-9 -1.5,-13.2 z"
         id="path3458" />
      <path
         style="fill:#ffffff;stroke:#ffffff;stroke-width:0.09375"
         d="m 15.1,184.4 c 4.7,-2.3 9.5,-5.1 14.8,-5.4 16.1,2.5 30.3,12.4 40.1,25.1 2.3,2.7 1,6.5 1.6,9.7 -10.2,-3.3 -21.5,-3.8 -31.6,0.1 -10.3,3.7 -18.5,11.4 -25,19.9 0,-16.4 -0.2,-32.9 0.1,-49.4 z"
         id="path3460" />
      <path
         style="fill:#ffffff;stroke:#ffffff;stroke-width:0.09375"
         d="m 86.2,188.3 c 3.3,-2.8 7.2,-8.7 12.1,-5.6 3.7,1.6 7.1,6.1 4.9,10.1 -4.9,-3.5 -10.9,-5.8 -17,-4.5 z"
         id="path3462" />
      <path
         style="fill:#ffffff;stroke:#ffffff;stroke-width:0.09375"
         d="m 122.5,194.1 c 3.3,-2.4 6,-5.5 7.6,-9.2 2.6,3.5 3.9,7.8 4.4,12.2 -2.8,3.4 -7.4,3.6 -10.9,1.4 -0.4,-1.4 -0.7,-2.9 -1.1,-4.4 z"
         id="path3464" />
      <path
         style="fill:#ffffff;stroke:#ffffff;stroke-width:0.09375"
         d="m 84.6,194.6 c 2.6,-1.4 5.9,-2.3 8.8,-1.1 2.5,2 5.9,4.4 4.4,8 -6.5,-1.2 -13.3,0.6 -18.1,5.2 0.9,-4.1 0.2,-10.1 4.9,-12.1 z"
         id="path3466" />
      <path
         style="fill:#ffffff;stroke:#ffffff;stroke-width:0.09375"
         d="m 106,207.8 c -0.6,-3.3 -0.5,-7.6 3,-9.3 0.9,3.5 -1.8,6.3 -3,9.3 z"
         id="path3468" />
      <path
         style="fill:#ffffff;stroke:#ffffff;stroke-width:0.09375"
         d="m 119.2,204.8 c 2,-2.2 4.6,-0.5 6.9,-0.1 2.6,0.7 5.3,-0.1 7.9,-0.5 -1.2,3.3 -2.5,6.4 -4.3,9.4 -4.6,-1.3 -8.5,-4.5 -10.5,-8.8 z"
         id="path3470" />
      <path
         style="fill:#ffffff;stroke:#ffffff;stroke-width:0.09375"
         d="m 111.5,215.4 c -1.4,-3.7 -0.3,-7.9 1.9,-11.1 1.5,2.6 2.6,5.5 4.6,7.7 2,2.4 4.8,3.9 7.3,5.8 -4.7,1.8 -10,0.8 -13.8,-2.4 z"
         id="path3472" />
      <path
         style="fill:#ffffff;stroke:#ffffff;stroke-width:0.09375"
         d="m 142,205.1 c 11.3,7.3 25.8,5 37.2,-0.7 -1.7,9.1 -5.1,17.9 -10,25.7 -6.4,1.5 -13.9,1.3 -19,-3.3 -4.2,-4.8 -7,-10.8 -8.6,-17 -0.4,-1.5 0.2,-3.1 0.4,-4.7 z"
         id="path3474" />
      <path
         style="fill:#ffffff;stroke:#ffffff;stroke-width:0.09375"
         d="m 86.3,208.1 c 3.8,-1 7.7,0.2 11.4,1.3 0.6,1.4 1.2,2.9 1.8,4.4 -3.4,1.2 -7,2.5 -9.4,5.3 -2.5,2.4 -3.4,5.9 -4.5,9.2 -2.2,-4.2 -4.7,-8.4 -5.1,-13.2 1.3,-2.8 3.1,-5.4 5.8,-7 z"
         id="path3476" />
      <path
         style="fill:#ffffff;stroke:#ffffff;stroke-width:0.09375"
         d="m 301.2,262.1 c 9,-16.8 15.5,-34.8 19.3,-53.5 0,37.6 -0.1,75.1 0,112.7 -23.3,0 -46.5,0.1 -69.8,-0.1 21.7,-14.9 38.1,-36.1 50.5,-59.1 z"
         id="path3478" />
      <path
         style="fill:#ffffff;stroke:#ffffff;stroke-width:0.09375"
         d="m 131.2,236 c -0.3,-6.3 0,-13.5 5.3,-17.8 3.5,6.3 8.2,12.3 14.9,15.4 4.1,2.1 8.8,2.5 13.4,2.5 -5.5,6.4 -12.2,11.7 -20,14.8 -4.8,-2.9 -9.4,-6.4 -12.6,-11 -0.8,-1.2 -0.8,-2.6 -1,-3.9 z"
         id="path3480" />
      <path
         style="fill:#ffffff;stroke:#ffffff;stroke-width:0.09375"
         d="m 94.7,221.7 c 2.8,-1.3 5.9,-2.2 8.9,-1.6 2,1.3 3.9,2.8 5.9,4.1 -2.5,2.9 -4.8,6.1 -5.5,9.9 -1,3.8 0,7.7 1,11.4 -5,-3.1 -10.1,-6.3 -13.9,-10.8 -0.8,-4.5 -0.3,-10.1 3.6,-13 z"
         id="path3482" />
      <path
         style="fill:#ffffff;stroke:#ffffff;stroke-width:0.09375"
         d="m 31.4,224.4 c 13.4,-4.3 28.1,-2.8 41.2,1.9 1.4,0.6 3.1,0.9 3.7,2.4 1.9,3.4 4,6.6 6.5,9.6 -14.1,2.4 -27.1,10.8 -34.1,23.4 -7.9,13.7 -9.1,30 -8.4,45.5 -10.3,-8.8 -18.8,-19.6 -24.7,-31.8 -1,-2 -0.6,-4.2 -0.7,-6.4 0.2,-8.6 -0.2,-17.2 0.2,-25.8 4,-7.3 9.5,-14 16.3,-18.8 z"
         id="path3484" />
      <path
         style="fill:#ffffff;stroke:#ffffff;stroke-width:0.09375"
         d="m 117.4,227.3 c 2,-0.3 4,-0.2 6.1,-0.3 -0.9,10.8 6.5,19.8 14.7,25.8 -8.5,1.2 -17.4,-0.1 -25.3,-3.7 -2.1,-2.5 -3.5,-5.8 -4,-9 1.3,-5.1 4.2,-9.9 8.5,-12.8 z"
         id="path3486" />
      <path
         style="fill:#ffffff;stroke:#ffffff;stroke-width:0.09375"
         d="m 51.4,269.4 c 11.8,-12.1 29.2,-16.5 45.6,-17 4.1,-0.6 7.2,2.4 10.8,3.8 -8.9,6 -15.3,15.6 -17.2,26.2 -2.5,13.2 0.8,26.6 5.6,38.9 -12.4,0 -24.8,0.1 -37.2,-0.1 -4.8,-2.3 -8.9,-6 -13.2,-9.3 -1.1,-11.7 -1,-23.7 2.1,-35.1 0.7,-2.6 1.3,-5.5 3.5,-7.4 z"
         id="path3488" />
      <path
         style="fill:#ffffff;stroke:#ffffff;stroke-width:0.09375"
         d="m 129,262.9 c 3,-1.9 6.8,-1.2 10.1,-1.8 -4.2,7.9 -5.1,17.5 -2.5,26.1 4.1,13.8 14.2,24.6 24.6,34.1 -19.8,0.1 -39.7,0 -59.5,0 -2.5,-5.9 -4.6,-12.1 -5.8,-18.4 -0.6,-2.9 0.9,-5.6 1.8,-8.3 5.9,-14.1 18.2,-24.3 31.3,-31.7 z"
         id="path3490" />
      <path
         style="fill:#ffffff;stroke:#ffffff;stroke-width:0.09375"
         d="m 15,291.3 c 7.8,11.7 18.1,21.3 29,30 -9.7,0.1 -19.4,0 -29,0 0,-10 -0.1,-20 0,-30 z"
         id="path3492" />
    </g>
    <flowRoot
       transform="matrix(0.91247525,0,0,0.91247525,506.6535,307.08113)"
       style="font-size:100px;font-style:normal;font-variant:normal;font-weight:normal;font-stretch:normal;text-align:center;text-anchor:middle;fill:#000000;fill-opacity:1;stroke:none;font-family:Capture it;-inkscape-font-specification:Capture it"
       id="flowRoot3494"
       xml:space="preserve"><flowRegion
         id="flowRegion3496"><rect
           style="font-size:100px;font-style:normal;font-variant:normal;font-weight:normal;font-stretch:normal;text-align:center;text-anchor:middle;font-family:Capture it;-inkscape-font-specification:Capture it"
           y="0.44079062"
           x="0"
           height="117.11456"
           width="494.97476"
           id="rect3498" /></flowRegion><flowPara
         id="flowPara3500">HacDC</flowPara></flowRoot>  </g>
</svg>
