<?xml version="1.0" encoding="UTF-8" standalone="no"?>
<svg
   xmlns:dc="http://purl.org/dc/elements/1.1/"
   xmlns:cc="http://creativecommons.org/ns#"
   xmlns:rdf="http://www.w3.org/1999/02/22-rdf-syntax-ns#"
   xmlns:svg="http://www.w3.org/2000/svg"
   xmlns="http://www.w3.org/2000/svg"
   xmlns:sodipodi="http://sodipodi.sourceforge.net/DTD/sodipodi-0.dtd"
   xmlns:inkscape="http://www.inkscape.org/namespaces/inkscape"
   width="247.5"
   height="382.5"
   viewBox="0 0 336 336"
   version="1.0"
   id="svg2448"
   sodipodi:version="0.32"
   inkscape:version="0.46"
   sodipodi:docname="hacdc.svg"
   inkscape:output_extension="org.inkscape.output.svg.inkscape">
  <metadata
     id="metadata2519">
    <rdf:RDF>
      <cc:Work
         rdf:about="">
        <dc:format>image/svg+xml</dc:format>
        <dc:type
           rdf:resource="http://purl.org/dc/dcmitype/StillImage" />
      </cc:Work>
    </rdf:RDF>
  </metadata>
  <defs
     id="defs2517">
    <inkscape:perspective
       sodipodi:type="inkscape:persp3d"
       inkscape:vp_x="0 : 210 : 1"
       inkscape:vp_y="0 : 1000 : 0"
       inkscape:vp_z="420 : 210 : 1"
       inkscape:persp3d-origin="210 : 140 : 1"
       id="perspective2521" />
  </defs>
  <sodipodi:namedview
     inkscape:window-height="726"
     inkscape:window-width="1102"
     inkscape:pageshadow="2"
     inkscape:pageopacity="0.0"
     guidetolerance="10.0"
     gridtolerance="10.0"
     objecttolerance="10.0"
     borderopacity="1.0"
     bordercolor="#666666"
     pagecolor="#ffffff"
     id="base"
     showgrid="false"
     inkscape:zoom="0.29404763"
     inkscape:cx="381.58605"
     inkscape:cy="577.04546"
     inkscape:window-x="168"
     inkscape:window-y="24"
     inkscape:current-layer="svg2448"
     units="in" />
  <path
     d="M 38.466379,-58.002871 L 298.86735,-58.002871 L 298.86735,219.09683 L 38.466379,219.09683 L 38.466379,-58.002871 z"
     id="path2450"
     style="fill:#000000;stroke:#000000;stroke-width:0.07494994" />
  <path
     d="M 50.091416,-46.78694 C 128.98671,-46.78694 207.88201,-46.78694 286.85481,-46.78694 C 286.85481,-32.272184 286.85481,-17.674976 286.85481,-3.0777565 C 207.9595,-2.9952806 128.98671,-3.0777565 50.091416,-3.0777565 C 50.091416,-17.674976 50.013919,-32.18972 50.091416,-46.78694 z"
     id="path2452"
     style="fill:#ffffff;stroke:#ffffff;stroke-width:0.07494994" />
  <path
     d="M 228.18709,-34.82876 C 229.11709,-31.942304 229.96959,-28.973384 230.89959,-26.086928 C 233.76711,-26.086928 236.55712,-26.086928 239.42463,-26.004452 C 237.17712,-24.107648 234.85211,-22.375772 232.5271,-20.643896 C 233.3796,-17.674976 234.3096,-14.78852 235.16211,-11.902064 C 232.83711,-13.63394 230.51209,-15.44828 228.18709,-17.180156 C 225.86207,-15.44828 223.53707,-13.63394 221.21206,-11.819588 C 222.06456,-14.78852 222.91707,-17.674976 223.84707,-20.643896 C 221.52206,-22.375772 219.19705,-24.190112 216.87204,-26.004452 C 219.73955,-26.086928 222.68456,-26.004452 225.55207,-26.086928 C 226.40458,-28.973384 227.25708,-31.942304 228.18709,-34.82876 z"
     id="path2454"
     style="fill:#000000;stroke:#000000;stroke-width:0.07494994" />
  <path
     d="M 106.04663,-26.086928 C 106.89913,-28.973384 107.75163,-31.85984 108.68164,-34.746296 C 109.68914,-31.85984 110.54164,-28.973384 111.39415,-26.086928 C 114.26165,-26.086928 117.12916,-26.086928 119.99668,-26.004452 C 117.74916,-24.107648 115.42416,-22.375772 113.09915,-20.643896 C 113.95165,-17.674976 114.88166,-14.78852 115.65666,-11.902064 C 113.33165,-13.63394 111.00665,-15.44828 108.68164,-17.180156 C 106.35663,-15.44828 104.03162,-13.551464 101.62911,-11.737124 C 102.55911,-14.706044 103.48911,-17.674976 104.34162,-20.643896 C 102.01662,-22.375772 99.691603,-24.107648 97.444097,-26.004452 C 100.31161,-26.086928 103.17911,-26.086928 106.04663,-26.086928 z"
     id="path2456"
     style="fill:#000000;stroke:#000000;stroke-width:0.07494994" />
  <path
     d="M 168.43436,-34.746296 C 169.36436,-31.85984 170.21687,-28.973384 171.14687,-26.086928 C 174.01438,-26.086928 176.88189,-26.086928 179.6719,-26.004452 C 177.42439,-24.107648 175.17689,-22.375772 172.85187,-20.643896 C 173.70438,-17.674976 174.63438,-14.78852 175.40938,-11.902064 C 173.08438,-13.63394 170.75936,-15.44828 168.43436,-17.180156 C 166.10934,-15.44828 163.78434,-13.63394 161.45933,-11.819588 C 162.31183,-14.78852 163.24184,-17.674976 164.09434,-20.561432 C 161.76933,-22.375772 159.44433,-24.190112 157.19682,-26.004452 C 160.06433,-26.086928 162.93184,-26.004452 165.79934,-26.086928 C 166.65185,-28.973384 167.50436,-31.85984 168.43436,-34.746296 z"
     id="path2458"
     style="fill:#000000;stroke:#000000;stroke-width:0.07494994" />
  <path
     d="M 50.091416,22.405527 C 128.98671,22.405527 207.88201,22.405527 286.85481,22.405527 C 286.85481,26.611503 286.85481,30.899943 286.85481,35.105931 C 207.88201,35.105931 128.98671,35.105931 50.091416,35.105931 C 50.091416,30.899943 50.091416,26.611503 50.091416,22.405527 z"
     id="path2460"
     style="fill:#ffffff;stroke:#ffffff;stroke-width:0.07494994" />
  <path
     d="M 50.091416,60.589202 C 51.331421,60.589202 52.571426,60.589202 53.888927,60.589202 C 52.648923,62.156138 51.331421,63.723074 50.091416,65.289998 C 50.091416,63.723074 50.091416,62.156138 50.091416,60.589202 z"
     id="path2462"
     style="fill:#ffffff;stroke:#ffffff;stroke-width:0.07494994" />
  <path
     d="M 61.561459,62.238602 C 63.343969,60.094382 66.288974,60.671678 68.691486,60.589202 C 73.806512,60.836618 79.386533,59.599562 84.114047,62.486018 C 92.79408,69.825854 98.296604,80.711918 100.93161,92.010325 C 99.304104,94.154557 97.831596,96.546193 96.669088,99.020293 C 89.616571,91.762921 80.781532,86.072485 70.938992,84.917894 C 63.731468,84.01073 56.446446,85.907534 50.091416,89.371285 C 50.168913,85.412714 49.781415,81.454154 50.246423,77.495582 C 53.268925,71.805146 57.143946,66.77447 61.561459,62.238602 z"
     id="path2464"
     style="fill:#ffffff;stroke:#ffffff;stroke-width:0.07494994" />
  <path
     d="M 90.159064,60.671678 C 98.839097,60.506738 107.44163,60.589202 116.12166,60.589202 C 118.36917,67.186814 116.81916,74.526662 114.72666,80.959334 C 113.95165,84.093194 110.38665,84.258134 108.21664,85.82507 C 104.88413,75.763706 98.916606,66.279638 90.159064,60.671678 z"
     id="path2466"
     style="fill:#ffffff;stroke:#ffffff;stroke-width:0.07494994" />
  <path
     d="M 120.30668,60.589202 C 126.1967,60.589202 132.16422,60.506738 138.05425,60.589202 C 136.81424,68.506334 132.31922,75.681242 126.6617,80.794394 C 125.0342,81.041798 123.40669,81.041798 121.85669,81.124274 C 122.94169,74.279246 122.47669,67.10435 120.30668,60.589202 z"
     id="path2468"
     style="fill:#ffffff;stroke:#ffffff;stroke-width:0.07494994" />
  <path
     d="M 141.92925,60.589202 C 147.12178,60.589202 152.3918,60.589202 157.66182,60.589202 C 158.28182,66.279638 156.80931,72.71231 152.3918,76.423478 C 148.05178,79.969694 143.09176,83.02109 137.66675,84.093194 C 136.50424,83.68085 135.34173,83.103554 134.17922,82.608734 C 137.74424,75.763706 141.61925,68.671274 141.92925,60.589202 z"
     id="path2470"
     style="fill:#ffffff;stroke:#ffffff;stroke-width:0.07494994" />
  <path
     d="M 168.74436,60.589202 C 205.9445,60.589202 243.06714,60.589202 280.18979,60.589202 C 282.04979,74.609126 282.51479,88.79399 281.58479,102.81393 C 280.26728,119.06054 275.38476,134.6474 268.79724,149.24461 C 258.17969,172.66613 242.29213,194.27331 220.51456,206.89125 C 203.54199,207.05619 186.56942,207.05619 169.59687,206.89125 C 166.80686,204.58208 163.93934,202.19044 161.69183,199.22152 C 158.51432,190.72709 158.51432,181.3255 159.52182,172.41872 C 160.45183,164.66653 162.31183,157.07928 164.71435,149.73943 C 165.10184,148.58485 165.41185,147.3478 166.34185,146.52309 C 175.40938,137.45138 181.45441,125.16334 183.77941,112.13305 C 185.56192,102.07169 185.09693,91.433041 181.2994,81.948974 C 178.12189,74.196782 173.78188,67.10435 168.74436,60.589202 z"
     id="path2472"
     style="fill:#ffffff;stroke:#ffffff;stroke-width:0.07494994" />
  <path
     d="M 161.84684,62.815898 C 166.18685,68.011514 169.98437,73.701962 173.08438,79.887218 C 170.60437,85.082834 167.11686,91.597981 160.91683,91.597981 C 155.18181,92.175265 149.29178,91.350565 143.94427,89.206345 C 149.21429,85.00037 155.33681,81.206738 158.74683,74.939006 C 160.83932,71.310326 161.53684,67.021874 161.84684,62.815898 z"
     id="path2474"
     style="fill:#ffffff;stroke:#ffffff;stroke-width:0.07494994" />
  <path
     d="M 167.34935,93.989617 C 170.68187,91.597981 173.16187,88.13423 175.40938,84.588014 C 177.73439,91.103161 178.7419,98.195593 178.0444,105.20556 C 173.47188,108.33942 168.04686,110.3187 162.54434,110.81352 C 157.97182,109.98882 153.78681,107.43225 150.29929,104.21591 C 148.59429,103.06133 148.82679,100.83463 148.36178,99.020293 C 154.9493,99.432649 161.84684,98.113117 167.34935,93.989617 z"
     id="path2476"
     style="fill:#ffffff;stroke:#ffffff;stroke-width:0.07494994" />
  <path
     d="M 117.12916,89.12387 C 119.22167,88.62905 121.39168,88.13423 123.63919,87.886825 C 125.5767,90.608341 126.3517,94.072081 125.80919,97.453357 C 125.3442,97.535833 124.49169,97.618297 124.10419,97.700773 C 122.47669,94.237021 119.99668,91.433041 117.12916,89.12387 z"
     id="path2478"
     style="fill:#ffffff;stroke:#ffffff;stroke-width:0.07494994" />
  <path
     d="M 128.52171,88.051765 C 131.07921,88.711525 133.55922,89.618701 135.80674,91.103161 C 135.49674,94.814317 133.01673,97.948177 129.68421,98.937829 C 129.99422,95.226661 129.83921,91.515505 128.52171,88.051765 z"
     id="path2480"
     style="fill:#ffffff;stroke:#ffffff;stroke-width:0.07494994" />
  <path
     d="M 50.168913,94.072081 C 53.81143,92.175265 57.531444,89.866105 61.638957,89.618701 C 74.116513,91.680445 85.121548,99.844993 92.716583,110.3187 C 94.49908,112.5454 93.49158,115.67927 93.956587,118.31831 C 86.051552,115.59679 77.294022,115.18445 69.466495,118.40078 C 61.483962,121.45218 55.128932,127.80238 50.091416,134.81234 C 50.091416,121.28724 49.936422,107.67966 50.168913,94.072081 z"
     id="path2482"
     style="fill:#ffffff;stroke:#ffffff;stroke-width:0.07494994" />
  <path
     d="M 105.27162,97.288417 C 107.82913,94.979257 110.85164,90.113521 114.64915,92.670097 C 117.51667,93.989617 120.15167,97.700773 118.44667,100.99957 C 114.64915,98.113117 109.99914,96.216313 105.27162,97.288417 z"
     id="path2484"
     style="fill:#ffffff;stroke:#ffffff;stroke-width:0.07494994" />
  <path
     d="M 133.40423,102.07169 C 135.96173,100.09241 138.05425,97.535833 139.29425,94.484437 C 141.30925,97.370893 142.31676,100.91711 142.70426,104.54579 C 140.53425,107.34978 136.96924,107.51472 134.25673,105.70038 C 133.94673,104.54579 133.71423,103.30875 133.40423,102.07169 z"
     id="path2486"
     style="fill:#ffffff;stroke:#ffffff;stroke-width:0.07494994" />
  <path
     d="M 104.03162,102.48405 C 106.04663,101.32945 108.60414,100.58723 110.85164,101.57687 C 112.78915,103.22627 115.42416,105.20556 114.26165,108.17448 C 109.22414,107.18484 103.95412,108.6693 100.23411,112.46293 C 100.93161,109.08166 100.3891,104.13345 104.03162,102.48405 z"
     id="path2488"
     style="fill:#ffffff;stroke:#ffffff;stroke-width:0.07494994" />
  <path
     d="M 120.61668,113.3701 C 120.15167,110.64858 120.22917,107.10237 122.94169,105.70038 C 123.63919,108.58684 121.54669,110.896 120.61668,113.3701 z"
     id="path2490"
     style="fill:#ffffff;stroke:#ffffff;stroke-width:0.07494994" />
  <path
     d="M 130.84672,110.896 C 132.39673,109.08166 134.41173,110.48364 136.19424,110.81352 C 138.20924,111.39082 140.30175,110.73106 142.31676,110.40118 C 141.38676,113.12269 140.37925,115.67927 138.98425,118.15337 C 135.41923,117.08125 132.39673,114.44221 130.84672,110.896 z"
     id="path2492"
     style="fill:#ffffff;stroke:#ffffff;stroke-width:0.07494994" />
  <path
     d="M 124.87919,119.63783 C 123.79419,116.58643 124.6467,113.12269 126.3517,110.48364 C 127.51421,112.62787 128.36671,115.01951 129.91672,116.83385 C 131.46672,118.81313 133.63673,120.05018 135.57424,121.61712 C 131.93172,123.10158 127.82421,122.27688 124.87919,119.63783 z"
     id="path2494"
     style="fill:#ffffff;stroke:#ffffff;stroke-width:0.07494994" />
  <path
     d="M 148.51679,111.1434 C 157.27432,117.16373 168.51186,115.26691 177.3469,110.56612 C 176.02938,118.0709 173.39438,125.32828 169.59687,131.76094 C 164.63685,132.99799 158.82432,132.83305 154.87181,129.03943 C 151.6168,125.08086 149.44679,120.13265 148.20679,115.01951 C 147.89679,113.78245 148.36178,112.46293 148.51679,111.1434 z"
     id="path2496"
     style="fill:#ffffff;stroke:#ffffff;stroke-width:0.07494994" />
  <path
     d="M 105.34912,113.61751 C 108.29414,112.79281 111.31665,113.78245 114.18416,114.68962 C 114.64915,115.84421 115.11416,117.08125 115.57915,118.31831 C 112.94416,119.30795 110.15415,120.38006 108.29414,122.68922 C 106.35663,124.66852 105.65912,127.55496 104.80663,130.27647 C 103.10162,126.81274 101.16411,123.34898 100.85411,119.39042 C 101.86161,117.08125 103.25662,114.93703 105.34912,113.61751 z"
     id="path2498"
     style="fill:#ffffff;stroke:#ffffff;stroke-width:0.07494994" />
  <path
     d="M 271.89725,158.15139 C 278.87227,144.29641 283.9098,129.45177 286.85481,114.02986 C 286.85481,145.03863 286.77731,175.96493 286.85481,206.97371 C 268.79724,206.97371 250.81717,207.05619 232.7596,206.89125 C 249.57717,194.60319 262.28722,177.11953 271.89725,158.15139 z"
     id="path2500"
     style="fill:#ffffff;stroke:#ffffff;stroke-width:0.07494994" />
  <path
     d="M 140.14676,136.62668 C 139.91425,131.43106 140.14676,125.49322 144.25427,121.947 C 146.96678,127.14262 150.60929,132.09082 155.80181,134.6474 C 158.97932,136.37926 162.62183,136.70914 166.18685,136.70914 C 161.92434,141.98724 156.73181,146.35815 150.6868,148.91473 C 146.96678,146.52309 143.40176,143.63665 140.92175,139.84302 C 140.30175,138.85338 140.30175,137.6988 140.14676,136.62668 z"
     id="path2502"
     style="fill:#ffffff;stroke:#ffffff;stroke-width:0.07494994" />
  <path
     d="M 111.85915,124.83346 C 114.02915,123.76134 116.43166,123.0191 118.75668,123.51392 C 120.30668,124.58604 121.77918,125.8231 123.32918,126.8952 C 121.39168,129.28683 119.60917,131.92588 119.06668,135.05974 C 118.29167,138.19362 119.06668,141.40995 119.84167,144.46135 C 115.96667,141.90477 112.01415,139.26572 109.06914,135.55456 C 108.44913,131.84341 108.83664,127.22508 111.85915,124.83346 z"
     id="path2504"
     style="fill:#ffffff;stroke:#ffffff;stroke-width:0.07494994" />
  <path
     d="M 62.801464,127.06014 C 73.186509,123.51392 84.579043,124.75098 94.731584,128.62708 C 95.816594,129.12189 97.134096,129.36931 97.599092,130.60635 C 99.071601,133.41034 100.6991,136.04938 102.63662,138.5235 C 91.70907,140.50278 81.634038,147.43027 76.209011,157.82151 C 70.086498,169.11992 69.156494,182.56255 69.698987,195.34543 C 61.716466,188.08805 55.128932,179.18127 50.556424,169.11992 C 49.781415,167.47052 50.091416,165.65617 50.013919,163.84183 C 50.168913,156.7494 49.858912,149.65696 50.168913,142.56453 C 53.268925,136.5442 57.531444,131.01871 62.801464,127.06014 z"
     id="path2506"
     style="fill:#ffffff;stroke:#ffffff;stroke-width:0.07494994" />
  <path
     d="M 129.45171,129.45177 C 131.00172,129.20437 132.55172,129.28683 134.17922,129.20437 C 133.48173,138.11114 139.21675,145.53345 145.57177,150.48166 C 138.98425,151.4713 132.08673,150.3992 125.9642,147.43027 C 124.3367,145.36851 123.25169,142.647 122.86419,140.00796 C 123.87169,135.80198 126.11919,131.84341 129.45171,129.45177 z"
     id="path2508"
     style="fill:#ffffff;stroke:#ffffff;stroke-width:0.07494994" />
  <path
     d="M 78.301522,164.17171 C 87.446563,154.19282 100.93161,150.56414 113.64166,150.15178 C 116.81916,149.65696 119.22167,152.13106 122.01168,153.28566 C 115.11416,158.23386 110.15415,166.15099 108.68164,174.89283 C 106.74413,185.77888 109.30164,196.82989 113.02165,206.97371 C 103.41162,206.97371 93.801581,207.05619 84.191545,206.89125 C 80.471531,204.99443 77.294022,201.94304 73.961506,199.22152 C 73.109,189.57251 73.186509,179.67609 75.589009,170.2745 C 76.131514,168.13028 76.596522,165.73864 78.301522,164.17171 z"
     id="path2510"
     style="fill:#ffffff;stroke:#ffffff;stroke-width:0.07494994" />
  <path
     d="M 138.44174,158.81115 C 140.76676,157.24422 143.71176,157.82151 146.26927,157.32669 C 143.01426,163.84183 142.31676,171.75896 144.33177,178.85139 C 147.50927,190.23227 155.33681,199.13905 163.39684,206.97371 C 148.05178,207.05619 132.62922,206.97371 117.28417,206.97371 C 115.34666,202.10798 113.71915,196.99483 112.78915,191.79921 C 112.32415,189.40757 113.48666,187.18088 114.18416,184.95418 C 118.75668,173.32589 128.2892,164.91394 138.44174,158.81115 z"
     id="path2512"
     style="fill:#ffffff;stroke:#ffffff;stroke-width:0.07494994" />
  <path
     d="M 50.091416,182.23267 C 56.136445,191.88167 64.118966,199.79882 72.566507,206.97371 C 65.048969,207.05619 57.531444,206.97371 50.091416,206.97371 C 50.091416,198.7267 50.013919,190.47969 50.091416,182.23267 z"
     id="path2514"
     style="fill:#ffffff;stroke:#ffffff;stroke-width:0.07494994" />
  <text
     xml:space="preserve"
     style="font-size:70.30617523px;font-style:normal;font-weight:normal;line-height:80.00000119%;fill:#000000;fill-opacity:1;stroke:none;stroke-width:1px;stroke-linecap:butt;stroke-linejoin:miter;stroke-opacity:1;font-family:Bitstream Vera Sans"
     x="153.07393"
     y="341.2464"
     id="text2523"
     transform="scale(1.0889332,0.91833)"
     sodipodi:linespacing="80.000001%"><tspan
       sodipodi:role="line"
       id="tspan2525"
       x="153.07393"
       y="341.2464"
       style="font-size:121.41166687px;font-style:normal;font-variant:normal;font-weight:bold;font-stretch:semi-condensed;text-align:center;line-height:80.00000119%;writing-mode:lr-tb;text-anchor:middle;font-family:DejaVu Sans;-inkscape-font-specification:DejaVu Sans Bold Semi-Condensed">HAC</tspan><tspan
       sodipodi:role="line"
       x="153.07393"
       y="438.37573"
       id="tspan2527"
       style="font-size:121.41166687px;font-style:normal;font-variant:normal;font-weight:bold;font-stretch:semi-condensed;text-align:center;line-height:80.00000119%;writing-mode:lr-tb;text-anchor:middle;font-family:DejaVu Sans;-inkscape-font-specification:DejaVu Sans Bold Semi-Condensed" /></text>
  <text
     xml:space="preserve"
     style="font-size:87.64926147px;font-style:normal;font-weight:normal;line-height:80.00000119%;fill:#000000;fill-opacity:1;stroke:none;stroke-width:1px;stroke-linecap:butt;stroke-linejoin:miter;stroke-opacity:1;font-family:Bitstream Vera Sans"
     x="122.2526"
     y="545.22546"
     id="text2414"
     transform="scale(1.3575507,0.7366208)"
     sodipodi:linespacing="80.000001%"><tspan
       sodipodi:role="line"
       id="tspan2416"
       x="122.2526"
       y="545.22546"
       style="font-size:151.36143494px;font-style:normal;font-variant:normal;font-weight:bold;font-stretch:semi-condensed;text-align:center;line-height:80.00000119%;writing-mode:lr-tb;text-anchor:middle;font-family:DejaVu Sans;-inkscape-font-specification:DejaVu Sans Bold Semi-Condensed">DC</tspan><tspan
       sodipodi:role="line"
       x="122.2526"
       y="666.31464"
       id="tspan2418"
       style="font-size:151.36143494px;font-style:normal;font-variant:normal;font-weight:bold;font-stretch:semi-condensed;text-align:center;line-height:80.00000119%;writing-mode:lr-tb;text-anchor:middle;font-family:DejaVu Sans;-inkscape-font-specification:DejaVu Sans Bold Semi-Condensed" /></text>
</svg>
