<?xml version="1.0" encoding="UTF-8" ?>
<!DOCTYPE svg PUBLIC "-//W3C//DTD SVG 1.1//EN" "http://www.w3.org/Graphics/SVG/1.1/DTD/svg11.dtd">
<svg width="336pt" height="336pt" viewBox="0 0 336 336" version="1.1" xmlns="http://www.w3.org/2000/svg">
<path fill="#000000" stroke="#000000" stroke-width="0.09375" d=" M 0.0 0.0 L 336.0 0.0 L 336.0 336.0 L 0.0 336.0 L 0.0 0.0 Z" />
<path fill="#ffffff" stroke="#ffffff" stroke-width="0.09375" d=" M 15.0 13.6 C 116.8 13.6 218.6 13.6 320.5 13.6 C 320.5 31.2 320.5 48.9 320.5 66.6 C 218.7 66.7 116.8 66.6 15.0 66.6 C 15.0 48.9 14.9 31.3 15.0 13.6 Z" />
<path fill="#000000" stroke="#000000" stroke-width="0.09375" d=" M 244.8 28.1 C 246.0 31.6 247.1 35.2 248.3 38.7 C 252.0 38.7 255.6 38.7 259.3 38.8 C 256.4 41.1 253.4 43.2 250.4 45.3 C 251.5 48.9 252.7 52.4 253.8 55.9 C 250.8 53.8 247.8 51.6 244.8 49.5 C 241.8 51.6 238.8 53.8 235.8 56.0 C 236.9 52.4 238.0 48.9 239.2 45.3 C 236.2 43.2 233.2 41.0 230.2 38.8 C 233.9 38.7 237.7 38.8 241.4 38.7 C 242.5 35.2 243.6 31.6 244.8 28.1 Z" />
<path fill="#000000" stroke="#000000" stroke-width="0.09375" d=" M 87.2 38.7 C 88.3 35.2 89.4 31.7 90.6 28.2 C 91.9 31.7 93.0 35.2 94.1 38.7 C 97.8 38.7 101.5 38.7 105.2 38.8 C 102.3 41.1 99.3 43.2 96.3 45.3 C 97.4 48.9 98.6 52.4 99.6 55.9 C 96.6 53.8 93.6 51.6 90.6 49.5 C 87.6 51.6 84.6 53.9 81.5 56.1 C 82.7 52.5 83.9 48.9 85.0 45.3 C 82.0 43.2 79.0 41.1 76.1 38.8 C 79.8 38.7 83.5 38.7 87.2 38.7 Z" />
<path fill="#000000" stroke="#000000" stroke-width="0.09375" d=" M 167.7 28.2 C 168.9 31.7 170.0 35.2 171.2 38.7 C 174.9 38.7 178.6 38.7 182.2 38.8 C 179.3 41.1 176.4 43.2 173.4 45.3 C 174.5 48.9 175.7 52.4 176.7 55.9 C 173.7 53.8 170.7 51.6 167.7 49.5 C 164.7 51.6 161.7 53.8 158.7 56.0 C 159.8 52.4 161.0 48.9 162.1 45.4 C 159.1 43.2 156.1 41.0 153.2 38.8 C 156.9 38.7 160.6 38.8 164.3 38.7 C 165.4 35.2 166.5 31.7 167.7 28.2 Z" />
<path fill="#ffffff" stroke="#ffffff" stroke-width="0.09375" d=" M 15.0 97.5 C 116.8 97.5 218.6 97.5 320.5 97.5 C 320.5 102.6 320.5 107.8 320.5 112.9 C 218.6 112.9 116.8 112.9 15.0 112.9 C 15.0 107.8 15.0 102.6 15.0 97.5 Z" />
<path fill="#ffffff" stroke="#ffffff" stroke-width="0.09375" d=" M 15.0 143.8 C 16.6 143.8 18.2 143.8 19.9 143.8 C 18.3 145.7 16.6 147.6 15.0 149.5 C 15.0 147.6 15.0 145.7 15.0 143.8 Z" />
<path fill="#ffffff" stroke="#ffffff" stroke-width="0.09375" d=" M 29.8 145.8 C 32.1 143.2 35.9 143.9 39.0 143.8 C 45.6 144.1 52.8 142.6 58.9 146.1 C 70.1 155.0 77.2 168.2 80.6 181.9 C 78.5 184.5 76.6 187.4 75.1 190.4 C 66.0 181.6 54.6 174.7 41.9 173.3 C 32.6 172.2 23.2 174.5 15.0 178.7 C 15.1 173.9 14.6 169.1 15.2 164.3 C 19.1 157.4 24.1 151.3 29.8 145.8 Z" />
<path fill="#ffffff" stroke="#ffffff" stroke-width="0.09375" d=" M 66.7 143.9 C 77.9 143.7 89.0 143.8 100.2 143.8 C 103.1 151.8 101.1 160.7 98.4 168.5 C 97.4 172.3 92.8 172.5 90.0 174.4 C 85.7 162.2 78.0 150.7 66.7 143.9 Z" />
<path fill="#ffffff" stroke="#ffffff" stroke-width="0.09375" d=" M 105.6 143.8 C 113.2 143.8 120.9 143.7 128.5 143.8 C 126.9 153.4 121.1 162.1 113.8 168.3 C 111.7 168.6 109.6 168.6 107.6 168.7 C 109.0 160.4 108.4 151.7 105.6 143.8 Z" />
<path fill="#ffffff" stroke="#ffffff" stroke-width="0.09375" d=" M 133.5 143.8 C 140.2 143.8 147.0 143.8 153.8 143.8 C 154.6 150.7 152.7 158.5 147.0 163.0 C 141.4 167.3 135.0 171.0 128.0 172.3 C 126.5 171.8 125.0 171.1 123.5 170.5 C 128.1 162.2 133.1 153.6 133.5 143.8 Z" />
<path fill="#ffffff" stroke="#ffffff" stroke-width="0.09375" d=" M 168.1 143.8 C 216.1 143.8 264.0 143.8 311.9 143.8 C 314.3 160.8 314.9 178.0 313.7 195.0 C 312.0 214.7 305.7 233.6 297.2 251.3 C 283.5 279.7 263.0 305.9 234.9 321.2 C 213.0 321.4 191.1 321.4 169.2 321.2 C 165.6 318.4 161.9 315.5 159.0 311.9 C 154.9 301.6 154.9 290.2 156.2 279.4 C 157.4 270.0 159.8 260.8 162.9 251.9 C 163.4 250.5 163.8 249.0 165.0 248.0 C 176.7 237.0 184.5 222.1 187.5 206.3 C 189.8 194.1 189.2 181.2 184.3 169.7 C 180.2 160.3 174.6 151.7 168.1 143.8 Z" />
<path fill="#ffffff" stroke="#ffffff" stroke-width="0.09375" d=" M 159.2 146.5 C 164.8 152.8 169.7 159.7 173.7 167.2 C 170.5 173.5 166.0 181.4 158.0 181.4 C 150.6 182.1 143.0 181.1 136.1 178.5 C 142.9 173.4 150.8 168.8 155.2 161.2 C 157.9 156.8 158.8 151.6 159.2 146.5 Z" />
<path fill="#ffffff" stroke="#ffffff" stroke-width="0.09375" d=" M 166.3 184.3 C 170.6 181.4 173.8 177.2 176.7 172.9 C 179.7 180.8 181.0 189.4 180.1 197.9 C 174.2 201.7 167.2 204.1 160.1 204.7 C 154.2 203.7 148.8 200.6 144.3 196.7 C 142.1 195.3 142.4 192.6 141.8 190.4 C 150.3 190.9 159.2 189.3 166.3 184.3 Z" />
<path fill="#ffffff" stroke="#ffffff" stroke-width="0.09375" d=" M 101.5 178.4 C 104.2 177.8 107.0 177.2 109.9 176.9 C 112.4 180.2 113.4 184.4 112.7 188.5 C 112.1 188.6 111.0 188.7 110.5 188.8 C 108.4 184.6 105.2 181.2 101.5 178.4 Z" />
<path fill="#ffffff" stroke="#ffffff" stroke-width="0.09375" d=" M 116.2 177.1 C 119.5 177.9 122.7 179.0 125.6 180.8 C 125.2 185.3 122.0 189.1 117.7 190.3 C 118.1 185.8 117.9 181.3 116.2 177.1 Z" />
<path fill="#ffffff" stroke="#ffffff" stroke-width="0.09375" d=" M 15.1 184.4 C 19.8 182.1 24.6 179.3 29.9 179.0 C 46.0 181.5 60.2 191.4 70.0 204.1 C 72.3 206.8 71.0 210.6 71.6 213.8 C 61.4 210.5 50.1 210.0 40.0 213.9 C 29.7 217.6 21.5 225.3 15.0 233.8 C 15.0 217.4 14.8 200.9 15.1 184.4 Z" />
<path fill="#ffffff" stroke="#ffffff" stroke-width="0.09375" d=" M 86.2 188.3 C 89.5 185.5 93.4 179.6 98.3 182.7 C 102.0 184.3 105.4 188.8 103.2 192.8 C 98.3 189.3 92.3 187.0 86.2 188.3 Z" />
<path fill="#ffffff" stroke="#ffffff" stroke-width="0.09375" d=" M 122.5 194.1 C 125.8 191.7 128.5 188.6 130.1 184.9 C 132.7 188.4 134.0 192.7 134.5 197.1 C 131.7 200.5 127.1 200.7 123.6 198.5 C 123.2 197.1 122.9 195.6 122.5 194.1 Z" />
<path fill="#ffffff" stroke="#ffffff" stroke-width="0.09375" d=" M 84.6 194.6 C 87.2 193.2 90.5 192.3 93.4 193.5 C 95.9 195.5 99.3 197.9 97.8 201.5 C 91.3 200.3 84.5 202.1 79.7 206.7 C 80.6 202.6 79.9 196.6 84.6 194.6 Z" />
<path fill="#ffffff" stroke="#ffffff" stroke-width="0.09375" d=" M 106.0 207.8 C 105.4 204.5 105.5 200.2 109.0 198.5 C 109.9 202.0 107.2 204.8 106.0 207.8 Z" />
<path fill="#ffffff" stroke="#ffffff" stroke-width="0.09375" d=" M 119.2 204.8 C 121.2 202.6 123.8 204.3 126.1 204.7 C 128.7 205.4 131.4 204.6 134.0 204.2 C 132.8 207.5 131.5 210.6 129.7 213.6 C 125.1 212.3 121.2 209.1 119.2 204.8 Z" />
<path fill="#ffffff" stroke="#ffffff" stroke-width="0.09375" d=" M 111.5 215.4 C 110.1 211.7 111.2 207.5 113.4 204.3 C 114.9 206.9 116.0 209.8 118.0 212.0 C 120.0 214.4 122.8 215.9 125.3 217.8 C 120.6 219.6 115.3 218.6 111.5 215.4 Z" />
<path fill="#ffffff" stroke="#ffffff" stroke-width="0.09375" d=" M 142.0 205.1 C 153.3 212.4 167.8 210.1 179.2 204.4 C 177.5 213.5 174.1 222.3 169.2 230.1 C 162.8 231.6 155.3 231.4 150.2 226.8 C 146.0 222.0 143.2 216.0 141.6 209.8 C 141.2 208.3 141.8 206.7 142.0 205.1 Z" />
<path fill="#ffffff" stroke="#ffffff" stroke-width="0.09375" d=" M 86.3 208.1 C 90.1 207.1 94.0 208.3 97.7 209.4 C 98.3 210.8 98.9 212.3 99.5 213.8 C 96.1 215.0 92.5 216.3 90.1 219.1 C 87.6 221.5 86.7 225.0 85.6 228.3 C 83.4 224.1 80.9 219.9 80.5 215.1 C 81.8 212.3 83.6 209.7 86.3 208.1 Z" />
<path fill="#ffffff" stroke="#ffffff" stroke-width="0.09375" d=" M 301.2 262.1 C 310.2 245.3 316.7 227.3 320.5 208.6 C 320.5 246.2 320.4 283.7 320.5 321.3 C 297.2 321.3 274.0 321.4 250.7 321.2 C 272.4 306.3 288.8 285.1 301.2 262.1 Z" />
<path fill="#ffffff" stroke="#ffffff" stroke-width="0.09375" d=" M 131.2 236.0 C 130.9 229.7 131.2 222.5 136.5 218.2 C 140.0 224.5 144.7 230.5 151.4 233.6 C 155.5 235.7 160.2 236.1 164.8 236.1 C 159.3 242.5 152.6 247.8 144.8 250.9 C 140.0 248.0 135.4 244.5 132.2 239.9 C 131.4 238.7 131.4 237.3 131.2 236.0 Z" />
<path fill="#ffffff" stroke="#ffffff" stroke-width="0.09375" d=" M 94.7 221.7 C 97.5 220.4 100.6 219.5 103.6 220.1 C 105.6 221.4 107.5 222.9 109.5 224.2 C 107.0 227.1 104.7 230.3 104.0 234.1 C 103.0 237.9 104.0 241.8 105.0 245.5 C 100.0 242.4 94.9 239.2 91.1 234.7 C 90.3 230.2 90.8 224.6 94.7 221.7 Z" />
<path fill="#ffffff" stroke="#ffffff" stroke-width="0.09375" d=" M 31.4 224.4 C 44.8 220.1 59.5 221.6 72.6 226.3 C 74.0 226.9 75.7 227.2 76.3 228.7 C 78.2 232.1 80.3 235.3 82.8 238.3 C 68.7 240.7 55.7 249.1 48.7 261.7 C 40.8 275.4 39.6 291.7 40.3 307.2 C 30.0 298.4 21.5 287.6 15.6 275.4 C 14.6 273.4 15.0 271.2 14.9 269.0 C 15.1 260.4 14.7 251.8 15.1 243.2 C 19.1 235.9 24.6 229.2 31.4 224.4 Z" />
<path fill="#ffffff" stroke="#ffffff" stroke-width="0.09375" d=" M 117.4 227.3 C 119.4 227.0 121.4 227.1 123.5 227.0 C 122.6 237.8 130.0 246.8 138.2 252.8 C 129.7 254.0 120.8 252.7 112.9 249.1 C 110.8 246.6 109.4 243.3 108.9 240.1 C 110.2 235.0 113.1 230.2 117.4 227.3 Z" />
<path fill="#ffffff" stroke="#ffffff" stroke-width="0.09375" d=" M 51.4 269.4 C 63.2 257.3 80.6 252.9 97.0 252.4 C 101.1 251.8 104.2 254.8 107.8 256.2 C 98.9 262.2 92.5 271.8 90.6 282.4 C 88.1 295.6 91.4 309.0 96.2 321.3 C 83.8 321.3 71.4 321.4 59.0 321.2 C 54.2 318.9 50.1 315.2 45.8 311.9 C 44.7 300.2 44.8 288.2 47.9 276.8 C 48.6 274.2 49.2 271.3 51.4 269.4 Z" />
<path fill="#ffffff" stroke="#ffffff" stroke-width="0.09375" d=" M 129.0 262.9 C 132.0 261.0 135.8 261.7 139.1 261.1 C 134.9 269.0 134.0 278.6 136.6 287.2 C 140.7 301.0 150.8 311.8 161.2 321.3 C 141.4 321.4 121.5 321.3 101.7 321.3 C 99.2 315.4 97.1 309.2 95.9 302.9 C 95.3 300.0 96.8 297.3 97.7 294.6 C 103.6 280.5 115.9 270.3 129.0 262.9 Z" />
<path fill="#ffffff" stroke="#ffffff" stroke-width="0.09375" d=" M 15.0 291.3 C 22.8 303.0 33.1 312.6 44.0 321.3 C 34.3 321.4 24.6 321.3 15.0 321.3 C 15.0 311.3 14.9 301.3 15.0 291.3 Z" />
</svg>
