<?xml version="1.0" encoding="UTF-8" standalone="no"?>
<svg
   xmlns:dc="http://purl.org/dc/elements/1.1/"
   xmlns:cc="http://creativecommons.org/ns#"
   xmlns:rdf="http://www.w3.org/1999/02/22-rdf-syntax-ns#"
   xmlns:svg="http://www.w3.org/2000/svg"
   xmlns="http://www.w3.org/2000/svg"
   xmlns:sodipodi="http://sodipodi.sourceforge.net/DTD/sodipodi-0.dtd"
   xmlns:inkscape="http://www.inkscape.org/namespaces/inkscape"
   width="145.27559"
   height="166.53543"
   viewBox="0 0 116.22047 133.22835"
   version="1.1"
   id="svg2"
   inkscape:version="0.48.2 r9819"
   sodipodi:docname="hacdc.stamp.flipped">
  <metadata
     id="metadata74">
    <rdf:RDF>
      <cc:Work
         rdf:about="">
        <dc:format>image/svg+xml</dc:format>
        <dc:type
           rdf:resource="http://purl.org/dc/dcmitype/StillImage" />
        <dc:title></dc:title>
      </cc:Work>
    </rdf:RDF>
  </metadata>
  <defs
     id="defs72" />
  <sodipodi:namedview
     pagecolor="#ffffff"
     bordercolor="#666666"
     borderopacity="1"
     objecttolerance="10"
     gridtolerance="10"
     guidetolerance="10"
     inkscape:pageopacity="0"
     inkscape:pageshadow="2"
     inkscape:window-width="750"
     inkscape:window-height="773"
     id="namedview70"
     showgrid="false"
     inkscape:zoom="1"
     inkscape:cx="83.930885"
     inkscape:cy="85.7956"
     inkscape:window-x="91"
     inkscape:window-y="120"
     inkscape:window-maximized="0"
     inkscape:current-layer="svg2"
     units="mm"
     fit-margin-top="0"
     fit-margin-left="0"
     fit-margin-right="0"
     fit-margin-bottom="0">
    <inkscape:grid
       type="xygrid"
       id="grid3155"
       empspacing="5"
       visible="true"
       enabled="true"
       snapvisiblegridlinesonly="true" />
    <sodipodi:guide
       position="0,0"
       orientation="0,145.27559"
       id="guide3157" />
    <sodipodi:guide
       position="145.27559,0"
       orientation="-166.53543,0"
       id="guide3159" />
    <sodipodi:guide
       position="145.27559,166.53543"
       orientation="0,-145.27559"
       id="guide3161" />
    <sodipodi:guide
       position="0,166.53543"
       orientation="166.53543,0"
       id="guide3163" />
    <sodipodi:guide
       position="0,0"
       orientation="0,145.27559"
       id="guide3165" />
    <sodipodi:guide
       position="145.27559,0"
       orientation="-166.53543,0"
       id="guide3167" />
    <sodipodi:guide
       position="145.27559,166.53543"
       orientation="0,-145.27559"
       id="guide3169" />
    <sodipodi:guide
       position="0,166.53543"
       orientation="166.53543,0"
       id="guide3171" />
  </sodipodi:namedview>
  <path
     d="m 115.63117,0.01742221 -84.760336,0 0,84.19911379 84.760336,0 0,-84.19911379 z"
     id="path4"
     inkscape:connector-curvature="0"
     style="fill:#000000;stroke:#000000;stroke-width:0.02357122" />
  <path
     d="m 111.84722,3.4254811 c -25.68036,0 -51.36072,0 -77.06631,0 0,4.4104292 0,8.8459179 0,13.2814059 25.680363,0.02506 51.38595,0 77.06631,0 0,-4.435488 0.0253,-8.8459175 0,-13.2814059 z"
     id="path6"
     inkscape:connector-curvature="0"
     style="fill:#ffffff;stroke:#ffffff;stroke-width:0.02357122" />
  <path
     d="m 53.877211,7.0590733 c -0.302715,0.877074 -0.580205,1.7792072 -0.88292,2.6562812 -0.933372,0 -1.841519,0 -2.774892,0.025059 0.731562,0.5763635 1.488352,1.1026075 2.24514,1.6288515 -0.277489,0.902134 -0.580205,1.779208 -0.857694,2.656282 0.756789,-0.526245 1.513577,-1.077548 2.270366,-1.603793 0.756789,0.526245 1.513578,1.077548 2.270366,1.628852 -0.277489,-0.902133 -0.554978,-1.779207 -0.857693,-2.681341 0.756788,-0.526244 1.513577,-1.077548 2.270366,-1.6288515 -0.933374,-0.025059 -1.891972,0 -2.825344,-0.025059 -0.27749,-0.877074 -0.554979,-1.7792072 -0.857695,-2.6562812 z"
     id="path8"
     inkscape:connector-curvature="0"
     style="fill:#000000;stroke:#000000;stroke-width:0.02357122" />
  <path
     d="m 93.633842,9.7153545 c -0.277489,-0.877074 -0.554978,-1.754148 -0.857693,-2.6312219 -0.327942,0.8770739 -0.605431,1.7541479 -0.88292,2.6312219 -0.933373,0 -1.866747,0 -2.800119,0.025059 0.731562,0.5763635 1.488351,1.1026075 2.245141,1.6288515 -0.277489,0.902134 -0.580205,1.779208 -0.832468,2.656282 0.756789,-0.526245 1.513578,-1.077548 2.270366,-1.603793 0.756788,0.526245 1.513578,1.102608 2.295593,1.653911 -0.302716,-0.902133 -0.605431,-1.804266 -0.88292,-2.7064 0.756788,-0.526244 1.513576,-1.052488 2.245138,-1.6288515 -0.933372,-0.025059 -1.866744,-0.025059 -2.800118,-0.025059 z"
     id="path10"
     inkscape:connector-curvature="0"
     style="fill:#000000;stroke:#000000;stroke-width:0.02357122" />
  <path
     d="m 73.32668,7.0841326 c -0.302715,0.8770739 -0.580205,1.7541479 -0.882921,2.6312219 -0.933372,0 -1.866745,0 -2.774891,0.025059 0.731562,0.5763635 1.463125,1.1026075 2.219913,1.6288515 -0.277489,0.902134 -0.580205,1.779208 -0.832468,2.656282 0.756789,-0.526245 1.513578,-1.077548 2.270367,-1.603793 0.756788,0.526245 1.513577,1.077548 2.270366,1.628852 -0.27749,-0.902133 -0.580206,-1.779207 -0.857695,-2.656281 0.756789,-0.551304 1.513578,-1.102608 2.245141,-1.6539115 -0.933373,-0.025059 -1.866746,0 -2.800118,-0.025059 -0.27749,-0.877074 -0.554979,-1.754148 -0.857694,-2.6312219 z"
     id="path12"
     inkscape:connector-curvature="0"
     style="fill:#000000;stroke:#000000;stroke-width:0.02357122" />
  <path
     d="m 111.84722,24.450197 c -25.68036,0 -51.36072,0 -77.06631,0 0,1.27802 0,2.581101 0,3.859123 25.70559,0 51.38595,0 77.06631,0 0,-1.278022 0,-2.581103 0,-3.859123 z"
     id="path14"
     inkscape:connector-curvature="0"
     style="fill:#ffffff;stroke:#ffffff;stroke-width:0.02357122" />
  <path
     d="m 111.84722,36.052631 c -0.40362,0 -0.80723,0 -1.23609,0 0.40363,0.476138 0.83247,0.952264 1.23609,1.42839 0,-0.476126 0,-0.952252 0,-1.42839 z"
     id="path16"
     inkscape:connector-curvature="0"
     style="fill:#ffffff;stroke:#ffffff;stroke-width:0.02357122" />
  <path
     d="m 108.11373,36.553828 c -0.5802,-0.651553 -1.5388,-0.476138 -2.32081,-0.501197 -1.66494,0.07518 -3.48123,-0.300711 -5.02004,0.576375 -2.825342,2.230274 -4.616409,5.538096 -5.474102,8.971214 0.529752,0.651541 1.009051,1.378259 1.387445,2.130037 2.295593,-2.205215 5.171387,-3.934303 8.375127,-4.285133 2.34605,-0.275652 4.71732,0.300711 6.78587,1.3532 -0.0253,-1.202845 0.10091,-2.405689 -0.0504,-3.608533 -0.98382,-1.729089 -2.24513,-3.257704 -3.68303,-4.635963 z"
     id="path18"
     inkscape:connector-curvature="0"
     style="fill:#ffffff;stroke:#ffffff;stroke-width:0.02357122" />
  <path
     d="m 98.805232,36.07769 c -2.825344,-0.05012 -5.625462,-0.02506 -8.450808,-0.02506 -0.731563,2.004753 -0.227037,4.235027 0.454074,6.189649 0.252264,0.952251 1.412673,1.00237 2.119009,1.478496 1.08473,-3.05723 3.027154,-5.939044 5.877725,-7.643086 z"
     id="path20"
     inkscape:connector-curvature="0"
     style="fill:#ffffff;stroke:#ffffff;stroke-width:0.02357122" />
  <path
     d="m 88.992204,36.052631 c -1.917198,0 -3.859621,-0.02506 -5.77682,0 0.403621,2.405701 1.866746,4.585856 3.708264,6.13953 0.529752,0.07518 1.059506,0.07518 1.564031,0.100237 -0.353168,-2.079918 -0.20181,-4.260074 0.504525,-6.239767 z"
     id="path22"
     inkscape:connector-curvature="0"
     style="fill:#ffffff;stroke:#ffffff;stroke-width:0.02357122" />
  <path
     d="m 81.95407,36.052631 c -1.690161,0 -3.405549,0 -5.120937,0 -0.201809,1.729101 0.27749,3.683723 1.715388,4.811389 1.412673,1.077549 3.027155,2.004741 4.792995,2.330511 0.378394,-0.125296 0.756788,-0.300711 1.135182,-0.451066 C 83.31629,40.663546 82.054975,38.50845 81.95407,36.052631 z"
     id="path24"
     inkscape:connector-curvature="0"
     style="fill:#ffffff;stroke:#ffffff;stroke-width:0.02357122" />
  <path
     d="m 73.225774,36.052631 c -12.108618,0 -24.19201,0 -36.275399,0 -0.605436,4.260086 -0.756794,8.570278 -0.454077,12.830352 0.428845,4.936673 2.018105,9.672873 4.162339,14.108361 3.456001,7.116829 8.62739,13.682355 15.715976,17.516422 5.524558,0.05012 11.049115,0.05012 16.573673,0 0.908146,-0.70166 1.841518,-1.428378 2.573081,-2.330511 1.034277,-2.581104 1.034277,-5.43786 0.706336,-8.14426 -0.302716,-2.35557 -0.908147,-4.661022 -1.690162,-6.891295 -0.126131,-0.35083 -0.227036,-0.726719 -0.529752,-0.977311 -2.951476,-2.756519 -4.919126,-6.490348 -5.675915,-10.44971 -0.580204,-3.05723 -0.428846,-6.289874 0.807241,-9.171688 1.034278,-2.35557 2.44695,-4.510667 4.086659,-6.49036 z"
     id="path26"
     inkscape:connector-curvature="0"
     style="fill:#ffffff;stroke:#ffffff;stroke-width:0.02357122" />
  <path
     d="m 75.470914,36.729243 c -1.412672,1.578733 -2.64876,3.307822 -3.657812,5.187266 0.807242,1.578733 1.942424,3.558415 3.960528,3.558415 1.866745,0.175414 3.783943,-0.07518 5.524556,-0.726719 -1.715387,-1.278022 -3.708264,-2.430748 -4.81822,-4.335251 -0.68111,-1.102607 -0.908147,-2.405689 -1.009052,-3.683711 z"
     id="path28"
     inkscape:connector-curvature="0"
     style="fill:#ffffff;stroke:#ffffff;stroke-width:0.02357122" />
  <path
     d="m 73.679848,46.201642 c -1.084731,-0.726718 -1.891972,-1.779207 -2.623535,-2.856755 -0.756788,1.979681 -1.084729,4.134777 -0.857693,6.264814 1.48835,0.952252 3.254191,1.553674 5.045257,1.704029 1.488352,-0.250592 2.85057,-1.027429 3.985754,-2.00474 0.554978,-0.35083 0.4793,-1.02743 0.630657,-1.578733 -2.144235,0.125296 -4.389374,-0.275652 -6.18044,-1.528615 z"
     id="path30"
     inkscape:connector-curvature="0"
     style="fill:#ffffff;stroke:#ffffff;stroke-width:0.02357122" />
  <path
     d="m 90.026482,44.723146 c -0.68111,-0.150356 -1.387445,-0.300711 -2.119007,-0.375889 -0.630658,0.826956 -0.882921,1.879444 -0.706338,2.906874 0.151359,0.02506 0.428848,0.05012 0.55498,0.07518 0.529752,-1.052491 1.336993,-1.904506 2.270365,-2.606165 z"
     id="path32"
     inkscape:connector-curvature="0"
     style="fill:#ffffff;stroke:#ffffff;stroke-width:0.02357122" />
  <path
     d="m 86.318218,44.397376 c -0.832467,0.200474 -1.639709,0.476126 -2.371271,0.927192 0.100905,1.127667 0.908147,2.079918 1.992877,2.38063 -0.100905,-1.127667 -0.05045,-2.255334 0.378394,-3.307822 z"
     id="path34"
     inkscape:connector-curvature="0"
     style="fill:#ffffff;stroke:#ffffff;stroke-width:0.02357122" />
  <path
     d="m 111.82199,46.226701 c -1.18563,-0.576363 -2.39649,-1.278022 -3.73349,-1.353199 -4.06142,0.626481 -7.64356,3.107347 -10.115736,6.289873 -0.580203,0.6766 -0.252262,1.628852 -0.40362,2.430748 2.573086,-0.826956 5.423656,-0.952252 7.971506,0.02506 2.59831,0.927193 4.66687,2.856755 6.30657,4.986792 0,-4.109718 0.0504,-8.244495 -0.0253,-12.379273 z"
     id="path36"
     inkscape:connector-curvature="0"
     style="fill:#ffffff;stroke:#ffffff;stroke-width:0.02357122" />
  <path
     d="m 93.886105,47.204012 c -0.832467,-0.701659 -1.816292,-2.180155 -3.052381,-1.403318 -0.933373,0.400948 -1.791067,1.528615 -1.236089,2.530985 1.236089,-0.877074 2.749667,-1.453437 4.28847,-1.127667 z"
     id="path38"
     inkscape:connector-curvature="0"
     style="fill:#ffffff;stroke:#ffffff;stroke-width:0.02357122" />
  <path
     d="m 84.728962,48.657449 c -0.832468,-0.601422 -1.513578,-1.378259 -1.917198,-2.305451 -0.655883,0.877074 -0.983825,1.954622 -1.109956,3.057229 0.706336,0.852015 1.866744,0.902133 2.749664,0.35083 0.100906,-0.35083 0.176585,-0.726719 0.27749,-1.102608 z"
     id="path40"
     inkscape:connector-curvature="0"
     style="fill:#ffffff;stroke:#ffffff;stroke-width:0.02357122" />
  <path
     d="m 94.289727,48.782746 c -0.655885,-0.35083 -1.488352,-0.576363 -2.219914,-0.275652 -0.630657,0.501185 -1.488352,1.102607 -1.109957,2.00474 1.639709,-0.300711 3.355097,0.150356 4.565958,1.303082 -0.227036,-1.02743 -0.05045,-2.530985 -1.236087,-3.03217 z"
     id="path42"
     inkscape:connector-curvature="0"
     style="fill:#ffffff;stroke:#ffffff;stroke-width:0.02357122" />
  <path
     d="m 88.8913,52.090567 c 0.151357,-0.826955 0.126131,-1.904503 -0.756789,-2.33051 -0.227036,0.877074 0.454073,1.578733 0.756789,2.33051 z"
     id="path44"
     inkscape:connector-curvature="0"
     style="fill:#ffffff;stroke:#ffffff;stroke-width:0.02357122" />
  <path
     d="m 85.56143,51.33879 c -0.504526,-0.551304 -1.16041,-0.125297 -1.740615,-0.02506 -0.655883,0.175415 -1.336992,-0.02506 -1.992876,-0.125296 0.302716,0.826956 0.630657,1.603793 1.08473,2.35557 1.160409,-0.32577 2.144235,-1.127666 2.648761,-2.205214 z"
     id="path46"
     inkscape:connector-curvature="0"
     style="fill:#ffffff;stroke:#ffffff;stroke-width:0.02357122" />
  <path
     d="m 87.503853,53.995071 c 0.353169,-0.927193 0.07568,-1.979681 -0.479299,-2.781578 -0.378394,0.651541 -0.655883,1.37826 -1.160409,1.929563 -0.504526,0.601422 -1.210862,0.977311 -1.841519,1.453437 1.185636,0.451067 2.522628,0.200474 3.481227,-0.601422 z"
     id="path48"
     inkscape:connector-curvature="0"
     style="fill:#ffffff;stroke:#ffffff;stroke-width:0.02357122" />
  <path
     d="m 79.809836,51.413968 c -2.850571,1.829325 -6.508382,1.252962 -9.38418,-0.175415 0.428848,2.280392 1.28654,4.485607 2.52263,6.440229 1.614482,0.375889 3.506453,0.32577 4.792994,-0.826956 1.059505,-1.202844 1.76584,-2.7064 2.169461,-4.260073 0.100905,-0.375889 -0.05045,-0.776837 -0.100905,-1.177785 z"
     id="path50"
     inkscape:connector-curvature="0"
     style="fill:#ffffff;stroke:#ffffff;stroke-width:0.02357122" />
  <path
     d="m 93.860879,52.165745 c -0.958598,-0.250592 -1.942423,0.05012 -2.875796,0.325771 -0.151359,0.350829 -0.302716,0.726718 -0.454074,1.102607 0.857695,0.300711 1.765841,0.626481 2.371272,1.32814 0.630656,0.601423 0.857693,1.478497 1.135183,2.305452 0.554978,-1.052489 1.185635,-2.104978 1.28654,-3.307822 -0.327941,-0.701659 -0.782015,-1.3532 -1.463125,-1.754148 z"
     id="path52"
     inkscape:connector-curvature="0"
     style="fill:#ffffff;stroke:#ffffff;stroke-width:0.02357122" />
  <path
     d="M 39.649588,65.697744 C 37.37922,61.487789 35.739511,56.977122 34.78091,52.291041 c 0,9.422281 0.02523,18.819502 0,28.241784 5.877727,0 11.730225,0.02506 17.60795,-0.02506 -5.474104,-3.73383 -9.611216,-9.046393 -12.739272,-14.810022 z"
     id="path54"
     inkscape:connector-curvature="0"
     style="fill:#ffffff;stroke:#ffffff;stroke-width:0.02357122" />
  <path
     d="m 82.534275,59.157278 c 0.07568,-1.578733 0,-3.383 -1.336994,-4.460548 -0.882919,1.578733 -2.068555,3.082289 -3.758717,3.859126 -1.034277,0.526244 -2.219913,0.626481 -3.380322,0.626481 1.387445,1.603792 3.077607,2.931933 5.045258,3.70877 1.210862,-0.726718 2.371271,-1.603792 3.178512,-2.756518 0.201811,-0.300711 0.201811,-0.651541 0.252263,-0.977311 z"
     id="path56"
     inkscape:connector-curvature="0"
     style="fill:#ffffff;stroke:#ffffff;stroke-width:0.02357122" />
  <path
     d="m 91.741872,55.573804 c -0.706337,-0.32577 -1.488354,-0.551304 -2.245142,-0.400948 -0.504526,0.32577 -0.983824,0.701659 -1.48835,1.02743 0.630657,0.726718 1.210861,1.528614 1.387445,2.480866 0.252263,0.952252 0,1.929563 -0.252262,2.856755 1.261313,-0.776837 2.547856,-1.578733 3.506455,-2.7064 0.20181,-1.127666 0.07568,-2.530984 -0.908146,-3.257703 z"
     id="path58"
     inkscape:connector-curvature="0"
     style="fill:#ffffff;stroke:#ffffff;stroke-width:0.02357122" />
  <path
     d="m 107.71011,56.250404 c -3.38032,-1.077548 -7.08859,-0.701659 -10.393229,0.476126 -0.353169,0.150355 -0.782015,0.225533 -0.933373,0.601422 -0.479299,0.852015 -1.009051,1.653911 -1.639708,2.405689 3.556907,0.601422 6.83632,2.706399 8.60216,5.863866 1.99288,3.433118 2.2956,7.517777 2.11901,11.401963 2.59831,-2.205215 4.74255,-4.911616 6.23089,-7.968845 0.25227,-0.501185 0.15136,-1.052489 0.17659,-1.603793 -0.0504,-2.155096 0.0504,-4.310192 -0.0504,-6.465288 -1.00906,-1.829325 -2.3965,-3.508296 -4.11189,-4.71114 z"
     id="path60"
     inkscape:connector-curvature="0"
     style="fill:#ffffff;stroke:#ffffff;stroke-width:0.02357122" />
  <path
     d="m 86.015502,56.977122 c -0.504525,-0.07518 -1.009051,-0.05012 -1.538804,-0.07518 0.227038,2.706399 -1.639708,4.961733 -3.708264,6.465288 2.144235,0.300711 4.389375,-0.02506 6.382251,-0.927193 0.529752,-0.626481 0.882921,-1.453436 1.009053,-2.255333 -0.327943,-1.278022 -1.059505,-2.480866 -2.144236,-3.207585 z"
     id="path62"
     inkscape:connector-curvature="0"
     style="fill:#ffffff;stroke:#ffffff;stroke-width:0.02357122" />
  <path
     d="m 102.66485,67.527069 c -2.976698,-3.03217 -7.366072,-4.134777 -11.503183,-4.260073 -1.03428,-0.150356 -1.816295,0.601422 -2.724441,0.952252 2.245141,1.503555 3.859624,3.909244 4.338923,6.565525 0.630657,3.307822 -0.20181,6.665763 -1.412671,9.748052 3.128059,0 6.256119,0.02506 9.384182,-0.02506 1.21086,-0.576363 2.24514,-1.503556 3.32987,-2.330511 0.27748,-2.931933 0.25226,-5.939045 -0.52976,-8.795801 -0.17658,-0.65154 -0.32794,-1.378259 -0.88292,-1.854385 z"
     id="path64"
     inkscape:connector-curvature="0"
     style="fill:#ffffff;stroke:#ffffff;stroke-width:0.02357122" />
  <path
     d="m 83.089253,65.898218 c -0.756789,-0.476126 -1.715388,-0.300711 -2.547856,-0.451067 1.059505,1.979681 1.286542,4.38537 0.630658,6.540466 -1.034278,3.458179 -3.582133,6.164579 -6.205667,8.545208 4.994806,0.02506 10.014837,0 15.009641,0 0.630659,-1.478496 1.160412,-3.03217 1.463127,-4.610903 0.151357,-0.726719 -0.227037,-1.40332 -0.454073,-2.07992 -1.488353,-3.533355 -4.591186,-6.089399 -7.89583,-7.943784 z"
     id="path66"
     inkscape:connector-curvature="0"
     style="fill:#ffffff;stroke:#ffffff;stroke-width:0.02357122" />
  <path
     d="m 111.84722,73.015047 c -1.96765,2.931934 -4.56596,5.337623 -7.31562,7.517778 2.44695,0.02506 4.8939,0 7.31562,0 0,-2.505926 0.0253,-5.011851 0,-7.517778 z"
     id="path68"
     inkscape:connector-curvature="0"
     style="fill:#ffffff;stroke:#ffffff;stroke-width:0.02357122" />
  <text
     xml:space="preserve"
     style="font-size:39.65100861px;font-style:normal;font-weight:normal;line-height:125%;letter-spacing:0px;word-spacing:0px;fill:#000000;fill-opacity:1;stroke:none;font-family:Sans"
     x="-109.03208"
     y="123.50323"
     id="text3051"
     sodipodi:linespacing="125%"
     transform="scale(-1.0916679,0.91602951)"><tspan
       sodipodi:role="line"
       id="tspan3053"
       x="-109.03208"
       y="123.50323"
       style="font-size:39.65100861px;font-style:normal;font-variant:normal;font-weight:bold;font-stretch:normal;text-align:start;line-height:125%;writing-mode:lr-tb;text-anchor:start;font-family:DejaVu Sans Condensed;-inkscape-font-specification:'DejaVu Sans Condensed, Bold'">HAC</tspan></text>
  <text
     xml:space="preserve"
     style="font-size:40.71496201px;font-style:normal;font-weight:normal;line-height:125%;letter-spacing:0px;word-spacing:0px;fill:#000000;fill-opacity:1;stroke:none;font-family:Sans"
     x="-72.88945"
     y="220.56392"
     id="text3055"
     sodipodi:linespacing="125%"
     transform="scale(-1.6598861,0.60245099)"><tspan
       sodipodi:role="line"
       id="tspan3057"
       x="-72.88945"
       y="220.56392"
       style="font-size:40.71496201px;font-style:normal;font-variant:normal;font-weight:bold;font-stretch:normal;text-align:start;line-height:125%;writing-mode:lr-tb;text-anchor:start;font-family:DejaVu Sans Condensed;-inkscape-font-specification:'DejaVu Sans Condensed, Bold'">DC</tspan></text>
  <text
     xml:space="preserve"
     style="font-size:32px;font-style:normal;font-weight:normal;line-height:125%;letter-spacing:0px;word-spacing:0px;fill:#000000;fill-opacity:1;stroke:none;font-family:Sans"
     x="-13.676015"
     y="14.828345"
     id="text3173"
     sodipodi:linespacing="125%"
     transform="scale(-1,1)"><tspan
       sodipodi:role="line"
       x="-13.676015"
       y="14.828345"
       id="tspan3181" /></text>
  <flowRoot
     xml:space="preserve"
     id="flowRoot3185"
     style="font-size:40px;font-style:normal;font-weight:normal;line-height:125%;letter-spacing:0px;word-spacing:0px;fill:#000000;fill-opacity:1;stroke:none;font-family:Sans"
     transform="matrix(-0.80000003,0,0,0.80000003,113.67602,0)"><flowRegion
       id="flowRegion3187"><rect
         id="rect3189"
         width="26"
         height="76"
         x="114"
         y="5.5354309" /></flowRegion><flowPara
       id="flowPara3191"></flowPara></flowRoot>  <text
     xml:space="preserve"
     style="font-size:32px;font-style:normal;font-weight:normal;line-height:125%;letter-spacing:0px;word-spacing:0px;fill:#000000;fill-opacity:1;stroke:none;font-family:Sans"
     x="16.14048"
     y="8.8497534"
     id="text3193"
     sodipodi:linespacing="125%"
     transform="matrix(0.00142224,0.99999899,0.99999899,-0.00142224,0,0)"
     inkscape:transform-center-x="104.67903"><tspan
       sodipodi:role="line"
       id="tspan3195"
       x="16.14048"
       y="8.8497534"
       style="font-size:8px;font-style:normal;font-variant:normal;font-weight:bold;font-stretch:normal;text-align:center;line-height:125%;writing-mode:lr-tb;text-anchor:middle;font-family:Sans;-inkscape-font-specification:Sans Bold">DATE</tspan><tspan
       sodipodi:role="line"
       x="16.14048"
       y="18.849754"
       id="tspan3197"
       style="font-size:8px;font-style:normal;font-variant:normal;font-weight:bold;font-stretch:normal;text-align:center;line-height:125%;writing-mode:lr-tb;text-anchor:middle;font-family:Sans;-inkscape-font-specification:Sans Bold">PROC-</tspan><tspan
       sodipodi:role="line"
       x="16.14048"
       y="28.849754"
       style="font-size:8px;font-style:normal;font-variant:normal;font-weight:bold;font-stretch:normal;text-align:center;line-height:125%;writing-mode:lr-tb;text-anchor:middle;font-family:Sans;-inkscape-font-specification:Sans Bold"
       id="tspan3199">ESSED:</tspan></text>
</svg>
