<?xml version="1.0" encoding="utf-8"?>
<!-- Generator: Adobe Illustrator 15.1.0, SVG Export Plug-In . SVG Version: 6.00 Build 0)  -->
<!DOCTYPE svg PUBLIC "-//W3C//DTD SVG 1.1//EN" "http://www.w3.org/Graphics/SVG/1.1/DTD/svg11.dtd">
<svg version="1.1" id="Layer_1" xmlns="http://www.w3.org/2000/svg" xmlns:xlink="http://www.w3.org/1999/xlink" xmlns:inkscape="http://www.inkscape.org/namespaces/inkscape" xmlns:sodipodi="http://sodipodi.sourceforge.net/DTD/sodipodi-0.dtd" x="0px" y="0px"
	 width="800px" height="600px" viewBox="0 0 800 600" enable-background="new 0 0 800 600" xml:space="preserve">
<g id="g2428">
	<g id="g2550" transform="matrix(1.414214,1.414214,-1.414214,1.414214,166.7453,-193.52775)">
		<path id="path2542" fill="none" stroke="#000000" d="M294.204,72.889l-7.086,0"/>
		<path id="path2548" fill="none" stroke="#000000" d="M290.661,71.589l3.543,1.3l-3.543,1.215"/>
	</g>
	<g id="g2554" transform="matrix(1.414214,1.414214,-1.414214,1.414214,175.9325,-193.52775)">
		<path id="path2556" fill="none" stroke="#000000" d="M294.204,79.386l-7.086,0"/>
		<path id="path2558" fill="none" stroke="#000000" d="M290.661,78.085l3.543,1.3l-3.543,1.215"/>
	</g>
	<path id="path6801" sodipodi:nodetypes="cc" fill="none" stroke="#000000" stroke-width="3.544" stroke-linecap="square" d="
		M456.701,285.204v21.259"/>
	<path id="path6803" sodipodi:nodetypes="cc" fill="none" stroke="#000000" stroke-width="3.5433" stroke-linecap="square" d="
		M456.701,334.809v14.174"/>
	<path id="path6805" sodipodi:nodetypes="cccc" fill="none" stroke="#000000" stroke-width="3.5433" stroke-linecap="square" d="
		M456.701,334.809l-14.174-28.346h28.347L456.701,334.809z"/>
	<path id="path6807" sodipodi:nodetypes="cc" fill="none" stroke="#000000" stroke-width="3.5433" stroke-linecap="square" d="
		M470.874,334.809h-28.347"/>
</g>
<g id="g2402">
	<path id="path1315" sodipodi:nodetypes="cc" fill="none" stroke="#000000" stroke-width="3.5433" stroke-linecap="square" d="
		M230.961,267.967h-56.693"/>
	<path id="path1317" sodipodi:nodetypes="cc" fill="none" stroke="#000000" stroke-width="7.0866" stroke-linecap="square" d="
		M216.787,276.826h-28.346"/>
	<path id="path2220" sodipodi:nodetypes="cc" fill="none" stroke="#000000" stroke-width="3.5433" d="M202.614,255.566v14.174"/>
	<path id="path2222" sodipodi:nodetypes="cc" fill="none" stroke="#000000" stroke-width="3.5433" stroke-linecap="square" d="
		M202.614,276.826v14.172"/>
	<g id="g3965" transform="matrix(2,0,0,2,-258.79112,-56.482983)">
		<path id="path3967" sodipodi:nodetypes="cc" fill="none" stroke="#000000" d="M244.876,156.025h-7.087"/>
		<path id="path3969" sodipodi:nodetypes="cc" fill="none" stroke="#000000" d="M241.333,159.568v-7.087"/>
	</g>
</g>
<g id="g4062" transform="matrix(2,0,0,2,-56.118102,-52.352453)">
	<path id="path3938" sodipodi:nodetypes="cc" fill="none" stroke="#000000" stroke-width="1.7716" d="M256.41,147.713v5.315"/>
	<path id="path3940" sodipodi:nodetypes="cc" fill="none" stroke="#000000" stroke-width="1.7716" d="M256.41,121.139v5.315"/>
	
		<path id="path3970" sodipodi:nodetypes="cccccccc" fill="none" stroke="#000000" stroke-width="1.7716" stroke-linecap="round" stroke-linejoin="bevel" d="
		M256.41,147.713l-3.543-1.771l7.086-3.543l-7.086-3.543l7.086-3.543l-7.086-3.543l7.086-3.544l-3.543-1.771"/>
</g>
<line fill="none" stroke="#000000" stroke-width="2" x1="203" y1="256" x2="203" y2="74"/>
<line fill="none" stroke="#000000" stroke-width="2" x1="457" y1="254" x2="457" y2="285"/>
<line fill="none" stroke="#000000" stroke-width="2" x1="203" y1="75" x2="457" y2="75"/>
<line fill="none" stroke="#000000" stroke-width="2" x1="457" y1="75" x2="457" y2="100"/>
<line fill="none" stroke="#000000" stroke-width="2" x1="457" y1="171" x2="457" y2="190"/>
<line fill="none" stroke="#000000" stroke-width="2" x1="457" y1="349" x2="457" y2="407"/>
<line fill="none" stroke="#000000" stroke-width="2" x1="457" y1="378" x2="203" y2="378"/>
<line fill="none" stroke="#000000" stroke-width="2" x1="202.701" y1="377.826" x2="202.614" y2="290.998"/>
<path stroke="#000000" stroke-width="2" d="M461.701,377.826c0-2.758-2.238-5-5-5c-2.761,0-5,2.242-5,5c0,2.76,2.239,5,5,5
	C459.463,382.826,461.701,380.586,461.701,377.826z"/>
<path stroke="#000000" stroke-width="2" d="M208.701,135.826c0-2.758-2.238-5-5-5c-2.761,0-5,2.242-5,5c0,2.76,2.239,5,5,5
	C206.463,140.826,208.701,138.586,208.701,135.826z"/>
<g id="g2396">
	<path id="path3980" sodipodi:nodetypes="cc" fill="none" stroke="#000000" stroke-width="3.5433" stroke-linecap="square" d="
		M477.961,421h-42.52"/>
	<path id="path3984" sodipodi:nodetypes="cc" fill="none" stroke="#000000" stroke-width="3.5433" d="M456.701,406.826V421"/>
	<path id="path3994" sodipodi:nodetypes="cc" fill="none" stroke="#000000" stroke-width="3.5433" stroke-linecap="square" d="
		M470.873,428.088h-28.346"/>
	<path id="path3996" sodipodi:nodetypes="cc" fill="none" stroke="#000000" stroke-width="3.5433" stroke-linecap="square" d="
		M463.787,435.174h-14.174"/>
</g>
<rect x="117" y="259" fill="none" width="46" height="24"/>
<text transform="matrix(1 0 0 1 120.6074 281.1104)" font-family="'TrebuchetMS'" font-size="30">6 V</text>
<rect x="473.004" y="207.793" fill="none" width="91" height="24"/>
<text transform="matrix(1 0 0 1 473.0039 229.9029)" font-family="'TrebuchetMS'" font-size="30">220 Ω</text>
<line fill="none" stroke="#FF0000" stroke-width="10" x1="568" y1="205" x2="568" y2="230"/>
<line fill="none" stroke="#FF0000" stroke-width="10" x1="580" y1="205" x2="580" y2="230"/>
<line fill="none" stroke="#754C24" stroke-width="10" x1="592" y1="205" x2="592" y2="230"/>
<line fill="none" stroke="#FBC926" stroke-width="10" x1="603" y1="205" x2="603" y2="230"/>
<g id="g5420" transform="matrix(2,0,0,2,7.574804,-52.525674)">
	
		<path id="path5124" sodipodi:rx="14.173228" sodipodi:cx="421.65353" sodipodi:cy="100.86611" sodipodi:ry="10.629921" sodipodi:type="arc" fill="none" stroke="#000000" stroke-width="1.5343" stroke-linecap="square" d="
		M203.531,93.979c0-7.828,6.346-14.173,14.173-14.173c7.828,0,14.174,6.346,14.174,14.173c0,7.827-6.346,14.173-14.174,14.173
		C209.877,108.153,203.531,101.807,203.531,93.979z"/>
	<path id="path5126" sodipodi:nodetypes="cc" fill="none" stroke="#000000" stroke-width="1.7716" d="M214.161,93.979h-14.173"/>
	<path id="path5128" sodipodi:nodetypes="cc" fill="none" stroke="#000000" stroke-width="2.4803" stroke-linecap="square" d="
		M214.161,86.893v14.173"/>
	<path id="path5130" sodipodi:nodetypes="ccc" fill="none" stroke="#000000" stroke-width="1.7716" d="M224.791,111.696l-0.043-7.13
		l-10.63-7.086"/>
	<path id="path5132" sodipodi:nodetypes="ccc" fill="none" stroke="#000000" stroke-width="1.7716" d="M214.118,90.393l10.673-7.043
		v-7.087"/>
	<path id="path5134" sodipodi:nodetypes="cccc" stroke="#000000" stroke-width="1.7716" stroke-linecap="square" d="M219.626,102.86
		l1.49-2.225l1.817,2.754L219.626,102.86z"/>
</g>
<rect x="480.004" y="124.793" fill="none" width="100" height="24"/>
<text transform="matrix(1 0 0 1 480.0039 146.9029)" font-family="'TrebuchetMS'" font-size="30">2N3904</text>
<g id="g4062_1_" transform="matrix(2,0,0,2,-56.118102,-52.352453)">
	<path id="path3938_1_" sodipodi:nodetypes="cc" fill="none" stroke="#000000" stroke-width="1.7716" d="M212.04,93.583h5.315"/>
	<path id="path3940_1_" sodipodi:nodetypes="cc" fill="none" stroke="#000000" stroke-width="1.7716" d="M185.465,93.583h5.315"/>
	
		<path id="path3970_1_" sodipodi:nodetypes="cccccccc" fill="none" stroke="#000000" stroke-width="1.7716" stroke-linecap="round" stroke-linejoin="bevel" d="
		M212.04,93.583l-1.771,3.543l-3.543-7.086l-3.543,7.086l-3.543-7.086l-3.543,7.086l-3.544-7.086l-1.771,3.543"/>
</g>
<line fill="none" stroke="#000000" stroke-width="2" x1="378" y1="135" x2="408" y2="135"/>
<line fill="none" stroke="#000000" stroke-width="2" x1="203" y1="135" x2="315" y2="135"/>
<rect x="317.004" y="152.793" fill="none" width="62" height="24"/>
<text transform="matrix(1 0 0 1 317.0039 174.9029)" font-family="'TrebuchetMS'" font-size="30">1 kΩ</text>
<line fill="none" stroke="#754C24" stroke-width="10" x1="329" y1="180" x2="329" y2="205"/>
<line fill="none" stroke="#000000" stroke-width="10" x1="341" y1="180" x2="341" y2="205"/>
<line fill="none" stroke="#FF0000" stroke-width="10" x1="353" y1="180" x2="353" y2="205"/>
<line fill="none" stroke="#FBC926" stroke-width="10" x1="364" y1="180" x2="364" y2="205"/>
</svg>
