<?xml version="1.0" encoding="utf-8"?>
<!-- Generator: Adobe Illustrator 15.1.0, SVG Export Plug-In . SVG Version: 6.00 Build 0)  -->
<!DOCTYPE svg PUBLIC "-//W3C//DTD SVG 1.1//EN" "http://www.w3.org/Graphics/SVG/1.1/DTD/svg11.dtd">
<svg version="1.1" id="Layer_1" xmlns="http://www.w3.org/2000/svg" xmlns:xlink="http://www.w3.org/1999/xlink" xmlns:inkscape="http://www.inkscape.org/namespaces/inkscape" xmlns:sodipodi="http://sodipodi.sourceforge.net/DTD/sodipodi-0.dtd" x="0px" y="0px"
	 width="800px" height="600px" viewBox="0 0 800 600" enable-background="new 0 0 800 600" xml:space="preserve">
<g id="g2402">
	<path id="path1315" sodipodi:nodetypes="cc" fill="none" stroke="#000000" stroke-width="3.5433" stroke-linecap="square" d="
		M105.961,405.967H49.268"/>
	<path id="path1317" sodipodi:nodetypes="cc" fill="none" stroke="#000000" stroke-width="7.0866" stroke-linecap="square" d="
		M91.787,414.826H63.441"/>
	<path id="path2220" sodipodi:nodetypes="cc" fill="none" stroke="#000000" stroke-width="3.5433" d="M77.614,393.566v14.174"/>
	<path id="path2222" sodipodi:nodetypes="cc" fill="none" stroke="#000000" stroke-width="3.5433" stroke-linecap="square" d="
		M77.614,414.826v14.172"/>
	<g id="g3965" transform="matrix(2,0,0,2,-258.79112,-56.482983)">
		<path id="path3967" sodipodi:nodetypes="cc" fill="none" stroke="#000000" d="M182.376,225.025h-7.087"/>
		<path id="path3969" sodipodi:nodetypes="cc" fill="none" stroke="#000000" d="M178.833,228.568v-7.087"/>
	</g>
</g>
<line fill="none" stroke="#000000" stroke-width="2" x1="78" y1="394" x2="78" y2="273"/>
<line fill="none" stroke="#000000" stroke-width="2" x1="18" y1="6" x2="568" y2="6"/>
<line fill="none" stroke="#000000" stroke-width="2" x1="764" y1="551" x2="78" y2="551"/>
<line fill="none" stroke="#000000" stroke-width="2" x1="77.701" y1="550.826" x2="77.614" y2="428.998"/>
<path stroke="#000000" stroke-width="2" d="M769.701,550.826c0-2.758-2.238-5-5-5c-2.761,0-5,2.242-5,5c0,2.76,2.239,5,5,5
	C767.463,555.826,769.701,553.586,769.701,550.826z"/>
<path stroke="#000000" stroke-width="2" d="M250.701,550.826c0-2.758-2.238-5-5-5c-2.761,0-5,2.242-5,5c0,2.76,2.239,5,5,5
	C248.463,555.826,250.701,553.586,250.701,550.826z"/>
<path stroke="#000000" stroke-width="2" d="M250.701,508.826c0-2.758-2.238-5-5-5c-2.761,0-5,2.242-5,5c0,2.76,2.239,5,5,5
	C248.463,513.826,250.701,511.586,250.701,508.826z"/>
<path stroke="#000000" stroke-width="2" d="M250.701,458.826c0-2.758-2.238-5-5-5c-2.761,0-5,2.242-5,5c0,2.76,2.239,5,5,5
	C248.463,463.826,250.701,461.586,250.701,458.826z"/>
<path stroke="#000000" stroke-width="2" d="M250.701,408.826c0-2.758-2.238-5-5-5c-2.761,0-5,2.242-5,5c0,2.76,2.239,5,5,5
	C248.463,413.826,250.701,411.586,250.701,408.826z"/>
<path stroke="#000000" stroke-width="2" d="M250.701,358.826c0-2.758-2.238-5-5-5c-2.761,0-5,2.242-5,5c0,2.76,2.239,5,5,5
	C248.463,363.826,250.701,361.586,250.701,358.826z"/>
<path stroke="#000000" stroke-width="2" d="M250.701,308.826c0-2.758-2.238-5-5-5c-2.761,0-5,2.242-5,5c0,2.76,2.239,5,5,5
	C248.463,313.826,250.701,311.586,250.701,308.826z"/>
<path stroke="#000000" stroke-width="2" d="M250.701,258.826c0-2.758-2.238-5-5-5c-2.761,0-5,2.242-5,5c0,2.76,2.239,5,5,5
	C248.463,263.826,250.701,261.586,250.701,258.826z"/>
<path stroke="#000000" stroke-width="2" d="M768.701,292.826c0-2.758-2.238-5-5-5c-2.761,0-5,2.242-5,5c0,2.76,2.239,5,5,5
	C766.463,297.826,768.701,295.586,768.701,292.826z"/>
<path stroke="#000000" stroke-width="2" d="M768.701,342.826c0-2.758-2.238-5-5-5c-2.761,0-5,2.242-5,5c0,2.76,2.239,5,5,5
	C766.463,347.826,768.701,345.586,768.701,342.826z"/>
<path stroke="#000000" stroke-width="2" d="M488.701,550.826c0-2.758-2.238-5-5-5c-2.761,0-5,2.242-5,5c0,2.76,2.239,5,5,5
	C486.463,555.826,488.701,553.586,488.701,550.826z"/>
<g id="g2396">
	<path id="path3980" sodipodi:nodetypes="cc" fill="none" stroke="#000000" stroke-width="3.5433" stroke-linecap="square" d="
		M785.961,581h-42.52"/>
	<path id="path3984" sodipodi:nodetypes="cc" fill="none" stroke="#000000" stroke-width="3.5433" d="M764.701,566.826V581"/>
	<path id="path3994" sodipodi:nodetypes="cc" fill="none" stroke="#000000" stroke-width="3.5433" stroke-linecap="square" d="
		M778.873,588.088h-28.346"/>
	<path id="path3996" sodipodi:nodetypes="cc" fill="none" stroke="#000000" stroke-width="3.5433" stroke-linecap="square" d="
		M771.787,595.174h-14.174"/>
</g>
<rect y="397" fill="none" width="46.31" height="24"/>
<text transform="matrix(1 0 0 1 3.9175 419.1094)" font-family="'TrebuchetMS'" font-size="30">6 V</text>
<rect x="211.008" y="296" fill="none" width="21.996" height="24"/>
<text transform="matrix(1 0 0 1 217.2715 318.1104)" font-family="'TrebuchetMS'" font-size="30">0</text>
<g>
	
		<rect id="rect3713" x="497.345" y="164.748" fill="none" stroke="#000000" stroke-width="3.5433" stroke-linecap="square" width="56.478" height="113.986"/>
	<text transform="matrix(1 0 0 1 503.4463 226.5381)" font-family="'TrebuchetMS'" font-size="20">4017</text>
	<path id="path3725" sodipodi:nodetypes="cc" fill="none" stroke="#000000" stroke-width="3.5433" stroke-linecap="square" d="
		M554.024,171.463h7.086"/>
	<path id="path3727" sodipodi:nodetypes="cc" fill="none" stroke="#000000" stroke-width="3.5433" stroke-linecap="square" d="
		M554.024,185.636h7.086"/>
	<path id="path3729" sodipodi:nodetypes="cc" fill="none" stroke="#000000" stroke-width="3.5433" stroke-linecap="square" d="
		M554.024,199.81h7.086"/>
	<path id="path3731" sodipodi:nodetypes="cc" fill="none" stroke="#000000" stroke-width="3.5433" stroke-linecap="square" d="
		M554.024,213.981h7.086"/>
	<path id="path3733" sodipodi:nodetypes="cc" fill="none" stroke="#000000" stroke-width="3.5433" stroke-linecap="square" d="
		M490.245,171.463h7.086"/>
	<path id="path3735" sodipodi:nodetypes="cc" fill="none" stroke="#000000" stroke-width="3.5433" stroke-linecap="square" d="
		M490.245,185.636h7.086"/>
	<path id="path3737" sodipodi:nodetypes="cc" fill="none" stroke="#000000" stroke-width="3.5433" stroke-linecap="square" d="
		M490.245,199.81h7.086"/>
	<path id="path3739" sodipodi:nodetypes="cc" fill="none" stroke="#000000" stroke-width="3.5433" stroke-linecap="square" d="
		M490.245,213.981h7.086"/>
	
		<path id="path5341" sodipodi:ry="1.7716535" sodipodi:cy="92.007843" sodipodi:type="arc" sodipodi:rx="1.7716535" sodipodi:cx="265.89667" stroke="#000000" stroke-width="2.6469" stroke-linecap="square" d="
		M508.225,173.729c0,1.311-1.062,2.372-2.373,2.372c-1.31,0-2.371-1.062-2.371-2.372c0-1.31,1.062-2.372,2.371-2.372
		S508.225,172.419,508.225,173.729z"/>
	<path id="path3725_1_" sodipodi:nodetypes="cc" fill="none" stroke="#000000" stroke-width="3.5433" stroke-linecap="square" d="
		M554.024,228.463h7.086"/>
	<path id="path3727_1_" sodipodi:nodetypes="cc" fill="none" stroke="#000000" stroke-width="3.5433" stroke-linecap="square" d="
		M554.024,242.636h7.086"/>
	<path id="path3729_1_" sodipodi:nodetypes="cc" fill="none" stroke="#000000" stroke-width="3.5433" stroke-linecap="square" d="
		M554.024,256.81h7.086"/>
	<path id="path3731_1_" sodipodi:nodetypes="cc" fill="none" stroke="#000000" stroke-width="3.5433" stroke-linecap="square" d="
		M554.024,270.981h7.086"/>
	<path id="path3733_1_" sodipodi:nodetypes="cc" fill="none" stroke="#000000" stroke-width="3.5433" stroke-linecap="square" d="
		M490.245,228.463h7.086"/>
	<path id="path3735_1_" sodipodi:nodetypes="cc" fill="none" stroke="#000000" stroke-width="3.5433" stroke-linecap="square" d="
		M490.245,242.636h7.086"/>
	<path id="path3737_1_" sodipodi:nodetypes="cc" fill="none" stroke="#000000" stroke-width="3.5433" stroke-linecap="square" d="
		M490.245,256.81h7.086"/>
	<path id="path3739_1_" sodipodi:nodetypes="cc" fill="none" stroke="#000000" stroke-width="3.5433" stroke-linecap="square" d="
		M490.245,270.981h7.086"/>
</g>
<line fill="none" stroke="#000000" stroke-width="2" x1="577" y1="108" x2="577" y2="200"/>
<line fill="none" stroke="#000000" stroke-width="2" x1="577" y1="200" x2="561" y2="200"/>
<line fill="none" stroke="#000000" stroke-width="2" x1="568" y1="6" x2="568" y2="171"/>
<line fill="none" stroke="#000000" stroke-width="2" x1="568" y1="171" x2="561" y2="171"/>
<line fill="none" stroke="#000000" stroke-width="2" x1="484" y1="551" x2="484" y2="271"/>
<line fill="none" stroke="#000000" stroke-width="2" x1="484" y1="271" x2="490" y2="271"/>
<g id="g2428">
	<g id="g2550" transform="matrix(1.414214,1.414214,-1.414214,1.414214,166.7453,-193.52775)">
		<path id="path2542" fill="none" stroke="#000000" d="M194.01,106.549v-7.086"/>
		<path id="path2548" fill="none" stroke="#000000" d="M195.31,103.006l-1.3,3.543l-1.215-3.543"/>
	</g>
	<g id="g2554" transform="matrix(1.414214,1.414214,-1.414214,1.414214,175.9325,-193.52775)">
		<path id="path2556" fill="none" stroke="#000000" d="M187.514,113.046v-7.086"/>
		<path id="path2558" fill="none" stroke="#000000" d="M188.814,109.503l-1.3,3.543l-1.215-3.543"/>
	</g>
	<path id="path6801" sodipodi:nodetypes="cc" fill="none" stroke="#000000" stroke-width="3.544" stroke-linecap="square" d="
		M330.852,208.496h-21.26"/>
	<path id="path6803" sodipodi:nodetypes="cc" fill="none" stroke="#000000" stroke-width="3.5433" stroke-linecap="square" d="
		M281.246,208.496h-14.174"/>
	<path id="path6805" sodipodi:nodetypes="cccc" fill="none" stroke="#000000" stroke-width="3.5433" stroke-linecap="square" d="
		M281.246,208.496l28.346-14.174v28.347L281.246,208.496z"/>
	<path id="path6807" sodipodi:nodetypes="cc" fill="none" stroke="#000000" stroke-width="3.5433" stroke-linecap="square" d="
		M281.246,222.669v-28.347"/>
</g>
<g id="g4062_1_" transform="matrix(2,0,0,2,-56.118102,-52.352453)">
	<path id="path3938_1_" sodipodi:nodetypes="cc" fill="none" stroke="#B3B3B3" stroke-width="1.7716" d="M209.549,130.424h-5.314"/>
	<path id="path3940_1_" sodipodi:nodetypes="cc" fill="none" stroke="#B3B3B3" stroke-width="1.7716" d="M236.124,130.424h-5.315"/>
	
		<path id="path3970_1_" sodipodi:nodetypes="cccccccc" fill="none" stroke="#B3B3B3" stroke-width="1.7716" stroke-linecap="round" stroke-linejoin="bevel" d="
		M209.549,130.424l1.771-3.543l3.543,7.086l3.543-7.086l3.543,7.086l3.543-7.086l3.544,7.086l1.771-3.543"/>
</g>
<line fill="none" stroke="#000000" stroke-width="2" x1="352" y1="209" x2="331" y2="209"/>
<g id="g2428_1_">
	<g id="g2550_1_" transform="matrix(1.414214,1.414214,-1.414214,1.414214,166.7453,-193.52775)">
		<path id="path2542_1_" fill="none" stroke="#000000" d="M211.688,124.227v-7.086"/>
		<path id="path2548_1_" fill="none" stroke="#000000" d="M212.988,120.684l-1.3,3.543l-1.215-3.543"/>
	</g>
	<g id="g2554_1_" transform="matrix(1.414214,1.414214,-1.414214,1.414214,175.9325,-193.52775)">
		<path id="path2556_1_" fill="none" stroke="#000000" d="M205.191,130.723v-7.086"/>
		<path id="path2558_1_" fill="none" stroke="#000000" d="M206.492,127.18l-1.3,3.543l-1.215-3.543"/>
	</g>
	<path id="path6801_1_" sodipodi:nodetypes="cc" fill="none" stroke="#000000" stroke-width="3.544" stroke-linecap="square" d="
		M330.852,258.496h-21.26"/>
	<path id="path6803_1_" sodipodi:nodetypes="cc" fill="none" stroke="#000000" stroke-width="3.5433" stroke-linecap="square" d="
		M281.246,258.496h-14.174"/>
	<path id="path6805_1_" sodipodi:nodetypes="cccc" fill="none" stroke="#000000" stroke-width="3.5433" stroke-linecap="square" d="
		M281.246,258.496l28.346-14.174v28.347L281.246,258.496z"/>
	<path id="path6807_1_" sodipodi:nodetypes="cc" fill="none" stroke="#000000" stroke-width="3.5433" stroke-linecap="square" d="
		M281.246,272.669v-28.347"/>
</g>
<g id="g4062_2_" transform="matrix(2,0,0,2,-56.118102,-52.352453)">
	<path id="path3938_2_" sodipodi:nodetypes="cc" fill="none" stroke="#B3B3B3" stroke-width="1.7716" d="M209.549,155.424h-5.314"/>
	<path id="path3940_2_" sodipodi:nodetypes="cc" fill="none" stroke="#B3B3B3" stroke-width="1.7716" d="M236.124,155.424h-5.315"/>
	
		<path id="path3970_2_" sodipodi:nodetypes="cccccccc" fill="none" stroke="#B3B3B3" stroke-width="1.7716" stroke-linecap="round" stroke-linejoin="bevel" d="
		M209.549,155.424l1.771-3.543l3.543,7.086l3.543-7.086l3.543,7.086l3.543-7.086l3.544,7.086l1.771-3.543"/>
</g>
<line fill="none" stroke="#000000" stroke-width="2" x1="352" y1="259" x2="331" y2="259"/>
<g id="g2428_2_">
	<g id="g2550_2_" transform="matrix(1.414214,1.414214,-1.414214,1.414214,166.7453,-193.52775)">
		<path id="path2542_2_" fill="none" stroke="#000000" d="M229.365,141.905v-7.086"/>
		<path id="path2548_2_" fill="none" stroke="#000000" d="M230.666,138.361l-1.3,3.543l-1.215-3.543"/>
	</g>
	<g id="g2554_2_" transform="matrix(1.414214,1.414214,-1.414214,1.414214,175.9325,-193.52775)">
		<path id="path2556_2_" fill="none" stroke="#000000" d="M222.869,148.401v-7.086"/>
		<path id="path2558_2_" fill="none" stroke="#000000" d="M224.169,144.858l-1.3,3.543l-1.215-3.543"/>
	</g>
	<path id="path6801_2_" sodipodi:nodetypes="cc" fill="none" stroke="#000000" stroke-width="3.544" stroke-linecap="square" d="
		M330.851,308.496h-21.26"/>
	<path id="path6803_2_" sodipodi:nodetypes="cc" fill="none" stroke="#000000" stroke-width="3.5433" stroke-linecap="square" d="
		M281.246,308.496h-14.174"/>
	<path id="path6805_2_" sodipodi:nodetypes="cccc" fill="none" stroke="#000000" stroke-width="3.5433" stroke-linecap="square" d="
		M281.246,308.496l28.346-14.174v28.347L281.246,308.496z"/>
	<path id="path6807_2_" sodipodi:nodetypes="cc" fill="none" stroke="#000000" stroke-width="3.5433" stroke-linecap="square" d="
		M281.246,322.669v-28.347"/>
</g>
<g id="g4062_3_" transform="matrix(2,0,0,2,-56.118102,-52.352453)">
	<path id="path3938_3_" sodipodi:nodetypes="cc" fill="none" stroke="#B3B3B3" stroke-width="1.7716" d="M209.549,180.424h-5.314"/>
	<path id="path3940_3_" sodipodi:nodetypes="cc" fill="none" stroke="#B3B3B3" stroke-width="1.7716" d="M236.124,180.424h-5.315"/>
	
		<path id="path3970_3_" sodipodi:nodetypes="cccccccc" fill="none" stroke="#B3B3B3" stroke-width="1.7716" stroke-linecap="round" stroke-linejoin="bevel" d="
		M209.549,180.424l1.771-3.543l3.543,7.086l3.543-7.086l3.543,7.086l3.543-7.086l3.544,7.086l1.771-3.543"/>
</g>
<line fill="none" stroke="#000000" stroke-width="2" x1="352" y1="309" x2="331" y2="309"/>
<g id="g2428_3_">
	<g id="g2550_3_" transform="matrix(1.414214,1.414214,-1.414214,1.414214,166.7453,-193.52775)">
		<path id="path2542_3_" fill="none" stroke="#000000" d="M247.043,159.582v-7.086"/>
		<path id="path2548_3_" fill="none" stroke="#000000" d="M248.343,156.039l-1.3,3.543l-1.215-3.543"/>
	</g>
	<g id="g2554_3_" transform="matrix(1.414214,1.414214,-1.414214,1.414214,175.9325,-193.52775)">
		<path id="path2556_3_" fill="none" stroke="#000000" d="M240.547,166.079l0-7.086"/>
		<path id="path2558_3_" fill="none" stroke="#000000" d="M241.847,162.536l-1.3,3.543l-1.215-3.543"/>
	</g>
	<path id="path6801_3_" sodipodi:nodetypes="cc" fill="none" stroke="#000000" stroke-width="3.544" stroke-linecap="square" d="
		M330.851,358.496h-21.26"/>
	<path id="path6803_3_" sodipodi:nodetypes="cc" fill="none" stroke="#000000" stroke-width="3.5433" stroke-linecap="square" d="
		M281.246,358.496h-14.174"/>
	<path id="path6805_3_" sodipodi:nodetypes="cccc" fill="none" stroke="#000000" stroke-width="3.5433" stroke-linecap="square" d="
		M281.246,358.496l28.346-14.174v28.347L281.246,358.496z"/>
	<path id="path6807_3_" sodipodi:nodetypes="cc" fill="none" stroke="#000000" stroke-width="3.5433" stroke-linecap="square" d="
		M281.246,372.669v-28.347"/>
</g>
<g id="g4062_4_" transform="matrix(2,0,0,2,-56.118102,-52.352453)">
	<path id="path3938_4_" sodipodi:nodetypes="cc" fill="none" stroke="#B3B3B3" stroke-width="1.7716" d="M209.549,205.424h-5.314"/>
	<path id="path3940_4_" sodipodi:nodetypes="cc" fill="none" stroke="#B3B3B3" stroke-width="1.7716" d="M236.124,205.424h-5.315"/>
	
		<path id="path3970_4_" sodipodi:nodetypes="cccccccc" fill="none" stroke="#B3B3B3" stroke-width="1.7716" stroke-linecap="round" stroke-linejoin="bevel" d="
		M209.549,205.424l1.771-3.543l3.543,7.086l3.543-7.086l3.543,7.086l3.543-7.086l3.544,7.086l1.771-3.543"/>
</g>
<line fill="none" stroke="#000000" stroke-width="2" x1="352" y1="359" x2="331" y2="359"/>
<g id="g2428_4_">
	<g id="g2550_4_" transform="matrix(1.414214,1.414214,-1.414214,1.414214,166.7453,-193.52775)">
		<path id="path2542_4_" fill="none" stroke="#000000" d="M264.721,177.26v-7.086"/>
		<path id="path2548_4_" fill="none" stroke="#000000" d="M266.021,173.717l-1.3,3.543l-1.215-3.543"/>
	</g>
	<g id="g2554_4_" transform="matrix(1.414214,1.414214,-1.414214,1.414214,175.9325,-193.52775)">
		<path id="path2556_4_" fill="none" stroke="#000000" d="M258.224,183.756l0-7.086"/>
		<path id="path2558_4_" fill="none" stroke="#000000" d="M259.525,180.213l-1.3,3.543l-1.215-3.543"/>
	</g>
	<path id="path6801_4_" sodipodi:nodetypes="cc" fill="none" stroke="#000000" stroke-width="3.544" stroke-linecap="square" d="
		M330.851,408.496h-21.26"/>
	<path id="path6803_4_" sodipodi:nodetypes="cc" fill="none" stroke="#000000" stroke-width="3.5433" stroke-linecap="square" d="
		M281.246,408.496h-14.174"/>
	<path id="path6805_4_" sodipodi:nodetypes="cccc" fill="none" stroke="#000000" stroke-width="3.5433" stroke-linecap="square" d="
		M281.246,408.496l28.346-14.174v28.347L281.246,408.496z"/>
	<path id="path6807_4_" sodipodi:nodetypes="cc" fill="none" stroke="#000000" stroke-width="3.5433" stroke-linecap="square" d="
		M281.246,422.669v-28.347"/>
</g>
<g id="g4062_5_" transform="matrix(2,0,0,2,-56.118102,-52.352453)">
	<path id="path3938_5_" sodipodi:nodetypes="cc" fill="none" stroke="#B3B3B3" stroke-width="1.7716" d="M209.549,230.424h-5.314"/>
	<path id="path3940_5_" sodipodi:nodetypes="cc" fill="none" stroke="#B3B3B3" stroke-width="1.7716" d="M236.124,230.424h-5.315"/>
	
		<path id="path3970_5_" sodipodi:nodetypes="cccccccc" fill="none" stroke="#B3B3B3" stroke-width="1.7716" stroke-linecap="round" stroke-linejoin="bevel" d="
		M209.549,230.424l1.771-3.543l3.543,7.086l3.543-7.086l3.543,7.086l3.543-7.086l3.544,7.086l1.771-3.543"/>
</g>
<line fill="none" stroke="#000000" stroke-width="2" x1="352" y1="409" x2="331" y2="409"/>
<g id="g2428_5_">
	<g id="g2550_5_" transform="matrix(1.414214,1.414214,-1.414214,1.414214,166.7453,-193.52775)">
		<path id="path2542_5_" fill="none" stroke="#000000" d="M282.398,194.938v-7.086"/>
		<path id="path2548_5_" fill="none" stroke="#000000" d="M283.699,191.395l-1.3,3.543l-1.215-3.543"/>
	</g>
	<g id="g2554_5_" transform="matrix(1.414214,1.414214,-1.414214,1.414214,175.9325,-193.52775)">
		<path id="path2556_5_" fill="none" stroke="#000000" d="M275.902,201.434v-7.086"/>
		<path id="path2558_5_" fill="none" stroke="#000000" d="M277.202,197.891l-1.3,3.543l-1.215-3.543"/>
	</g>
	<path id="path6801_5_" sodipodi:nodetypes="cc" fill="none" stroke="#000000" stroke-width="3.544" stroke-linecap="square" d="
		M330.851,458.496h-21.26"/>
	<path id="path6803_5_" sodipodi:nodetypes="cc" fill="none" stroke="#000000" stroke-width="3.5433" stroke-linecap="square" d="
		M281.246,458.496h-14.174"/>
	<path id="path6805_5_" sodipodi:nodetypes="cccc" fill="none" stroke="#000000" stroke-width="3.5433" stroke-linecap="square" d="
		M281.246,458.496l28.346-14.174v28.347L281.246,458.496z"/>
	<path id="path6807_5_" sodipodi:nodetypes="cc" fill="none" stroke="#000000" stroke-width="3.5433" stroke-linecap="square" d="
		M281.246,472.669v-28.347"/>
</g>
<g id="g4062_6_" transform="matrix(2,0,0,2,-56.118102,-52.352453)">
	<path id="path3938_6_" sodipodi:nodetypes="cc" fill="none" stroke="#B3B3B3" stroke-width="1.7716" d="M209.549,255.424h-5.314"/>
	<path id="path3940_6_" sodipodi:nodetypes="cc" fill="none" stroke="#B3B3B3" stroke-width="1.7716" d="M236.124,255.424h-5.315"/>
	
		<path id="path3970_6_" sodipodi:nodetypes="cccccccc" fill="none" stroke="#B3B3B3" stroke-width="1.7716" stroke-linecap="round" stroke-linejoin="bevel" d="
		M209.549,255.424l1.771-3.543l3.543,7.086l3.543-7.086l3.543,7.086l3.543-7.086l3.544,7.086l1.771-3.543"/>
</g>
<line fill="none" stroke="#000000" stroke-width="2" x1="352" y1="459" x2="331" y2="459"/>
<g id="g2428_6_">
	<g id="g2550_6_" transform="matrix(1.414214,1.414214,-1.414214,1.414214,166.7453,-193.52775)">
		<path id="path2542_6_" fill="none" stroke="#000000" d="M300.076,212.615v-7.086"/>
		<path id="path2548_6_" fill="none" stroke="#000000" d="M301.376,209.072l-1.3,3.543l-1.215-3.543"/>
	</g>
	<g id="g2554_6_" transform="matrix(1.414214,1.414214,-1.414214,1.414214,175.9325,-193.52775)">
		<path id="path2556_6_" fill="none" stroke="#000000" d="M293.58,219.112v-7.086"/>
		<path id="path2558_6_" fill="none" stroke="#000000" d="M294.88,215.569l-1.3,3.543l-1.215-3.543"/>
	</g>
	<path id="path6801_6_" sodipodi:nodetypes="cc" fill="none" stroke="#000000" stroke-width="3.544" stroke-linecap="square" d="
		M330.851,508.496h-21.26"/>
	<path id="path6803_6_" sodipodi:nodetypes="cc" fill="none" stroke="#000000" stroke-width="3.5433" stroke-linecap="square" d="
		M281.246,508.496h-14.174"/>
	<path id="path6805_6_" sodipodi:nodetypes="cccc" fill="none" stroke="#000000" stroke-width="3.5433" stroke-linecap="square" d="
		M281.246,508.496l28.346-14.174v28.347L281.246,508.496z"/>
	<path id="path6807_6_" sodipodi:nodetypes="cc" fill="none" stroke="#000000" stroke-width="3.5433" stroke-linecap="square" d="
		M281.246,522.669v-28.347"/>
</g>
<g id="g4062_7_" transform="matrix(2,0,0,2,-56.118102,-52.352453)">
	<path id="path3938_7_" sodipodi:nodetypes="cc" fill="none" stroke="#B3B3B3" stroke-width="1.7716" d="M209.549,280.424h-5.314"/>
	<path id="path3940_7_" sodipodi:nodetypes="cc" fill="none" stroke="#B3B3B3" stroke-width="1.7716" d="M236.124,280.424h-5.315"/>
	
		<path id="path3970_7_" sodipodi:nodetypes="cccccccc" fill="none" stroke="#B3B3B3" stroke-width="1.7716" stroke-linecap="round" stroke-linejoin="bevel" d="
		M209.549,280.424l1.771-3.543l3.543,7.086l3.543-7.086l3.543,7.086l3.543-7.086l3.544,7.086l1.771-3.543"/>
</g>
<line fill="none" stroke="#000000" stroke-width="2" x1="352" y1="509" x2="331" y2="509"/>
<rect x="536.509" y="400.323" fill="none" width="168.237" height="88.013"/>
<text transform="matrix(1 0 0 1 569.7761 422.432)"><tspan x="0" y="0" font-family="'TrebuchetMS'" font-size="30">All </tspan><tspan x="44.429" y="0" fill="#B3B3B3" font-family="'TrebuchetMS'" font-size="30">gray</tspan><tspan x="101.704" y="0" font-family="'TrebuchetMS'" font-size="30">  </tspan><tspan x="-31.89" y="30" font-family="'TrebuchetMS'" font-size="30">resistors are </tspan><tspan x="12.7" y="60" font-family="'TrebuchetMS'" font-size="30">220 Ω</tspan></text>
<line fill="none" stroke="#FF0000" stroke-width="10" x1="603" y1="489" x2="603" y2="514"/>
<line fill="none" stroke="#FF0000" stroke-width="10" x1="615" y1="489" x2="615" y2="514"/>
<line fill="none" stroke="#754C24" stroke-width="10" x1="627" y1="489" x2="627" y2="514"/>
<line fill="none" stroke="#FBC926" stroke-width="10" x1="638" y1="489" x2="638" y2="514"/>
<g id="g2428_7_">
	<g id="g2550_7_" transform="matrix(1.414214,1.414214,-1.414214,1.414214,166.7453,-193.52775)">
		<path id="path2542_7_" fill="none" stroke="#000000" d="M341.769-49.277l0,7.086"/>
		<path id="path2548_7_" fill="none" stroke="#000000" d="M340.468-45.734l1.3-3.543l1.215,3.543"/>
	</g>
	<g id="g2554_7_" transform="matrix(1.414214,1.414214,-1.414214,1.414214,175.9325,-193.52775)">
		<path id="path2556_7_" fill="none" stroke="#000000" d="M341.769-49.278v7.086"/>
		<path id="path2558_7_" fill="none" stroke="#000000" d="M340.469-45.734l1.3-3.543l1.215,3.543"/>
	</g>
	<path id="path6801_7_" sodipodi:nodetypes="cc" fill="none" stroke="#000000" stroke-width="3.544" stroke-linecap="square" d="
		M679.35,243.149h21.26"/>
	<path id="path6803_7_" sodipodi:nodetypes="cc" fill="none" stroke="#000000" stroke-width="3.5433" stroke-linecap="square" d="
		M728.956,243.149h14.174"/>
	<path id="path6805_7_" sodipodi:nodetypes="cccc" fill="none" stroke="#000000" stroke-width="3.5433" stroke-linecap="square" d="
		M728.956,243.149l-28.346,14.174v-28.347L728.956,243.149z"/>
	<path id="path6807_7_" sodipodi:nodetypes="cc" fill="none" stroke="#000000" stroke-width="3.5433" stroke-linecap="square" d="
		M728.956,228.976v28.347"/>
</g>
<g id="g4062_8_" transform="matrix(2,0,0,2,-56.118102,-52.352453)">
	<path id="path3938_8_" sodipodi:nodetypes="cc" fill="none" stroke="#B3B3B3" stroke-width="1.7716" d="M351.67,147.751h5.314"/>
	<path id="path3940_8_" sodipodi:nodetypes="cc" fill="none" stroke="#B3B3B3" stroke-width="1.7716" d="M325.095,147.751h5.315"/>
	
		<path id="path3970_8_" sodipodi:nodetypes="cccccccc" fill="none" stroke="#B3B3B3" stroke-width="1.7716" stroke-linecap="round" stroke-linejoin="bevel" d="
		M351.67,147.751l-1.771,3.543l-3.543-7.086l-3.543,7.086l-3.543-7.086l-3.543,7.086l-3.544-7.086l-1.771,3.543"/>
</g>
<line fill="none" stroke="#000000" stroke-width="2" x1="658" y1="243" x2="679" y2="243"/>
<g id="g2428_8_">
	<g id="g2550_8_" transform="matrix(1.414214,1.414214,-1.414214,1.414214,166.7453,-193.52775)">
		<path id="path2542_8_" fill="none" stroke="#000000" d="M359.446-31.6v7.086"/>
		<path id="path2548_8_" fill="none" stroke="#000000" d="M358.146-28.057l1.3-3.543l1.215,3.543"/>
	</g>
	<g id="g2554_8_" transform="matrix(1.414214,1.414214,-1.414214,1.414214,175.9325,-193.52775)">
		<path id="path2556_8_" fill="none" stroke="#000000" d="M359.447-31.6v7.086"/>
		<path id="path2558_8_" fill="none" stroke="#000000" d="M358.146-28.057l1.3-3.543l1.215,3.543"/>
	</g>
	<path id="path6801_8_" sodipodi:nodetypes="cc" fill="none" stroke="#000000" stroke-width="3.544" stroke-linecap="square" d="
		M679.35,293.149h21.26"/>
	<path id="path6803_8_" sodipodi:nodetypes="cc" fill="none" stroke="#000000" stroke-width="3.5433" stroke-linecap="square" d="
		M728.956,293.149h14.174"/>
	<path id="path6805_8_" sodipodi:nodetypes="cccc" fill="none" stroke="#000000" stroke-width="3.5433" stroke-linecap="square" d="
		M728.956,293.149l-28.346,14.174v-28.347L728.956,293.149z"/>
	<path id="path6807_8_" sodipodi:nodetypes="cc" fill="none" stroke="#000000" stroke-width="3.5433" stroke-linecap="square" d="
		M728.956,278.976v28.347"/>
</g>
<g id="g4062_9_" transform="matrix(2,0,0,2,-56.118102,-52.352453)">
	<path id="path3938_9_" sodipodi:nodetypes="cc" fill="none" stroke="#B3B3B3" stroke-width="1.7716" d="M351.67,172.751h5.314"/>
	<path id="path3940_9_" sodipodi:nodetypes="cc" fill="none" stroke="#B3B3B3" stroke-width="1.7716" d="M325.095,172.751h5.315"/>
	
		<path id="path3970_9_" sodipodi:nodetypes="cccccccc" fill="none" stroke="#B3B3B3" stroke-width="1.7716" stroke-linecap="round" stroke-linejoin="bevel" d="
		M351.67,172.751l-1.771,3.543l-3.543-7.086l-3.543,7.086l-3.543-7.086l-3.543,7.086l-3.544-7.086l-1.771,3.543"/>
</g>
<line fill="none" stroke="#000000" stroke-width="2" x1="658" y1="293" x2="679" y2="293"/>
<g id="g2428_9_">
	<g id="g2550_9_" transform="matrix(1.414214,1.414214,-1.414214,1.414214,166.7453,-193.52775)">
		<path id="path2542_9_" fill="none" stroke="#000000" d="M377.124-13.922v7.086"/>
		<path id="path2548_9_" fill="none" stroke="#000000" d="M375.824-10.379l1.3-3.543l1.215,3.543"/>
	</g>
	<g id="g2554_9_" transform="matrix(1.414214,1.414214,-1.414214,1.414214,175.9325,-193.52775)">
		<path id="path2556_9_" fill="none" stroke="#000000" d="M377.124-13.922v7.086"/>
		<path id="path2558_9_" fill="none" stroke="#000000" d="M375.824-10.379l1.3-3.543l1.215,3.543"/>
	</g>
	<path id="path6801_9_" sodipodi:nodetypes="cc" fill="none" stroke="#000000" stroke-width="3.544" stroke-linecap="square" d="
		M679.35,343.149h21.26"/>
	<path id="path6803_9_" sodipodi:nodetypes="cc" fill="none" stroke="#000000" stroke-width="3.5433" stroke-linecap="square" d="
		M728.956,343.149h14.174"/>
	<path id="path6805_9_" sodipodi:nodetypes="cccc" fill="none" stroke="#000000" stroke-width="3.5433" stroke-linecap="square" d="
		M728.956,343.149l-28.346,14.174v-28.347L728.956,343.149z"/>
	<path id="path6807_9_" sodipodi:nodetypes="cc" fill="none" stroke="#000000" stroke-width="3.5433" stroke-linecap="square" d="
		M728.956,328.976v28.347"/>
</g>
<g id="g4062_10_" transform="matrix(2,0,0,2,-56.118102,-52.352453)">
	<path id="path3938_10_" sodipodi:nodetypes="cc" fill="none" stroke="#B3B3B3" stroke-width="1.7716" d="M351.67,197.751h5.314"/>
	<path id="path3940_10_" sodipodi:nodetypes="cc" fill="none" stroke="#B3B3B3" stroke-width="1.7716" d="M325.095,197.751h5.315"/>
	
		<path id="path3970_10_" sodipodi:nodetypes="cccccccc" fill="none" stroke="#B3B3B3" stroke-width="1.7716" stroke-linecap="round" stroke-linejoin="bevel" d="
		M351.67,197.751l-1.771,3.543l-3.543-7.086l-3.543,7.086l-3.543-7.086l-3.543,7.086l-3.544-7.086l-1.771,3.543"/>
</g>
<line fill="none" stroke="#000000" stroke-width="2" x1="658" y1="343" x2="679" y2="343"/>
<line fill="none" stroke="#000000" stroke-width="2" x1="416" y1="508" x2="476" y2="508"/>
<line fill="none" stroke="#000000" stroke-width="2" x1="476" y1="508" x2="476" y2="257"/>
<line fill="none" stroke="#000000" stroke-width="2" x1="476" y1="257" x2="490" y2="257"/>
<line fill="none" stroke="#000000" stroke-width="2" x1="416" y1="458" x2="468" y2="458"/>
<line fill="none" stroke="#000000" stroke-width="2" x1="468" y1="458" x2="468" y2="243"/>
<line fill="none" stroke="#000000" stroke-width="2" x1="468" y1="243" x2="490" y2="243"/>
<line fill="none" stroke="#000000" stroke-width="2" x1="416" y1="408" x2="460" y2="408"/>
<line fill="none" stroke="#000000" stroke-width="2" x1="460" y1="408" x2="460" y2="228"/>
<line fill="none" stroke="#000000" stroke-width="2" x1="460" y1="228" x2="490" y2="228"/>
<line fill="none" stroke="#000000" stroke-width="2" x1="416" y1="358" x2="452" y2="358"/>
<line fill="none" stroke="#000000" stroke-width="2" x1="452" y1="358" x2="452" y2="214"/>
<line fill="none" stroke="#000000" stroke-width="2" x1="452" y1="214" x2="490" y2="214"/>
<line fill="none" stroke="#000000" stroke-width="2" x1="416" y1="308" x2="444" y2="308"/>
<line fill="none" stroke="#000000" stroke-width="2" x1="444" y1="308" x2="444" y2="200"/>
<line fill="none" stroke="#000000" stroke-width="2" x1="444" y1="200" x2="490" y2="200"/>
<line fill="none" stroke="#000000" stroke-width="2" x1="416" y1="258" x2="436" y2="258"/>
<line fill="none" stroke="#000000" stroke-width="2" x1="436" y1="258" x2="436" y2="186"/>
<line fill="none" stroke="#000000" stroke-width="2" x1="436" y1="186" x2="490" y2="186"/>
<line fill="none" stroke="#000000" stroke-width="2" x1="416" y1="208" x2="428" y2="208"/>
<line fill="none" stroke="#000000" stroke-width="2" x1="428" y1="208" x2="428" y2="171"/>
<line fill="none" stroke="#000000" stroke-width="2" x1="428" y1="171" x2="490" y2="171"/>
<line fill="none" stroke="#000000" stroke-width="2" x1="594" y1="343" x2="573" y2="343"/>
<line fill="none" stroke="#000000" stroke-width="2" x1="573" y1="343" x2="573" y2="271"/>
<line fill="none" stroke="#000000" stroke-width="2" x1="573" y1="271" x2="561" y2="271"/>
<line fill="none" stroke="#000000" stroke-width="2" x1="594" y1="293" x2="581" y2="293"/>
<line fill="none" stroke="#000000" stroke-width="2" x1="581" y1="293" x2="581" y2="257"/>
<line fill="none" stroke="#000000" stroke-width="2" x1="581" y1="257" x2="561" y2="257"/>
<line fill="none" stroke="#000000" stroke-width="2" x1="594" y1="243" x2="561" y2="243"/>
<line fill="none" stroke="#000000" stroke-width="2" x1="267" y1="208" x2="246" y2="208"/>
<line fill="none" stroke="#000000" stroke-width="2" x1="764" y1="243" x2="743" y2="243"/>
<line fill="none" stroke="#000000" stroke-width="2" x1="764" y1="293" x2="743" y2="293"/>
<line fill="none" stroke="#000000" stroke-width="2" x1="764" y1="343" x2="743" y2="343"/>
<line fill="none" stroke="#000000" stroke-width="2" x1="267" y1="258" x2="246" y2="258"/>
<line fill="none" stroke="#000000" stroke-width="2" x1="267" y1="308" x2="246" y2="308"/>
<line fill="none" stroke="#000000" stroke-width="2" x1="267" y1="358" x2="246" y2="358"/>
<line fill="none" stroke="#000000" stroke-width="2" x1="267" y1="408" x2="246" y2="408"/>
<line fill="none" stroke="#000000" stroke-width="2" x1="267" y1="458" x2="246" y2="458"/>
<line fill="none" stroke="#000000" stroke-width="2" x1="267" y1="508" x2="246" y2="508"/>
<line fill="none" stroke="#000000" stroke-width="2" x1="764" y1="567" x2="764" y2="243"/>
<line fill="none" stroke="#000000" stroke-width="2" x1="246" y1="551" x2="246" y2="208"/>
<rect x="211.007" y="246" fill="none" width="21.996" height="24"/>
<text transform="matrix(1 0 0 1 217.271 268.1108)" font-family="'TrebuchetMS'" font-size="30">1</text>
<rect x="211.007" y="196" fill="none" width="21.996" height="24"/>
<text transform="matrix(1 0 0 1 217.271 218.1108)" font-family="'TrebuchetMS'" font-size="30">5</text>
<rect x="779.001" y="279.636" fill="none" width="18.321" height="24"/>
<text transform="matrix(1 0 0 1 779.0015 301.7466)" font-family="'TrebuchetMS'" font-size="30">4</text>
<rect x="211.007" y="346" fill="none" width="21.996" height="24"/>
<text transform="matrix(1 0 0 1 217.271 368.1108)" font-family="'TrebuchetMS'" font-size="30">2</text>
<rect x="211.007" y="396" fill="none" width="21.996" height="24"/>
<text transform="matrix(1 0 0 1 217.271 418.1108)" font-family="'TrebuchetMS'" font-size="30">6</text>
<rect x="211.007" y="446" fill="none" width="21.996" height="24"/>
<text transform="matrix(1 0 0 1 217.271 468.1108)" font-family="'TrebuchetMS'" font-size="30">7</text>
<rect x="211.007" y="496" fill="none" width="21.996" height="24"/>
<text transform="matrix(1 0 0 1 217.271 518.1108)" font-family="'TrebuchetMS'" font-size="30">3</text>
<rect x="779.001" y="229.636" fill="none" width="17.323" height="24"/>
<text transform="matrix(1 0 0 1 779.0015 251.7466)" font-family="'TrebuchetMS'" font-size="30">9</text>
<rect x="779.001" y="329.636" fill="none" width="18.506" height="24"/>
<text transform="matrix(1 0 0 1 779.0015 351.7466)" font-family="'TrebuchetMS'" font-size="30">8</text>
<g id="g3105_1_">
	
		<rect id="rect3713_2_" x="150.01" y="70.702" fill="none" stroke="#000000" stroke-width="3.5433" stroke-linecap="square" width="56.478" height="55.986"/>
	<text transform="matrix(1 0 0 1 158.1118 106.4927)" font-family="'TrebuchetMS'" font-size="24">555</text>
	<path id="path3725_3_" sodipodi:nodetypes="cc" fill="none" stroke="#000000" stroke-width="3.5433" stroke-linecap="square" d="
		M206.69,77.418h7.086"/>
	<path id="path3727_3_" sodipodi:nodetypes="cc" fill="none" stroke="#000000" stroke-width="3.5433" stroke-linecap="square" d="
		M206.69,91.59h7.086"/>
	<path id="path3729_3_" sodipodi:nodetypes="cc" fill="none" stroke="#000000" stroke-width="3.5433" stroke-linecap="square" d="
		M206.69,105.764h7.086"/>
	<path id="path3731_3_" sodipodi:nodetypes="cc" fill="none" stroke="#000000" stroke-width="3.5433" stroke-linecap="square" d="
		M206.69,119.936h7.086"/>
	<path id="path3733_3_" sodipodi:nodetypes="cc" fill="none" stroke="#000000" stroke-width="3.5433" stroke-linecap="square" d="
		M142.911,77.418h7.086"/>
	<path id="path3735_3_" sodipodi:nodetypes="cc" fill="none" stroke="#000000" stroke-width="3.5433" stroke-linecap="square" d="
		M142.911,91.59h7.086"/>
	<path id="path3737_3_" sodipodi:nodetypes="cc" fill="none" stroke="#000000" stroke-width="3.5433" stroke-linecap="square" d="
		M142.911,105.764h7.086"/>
	<path id="path3739_3_" sodipodi:nodetypes="cc" fill="none" stroke="#000000" stroke-width="3.5433" stroke-linecap="square" d="
		M142.911,119.936h7.086"/>
	
		<path id="path5341_2_" sodipodi:ry="1.7716535" sodipodi:cy="92.007843" sodipodi:type="arc" sodipodi:rx="1.7716535" sodipodi:cx="265.89667" stroke="#000000" stroke-width="2.6469" stroke-linecap="square" d="
		M160.89,79.684c0,1.311-1.062,2.371-2.373,2.371c-1.31,0-2.371-1.061-2.371-2.371s1.062-2.373,2.371-2.373
		S160.89,78.374,160.89,79.684z"/>
</g>
<g id="g4062_14_" transform="matrix(2,0,0,2,-56.118102,-52.352453)">
	<path id="path3938_14_" sodipodi:nodetypes="cc" fill="none" stroke="#000000" stroke-width="1.7717" d="M151.014,80.557v-9.815"/>
	<path id="path3940_14_" sodipodi:nodetypes="cc" fill="none" stroke="#000000" stroke-width="1.7717" d="M151.014,118.133v-16.315"
		/>
	
		<path id="path3970_14_" sodipodi:nodetypes="cccccccc" fill="none" stroke="#000000" stroke-width="1.7717" stroke-linecap="round" stroke-linejoin="bevel" d="
		M151.014,80.558l3.543,1.772l-7.086,3.543l7.086,3.543l-7.086,3.543l7.086,3.543l-7.086,3.543l3.543,1.771"/>
</g>
<g id="g4062_13_" transform="matrix(2,0,0,2,-56.118102,-52.352453)">
	<path id="path3938_13_" sodipodi:nodetypes="cc" fill="none" stroke="#000000" stroke-width="1.7717" d="M151.014,38.518v-9.315"/>
	<path id="path3940_13_" sodipodi:nodetypes="cc" fill="none" stroke="#000000" stroke-width="1.7717" d="M151.014,72.593V59.778"/>
	
		<path id="path3970_13_" sodipodi:nodetypes="cccccccc" fill="none" stroke="#000000" stroke-width="1.7717" stroke-linecap="round" stroke-linejoin="bevel" d="
		M151.014,38.519l3.543,1.772l-7.086,3.543l7.086,3.543l-7.086,3.543l7.086,3.543l-7.086,3.543l3.543,1.772"/>
</g>
<line fill="none" stroke="#000000" stroke-width="2" x1="245" y1="92" x2="215" y2="92"/>
<path stroke="#000000" stroke-width="2" d="M625.701,185.827c0-2.758-2.238-5-5-5c-2.761,0-5,2.242-5,5c0,2.76,2.239,5,5,5
	C623.462,190.827,625.701,188.586,625.701,185.827z"/>
<path stroke="#000000" stroke-width="2" d="M136.701,183.827c0-2.758-2.238-5-5-5c-2.761,0-5,2.242-5,5c0,2.76,2.239,5,5,5
	C134.462,188.827,136.701,186.586,136.701,183.827z"/>
<path stroke="#000000" stroke-width="2" d="M224.701,183.827c0-2.758-2.238-5-5-5c-2.761,0-5,2.242-5,5c0,2.76,2.239,5,5,5
	C222.462,188.827,224.701,186.586,224.701,183.827z"/>
<path stroke="#000000" stroke-width="2" d="M224.701,6.827c0-2.758-2.238-5-5-5c-2.761,0-5,2.242-5,5c0,2.76,2.239,5,5,5
	C222.462,11.827,224.701,9.586,224.701,6.827z"/>
<path stroke="#000000" stroke-width="2" d="M63.701,6.827c0-2.758-2.238-5-5-5c-2.761,0-5,2.242-5,5c0,2.76,2.239,5,5,5
	C61.462,11.827,63.701,9.586,63.701,6.827z"/>
<path stroke="#000000" stroke-width="2" d="M142.701,6.827c0-2.758-2.238-5-5-5c-2.761,0-5,2.242-5,5c0,2.76,2.239,5,5,5
	C140.462,11.827,142.701,9.586,142.701,6.827z"/>
<path stroke="#000000" stroke-width="2" d="M63.701,76.827c0-2.758-2.238-5-5-5c-2.761,0-5,2.242-5,5c0,2.76,2.239,5,5,5
	C61.462,81.827,63.701,79.586,63.701,76.827z"/>
<g id="g4055_3_" transform="matrix(2,0,0,2,7.7479973,-48.554883)">
	<g id="g2803_3_" transform="translate(-56.01883,133.62338)">
		<path id="path2791_3_" sodipodi:nodetypes="cc" fill="none" stroke="#000000" stroke-width="1.7716" stroke-linecap="square" d="
			M117.645,5.457v-7.086"/>
		<path id="path2793_3_" sodipodi:nodetypes="cc" fill="none" stroke="#000000" stroke-width="1.7716" stroke-linecap="square" d="
			M117.645-5.173V-17.26"/>
	</g>
	<path id="path2795_3_" sodipodi:nodetypes="cc" fill="none" stroke="#000000" stroke-width="1.7716" stroke-linecap="square" d="
		M54.539,131.994h14.173"/>
	<path id="path2797_3_" sodipodi:nodetypes="cc" fill="none" stroke="#000000" stroke-width="1.7716" stroke-linecap="square" d="
		M54.539,128.451h14.173"/>
</g>
<line fill="none" stroke="#000000" stroke-width="2" x1="214" y1="106" x2="220" y2="106"/>
<line fill="none" stroke="#000000" stroke-width="2" x1="220" y1="106" x2="220" y2="184"/>
<line fill="none" stroke="#000000" stroke-width="2" x1="220" y1="184" x2="246" y2="184"/>
<line fill="none" stroke="#000000" stroke-width="2" x1="220" y1="184" x2="131" y2="184"/>
<line fill="none" stroke="#000000" stroke-width="2" x1="131" y1="185" x2="131" y2="91"/>
<line fill="none" stroke="#000000" stroke-width="2" x1="131" y1="92" x2="143" y2="92"/>
<line fill="none" stroke="#000000" stroke-width="2" x1="214" y1="77" x2="220" y2="77"/>
<line fill="none" stroke="#000000" stroke-width="2" x1="220" y1="77" x2="220" y2="6"/>
<line fill="none" stroke="#000000" stroke-width="2" x1="143" y1="77" x2="59" y2="77"/>
<g id="g4055_2_" transform="matrix(2,0,0,2,7.7479973,-48.554883)">
	<g id="g2803_2_" transform="translate(-56.01883,133.62338)">
		<path id="path2791_2_" sodipodi:nodetypes="cc" fill="none" stroke="#000000" stroke-width="1.7716" stroke-linecap="square" d="
			M81.645-62.543v-25.086"/>
		<path id="path2793_2_" sodipodi:nodetypes="cc" fill="none" stroke="#000000" stroke-width="1.7716" stroke-linecap="square" d="
			M81.645-91.173v-15.087"/>
	</g>
	<path id="path2795_2_" sodipodi:nodetypes="cc" fill="none" stroke="#000000" stroke-width="1.7716" stroke-linecap="square" d="
		M18.539,45.994h14.173"/>
	<path id="path2797_2_" sodipodi:nodetypes="cc" fill="none" stroke="#000000" stroke-width="1.7716" stroke-linecap="square" d="
		M18.539,42.451h14.173"/>
</g>
<line fill="none" stroke="#000000" stroke-width="2" x1="143" y1="120" x2="138" y2="120"/>
<line fill="none" stroke="#000000" stroke-width="2" x1="138" y1="121" x2="138" y2="6"/>
<line fill="none" stroke="#000000" stroke-width="2" x1="143" y1="106" x2="117" y2="106"/>
<rect x="53.874" y="183.518" fill="none" width="59.093" height="56.545"/>
<text transform="matrix(1 0 0 1 54.7535 205.6289)"><tspan x="0" y="0" font-family="'TrebuchetMS'" font-size="30">0.22 </tspan><tspan x="26.074" y="30" font-family="'TrebuchetMS'" font-size="30">µF</tspan></text>
<rect x="76.24" y="11.157" fill="none" width="59.093" height="56.545"/>
<text transform="matrix(1 0 0 1 76.2403 33.2681)"><tspan x="0" y="0" font-family="'TrebuchetMS'" font-size="30">0.01 </tspan><tspan x="0" y="30" font-family="'TrebuchetMS'" font-size="30">µF</tspan></text>
<g id="g2396_3_">
	<path id="path3980_3_" sodipodi:nodetypes="cc" fill="none" stroke="#000000" stroke-width="3.5433" stroke-linecap="square" d="
		M151.96,244h-42.52"/>
	<path id="path3984_3_" sodipodi:nodetypes="cc" fill="none" stroke="#000000" stroke-width="3.5433" d="M130.701,229.827V244"/>
	<path id="path3994_3_" sodipodi:nodetypes="cc" fill="none" stroke="#000000" stroke-width="3.5433" stroke-linecap="square" d="
		M144.873,251.088h-28.346"/>
	<path id="path3996_3_" sodipodi:nodetypes="cc" fill="none" stroke="#000000" stroke-width="3.5433" stroke-linecap="square" d="
		M137.787,258.174h-14.174"/>
</g>
<g id="g2396_1_">
	<path id="path3980_1_" sodipodi:nodetypes="cc" fill="none" stroke="#000000" stroke-width="3.5433" stroke-linecap="square" d="
		M717.259,175.102h-42.52"/>
	<path id="path3984_1_" sodipodi:nodetypes="cc" fill="none" stroke="#000000" stroke-width="3.5433" d="M696,160.928v14.174"/>
	<path id="path3994_1_" sodipodi:nodetypes="cc" fill="none" stroke="#000000" stroke-width="3.5433" stroke-linecap="square" d="
		M710.171,182.189h-28.346"/>
	<path id="path3996_1_" sodipodi:nodetypes="cc" fill="none" stroke="#000000" stroke-width="3.5433" stroke-linecap="square" d="
		M703.086,189.275h-14.174"/>
</g>
<g id="g2396_4_">
	<path id="path3980_4_" sodipodi:nodetypes="cc" fill="none" stroke="#000000" stroke-width="3.5433" stroke-linecap="square" d="
		M80.259,108H37.74"/>
	<path id="path3984_4_" sodipodi:nodetypes="cc" fill="none" stroke="#000000" stroke-width="3.5433" d="M59,93.827V108"/>
	<path id="path3994_4_" sodipodi:nodetypes="cc" fill="none" stroke="#000000" stroke-width="3.5433" stroke-linecap="square" d="
		M73.171,115.088H44.826"/>
	<path id="path3996_4_" sodipodi:nodetypes="cc" fill="none" stroke="#000000" stroke-width="3.5433" stroke-linecap="square" d="
		M66.085,122.174H51.912"/>
</g>
<line fill="none" stroke="#000000" stroke-width="2" x1="78" y1="273" x2="18" y2="273"/>
<line fill="none" stroke="#000000" stroke-width="2" x1="18" y1="273" x2="18" y2="6"/>
<line fill="none" stroke="#000000" stroke-width="2" x1="117" y1="106" x2="117" y2="165"/>
<line fill="none" stroke="#000000" stroke-width="2" x1="117" y1="165" x2="395" y2="165"/>
<line fill="none" stroke="#000000" stroke-width="2" x1="395" y1="165" x2="395" y2="109"/>
<line fill="none" stroke="#000000" stroke-width="2" x1="395" y1="109" x2="577" y2="109"/>
<rect x="255.003" y="19.793" fill="none" width="95.413" height="24"/>
<text transform="matrix(1 0 0 1 255.0034 41.9033)" font-family="'TrebuchetMS'" font-size="30">180 kΩ</text>
<line fill="none" stroke="#754C24" stroke-width="10" x1="280" y1="47" x2="280" y2="72"/>
<line fill="none" stroke="#B3B3B3" stroke-width="10" x1="292" y1="47" x2="292" y2="72"/>
<line fill="none" stroke="#FFFF00" stroke-width="10" x1="304" y1="47" x2="304" y2="72"/>
<line fill="none" stroke="#FBC926" stroke-width="10" x1="315" y1="47" x2="315" y2="72"/>
<rect x="255.003" y="101.793" fill="none" width="95.699" height="24"/>
<text transform="matrix(1 0 0 1 255.0034 123.9033)" font-family="'TrebuchetMS'" font-size="30">180 kΩ</text>
<line fill="none" stroke="#754C24" stroke-width="10" x1="280" y1="129" x2="280" y2="154"/>
<line fill="none" stroke="#B3B3B3" stroke-width="10" x1="292" y1="129" x2="292" y2="154"/>
<line fill="none" stroke="#FFFF00" stroke-width="10" x1="304" y1="129" x2="304" y2="154"/>
<line fill="none" stroke="#FBC926" stroke-width="10" x1="315" y1="129" x2="315" y2="154"/>
<path stroke="#000000" stroke-width="2" d="M251.701,6.827c0-2.758-2.238-5-5-5c-2.761,0-5,2.242-5,5c0,2.76,2.239,5,5,5
	C249.462,11.827,251.701,9.586,251.701,6.827z"/>
<line fill="none" stroke="#000000" stroke-width="2" stroke-miterlimit="10" x1="561" y1="214" x2="621" y2="214"/>
<line fill="none" stroke="#000000" stroke-width="2" stroke-miterlimit="10" x1="620" y1="214" x2="620" y2="144"/>
<line fill="none" stroke="#000000" stroke-width="2" stroke-miterlimit="10" x1="561" y1="186" x2="620" y2="186"/>
<line fill="none" stroke="#000000" stroke-width="2" stroke-miterlimit="10" x1="620" y1="144" x2="696" y2="144"/>
<line fill="none" stroke="#000000" stroke-width="2" stroke-miterlimit="10" x1="696" y1="144" x2="696" y2="161"/>
</svg>
