<?xml version="1.0" encoding="utf-8"?>
<!-- Generator: Adobe Illustrator 15.1.0, SVG Export Plug-In . SVG Version: 6.00 Build 0)  -->
<!DOCTYPE svg PUBLIC "-//W3C//DTD SVG 1.1//EN" "http://www.w3.org/Graphics/SVG/1.1/DTD/svg11.dtd">
<svg version="1.1" id="Layer_1" xmlns="http://www.w3.org/2000/svg" xmlns:xlink="http://www.w3.org/1999/xlink" xmlns:inkscape="http://www.inkscape.org/namespaces/inkscape" xmlns:sodipodi="http://sodipodi.sourceforge.net/DTD/sodipodi-0.dtd" x="0px" y="0px"
	 width="800px" height="600px" viewBox="0 0 800 600" enable-background="new 0 0 800 600" xml:space="preserve">
<g id="g2402">
	<path id="path1315" sodipodi:nodetypes="cc" fill="none" stroke="#000000" stroke-width="3.5433" stroke-linecap="square" d="
		M111.961,405.967H55.268"/>
	<path id="path1317" sodipodi:nodetypes="cc" fill="none" stroke="#000000" stroke-width="7.0866" stroke-linecap="square" d="
		M97.787,414.826H69.441"/>
	<path id="path2220" sodipodi:nodetypes="cc" fill="none" stroke="#000000" stroke-width="3.5433" d="M83.614,393.566v14.174"/>
	<path id="path2222" sodipodi:nodetypes="cc" fill="none" stroke="#000000" stroke-width="3.5433" stroke-linecap="square" d="
		M83.614,414.826v14.172"/>
	<g id="g3965" transform="matrix(2,0,0,2,-258.79112,-56.482983)">
		<path id="path3967" sodipodi:nodetypes="cc" fill="none" stroke="#000000" d="M185.376,225.025h-7.087"/>
		<path id="path3969" sodipodi:nodetypes="cc" fill="none" stroke="#000000" d="M181.833,228.568v-7.087"/>
	</g>
</g>
<line fill="none" stroke="#000000" stroke-width="2" x1="84" y1="394" x2="84" y2="273"/>
<line fill="none" stroke="#000000" stroke-width="2" x1="24" y1="6" x2="506" y2="6"/>
<line fill="none" stroke="#000000" stroke-width="2" x1="770" y1="551" x2="84" y2="551"/>
<line fill="none" stroke="#000000" stroke-width="2" x1="83.701" y1="550.826" x2="83.614" y2="428.998"/>
<path stroke="#000000" stroke-width="2" d="M775.701,550.826c0-2.758-2.238-5-5-5c-2.761,0-5,2.242-5,5c0,2.76,2.239,5,5,5
	C773.463,555.826,775.701,553.586,775.701,550.826z"/>
<path stroke="#000000" stroke-width="2" d="M774.701,302.826c0-2.758-2.238-5-5-5c-2.761,0-5,2.242-5,5c0,2.76,2.239,5,5,5
	C772.463,307.826,774.701,305.586,774.701,302.826z"/>
<path stroke="#000000" stroke-width="2" d="M774.701,352.826c0-2.758-2.238-5-5-5c-2.761,0-5,2.242-5,5c0,2.76,2.239,5,5,5
	C772.463,357.826,774.701,355.586,774.701,352.826z"/>
<path stroke="#000000" stroke-width="2" d="M214.701,550.826c0-2.758-2.238-5-5-5c-2.761,0-5,2.242-5,5c0,2.76,2.239,5,5,5
	C212.463,555.826,214.701,553.586,214.701,550.826z"/>
<path stroke="#000000" stroke-width="2" d="M424.701,550.826c0-2.758-2.238-5-5-5c-2.761,0-5,2.242-5,5c0,2.76,2.239,5,5,5
	C422.463,555.826,424.701,553.586,424.701,550.826z"/>
<g id="g2396">
	<path id="path3980" sodipodi:nodetypes="cc" fill="none" stroke="#000000" stroke-width="3.5433" stroke-linecap="square" d="
		M791.961,581h-42.52"/>
	<path id="path3984" sodipodi:nodetypes="cc" fill="none" stroke="#000000" stroke-width="3.5433" d="M770.701,566.826V581"/>
	<path id="path3994" sodipodi:nodetypes="cc" fill="none" stroke="#000000" stroke-width="3.5433" stroke-linecap="square" d="
		M784.873,588.088h-28.346"/>
	<path id="path3996" sodipodi:nodetypes="cc" fill="none" stroke="#000000" stroke-width="3.5433" stroke-linecap="square" d="
		M777.787,595.174h-14.174"/>
</g>
<rect x="4.634" y="397" fill="none" width="45.366" height="24"/>
<text transform="matrix(1 0 0 1 7.6074 419.1094)" font-family="'TrebuchetMS'" font-size="30">6 V</text>
<g>
	
		<rect id="rect3713" x="223.345" y="314.748" fill="none" stroke="#000000" stroke-width="3.5433" stroke-linecap="square" width="56.478" height="113.985"/>
	<text transform="matrix(1 0 0 1 229.4463 376.5381)" font-family="'TrebuchetMS'" font-size="20">4017</text>
	<path id="path3725" sodipodi:nodetypes="cc" fill="none" stroke="#000000" stroke-width="3.5433" stroke-linecap="square" d="
		M280.024,321.463h7.086"/>
	<path id="path3727" sodipodi:nodetypes="cc" fill="none" stroke="#000000" stroke-width="3.5433" stroke-linecap="square" d="
		M280.024,335.636h7.086"/>
	<path id="path3729" sodipodi:nodetypes="cc" fill="none" stroke="#000000" stroke-width="3.5433" stroke-linecap="square" d="
		M280.024,349.81h7.086"/>
	<path id="path3731" sodipodi:nodetypes="cc" fill="none" stroke="#000000" stroke-width="3.5433" stroke-linecap="square" d="
		M280.024,363.981h7.086"/>
	<path id="path3733" sodipodi:nodetypes="cc" fill="none" stroke="#000000" stroke-width="3.5433" stroke-linecap="square" d="
		M216.245,321.463h7.086"/>
	<path id="path3735" sodipodi:nodetypes="cc" fill="none" stroke="#000000" stroke-width="3.5433" stroke-linecap="square" d="
		M216.245,335.636h7.086"/>
	<path id="path3737" sodipodi:nodetypes="cc" fill="none" stroke="#000000" stroke-width="3.5433" stroke-linecap="square" d="
		M216.245,349.81h7.086"/>
	<path id="path3739" sodipodi:nodetypes="cc" fill="none" stroke="#000000" stroke-width="3.5433" stroke-linecap="square" d="
		M216.245,363.981h7.086"/>
	
		<path id="path5341" sodipodi:ry="1.7716535" sodipodi:cy="92.007843" sodipodi:type="arc" sodipodi:rx="1.7716535" sodipodi:cx="265.89667" stroke="#000000" stroke-width="2.6469" stroke-linecap="square" d="
		M234.225,323.729c0,1.311-1.062,2.373-2.373,2.373c-1.31,0-2.371-1.062-2.371-2.373c0-1.309,1.062-2.371,2.371-2.371
		S234.225,322.42,234.225,323.729z"/>
	<path id="path3725_1_" sodipodi:nodetypes="cc" fill="none" stroke="#000000" stroke-width="3.5433" stroke-linecap="square" d="
		M280.024,378.463h7.086"/>
	<path id="path3727_1_" sodipodi:nodetypes="cc" fill="none" stroke="#000000" stroke-width="3.5433" stroke-linecap="square" d="
		M280.024,392.636h7.086"/>
	<path id="path3729_1_" sodipodi:nodetypes="cc" fill="none" stroke="#000000" stroke-width="3.5433" stroke-linecap="square" d="
		M280.024,406.81h7.086"/>
	<path id="path3731_1_" sodipodi:nodetypes="cc" fill="none" stroke="#000000" stroke-width="3.5433" stroke-linecap="square" d="
		M280.024,420.981h7.086"/>
	<path id="path3733_1_" sodipodi:nodetypes="cc" fill="none" stroke="#000000" stroke-width="3.5433" stroke-linecap="square" d="
		M216.245,378.463h7.086"/>
	<path id="path3735_1_" sodipodi:nodetypes="cc" fill="none" stroke="#000000" stroke-width="3.5433" stroke-linecap="square" d="
		M216.245,392.636h7.086"/>
	<path id="path3737_1_" sodipodi:nodetypes="cc" fill="none" stroke="#000000" stroke-width="3.5433" stroke-linecap="square" d="
		M216.245,406.81h7.086"/>
	<path id="path3739_1_" sodipodi:nodetypes="cc" fill="none" stroke="#000000" stroke-width="3.5433" stroke-linecap="square" d="
		M216.245,420.981h7.086"/>
</g>
<g>
	
		<rect id="rect3713_1_" x="434.06" y="311.247" fill="none" stroke="#000000" stroke-width="3.5433" stroke-linecap="square" width="56.477" height="100.986"/>
	<text transform="matrix(1 0 0 1 451.1602 367.0381)" font-family="'TrebuchetMS'" font-size="20">32</text>
	<path id="path3725_4_" sodipodi:nodetypes="cc" fill="none" stroke="#000000" stroke-width="3.5433" stroke-linecap="square" d="
		M490.739,317.964h7.086"/>
	<path id="path3727_4_" sodipodi:nodetypes="cc" fill="none" stroke="#000000" stroke-width="3.5433" stroke-linecap="square" d="
		M490.739,332.136h7.086"/>
	<path id="path3729_4_" sodipodi:nodetypes="cc" fill="none" stroke="#000000" stroke-width="3.5433" stroke-linecap="square" d="
		M490.739,346.31h7.086"/>
	<path id="path3731_4_" sodipodi:nodetypes="cc" fill="none" stroke="#000000" stroke-width="3.5433" stroke-linecap="square" d="
		M490.739,360.481h7.086"/>
	<path id="path3733_4_" sodipodi:nodetypes="cc" fill="none" stroke="#000000" stroke-width="3.5433" stroke-linecap="square" d="
		M426.96,317.964h7.086"/>
	<path id="path3735_4_" sodipodi:nodetypes="cc" fill="none" stroke="#000000" stroke-width="3.5433" stroke-linecap="square" d="
		M426.96,332.136h7.086"/>
	<path id="path3737_4_" sodipodi:nodetypes="cc" fill="none" stroke="#000000" stroke-width="3.5433" stroke-linecap="square" d="
		M426.96,346.31h7.086"/>
	<path id="path3739_4_" sodipodi:nodetypes="cc" fill="none" stroke="#000000" stroke-width="3.5433" stroke-linecap="square" d="
		M426.96,360.481h7.086"/>
	
		<path id="path5341_1_" sodipodi:ry="1.7716535" sodipodi:cy="92.007843" sodipodi:type="arc" sodipodi:rx="1.7716535" sodipodi:cx="265.89667" stroke="#000000" stroke-width="2.6469" stroke-linecap="square" d="
		M444.938,320.229c0,1.311-1.062,2.371-2.373,2.371c-1.309,0-2.371-1.061-2.371-2.371s1.062-2.373,2.371-2.373
		C443.876,317.856,444.938,318.919,444.938,320.229z"/>
	<path id="path3725_2_" sodipodi:nodetypes="cc" fill="none" stroke="#000000" stroke-width="3.5433" stroke-linecap="square" d="
		M490.739,374.963h7.086"/>
	<path id="path3727_2_" sodipodi:nodetypes="cc" fill="none" stroke="#000000" stroke-width="3.5433" stroke-linecap="square" d="
		M490.739,389.136h7.086"/>
	<path id="path3729_2_" sodipodi:nodetypes="cc" fill="none" stroke="#000000" stroke-width="3.5433" stroke-linecap="square" d="
		M490.739,403.31h7.086"/>
	<path id="path3733_2_" sodipodi:nodetypes="cc" fill="none" stroke="#000000" stroke-width="3.5433" stroke-linecap="square" d="
		M426.96,374.963h7.086"/>
	<path id="path3735_2_" sodipodi:nodetypes="cc" fill="none" stroke="#000000" stroke-width="3.5433" stroke-linecap="square" d="
		M426.96,389.136h7.086"/>
	<path id="path3737_2_" sodipodi:nodetypes="cc" fill="none" stroke="#000000" stroke-width="3.5433" stroke-linecap="square" d="
		M426.96,403.31h7.086"/>
</g>
<line fill="none" stroke="#000000" stroke-width="2" x1="298" y1="165" x2="298" y2="350"/>
<line fill="none" stroke="#000000" stroke-width="2" x1="298" y1="350" x2="287" y2="350"/>
<line fill="none" stroke="#000000" stroke-width="2" x1="356" y1="6" x2="356" y2="184"/>
<line fill="none" stroke="#000000" stroke-width="2" x1="310" y1="321" x2="287" y2="321"/>
<line fill="none" stroke="#000000" stroke-width="2" x1="210" y1="551" x2="210" y2="421"/>
<line fill="none" stroke="#000000" stroke-width="2" x1="210" y1="421" x2="216" y2="421"/>
<rect x="551.51" y="110.322" fill="none" width="166.273" height="88.013"/>
<text transform="matrix(1 0 0 1 583.7949 132.4321)"><tspan x="0" y="0" font-family="'TrebuchetMS'" font-size="30">All </tspan><tspan x="44.428" y="0" fill="#B3B3B3" font-family="'TrebuchetMS'" font-size="30">gray</tspan><tspan x="101.703" y="0" font-family="'TrebuchetMS'" font-size="30">  </tspan><tspan x="-31.891" y="30" font-family="'TrebuchetMS'" font-size="30">resistors are </tspan><tspan x="12.699" y="60" font-family="'TrebuchetMS'" font-size="30">220 Ω</tspan></text>
<line fill="none" stroke="#FF0000" stroke-width="10" x1="616" y1="199" x2="616" y2="224"/>
<line fill="none" stroke="#FF0000" stroke-width="10" x1="628" y1="199" x2="628" y2="224"/>
<line fill="none" stroke="#754C24" stroke-width="10" x1="640" y1="199" x2="640" y2="224"/>
<line fill="none" stroke="#FBC926" stroke-width="10" x1="651" y1="199" x2="651" y2="224"/>
<g id="g2428_7_">
	<g id="g2550_7_" transform="matrix(1.414214,1.414214,-1.414214,1.414214,166.7453,-193.52775)">
		<path id="path2542_7_" fill="none" stroke="#000000" d="M347.426-47.863v7.086"/>
		<path id="path2548_7_" fill="none" stroke="#000000" d="M346.125-44.32l1.3-3.543l1.215,3.543"/>
	</g>
	<g id="g2554_7_" transform="matrix(1.414214,1.414214,-1.414214,1.414214,175.9325,-193.52775)">
		<path id="path2556_7_" fill="none" stroke="#000000" d="M347.426-47.864v7.086"/>
		<path id="path2558_7_" fill="none" stroke="#000000" d="M346.125-44.32l1.3-3.543l1.215,3.543"/>
	</g>
	<path id="path6801_7_" sodipodi:nodetypes="cc" fill="none" stroke="#000000" stroke-width="3.544" stroke-linecap="square" d="
		M685.351,253.148h21.26"/>
	<path id="path6803_7_" sodipodi:nodetypes="cc" fill="none" stroke="#000000" stroke-width="3.5433" stroke-linecap="square" d="
		M734.956,253.148h14.174"/>
	<path id="path6805_7_" sodipodi:nodetypes="cccc" fill="none" stroke="#000000" stroke-width="3.5433" stroke-linecap="square" d="
		M734.956,253.148l-28.346,14.174v-28.347L734.956,253.148z"/>
	<path id="path6807_7_" sodipodi:nodetypes="cc" fill="none" stroke="#000000" stroke-width="3.5433" stroke-linecap="square" d="
		M734.956,238.976v28.347"/>
</g>
<g id="g4062_8_" transform="matrix(2,0,0,2,-56.118102,-52.352453)">
	<path id="path3938_8_" sodipodi:nodetypes="cc" fill="none" stroke="#B3B3B3" stroke-width="1.7716" d="M354.67,152.75h5.314"/>
	<path id="path3940_8_" sodipodi:nodetypes="cc" fill="none" stroke="#B3B3B3" stroke-width="1.7716" d="M328.095,152.75h5.315"/>
	
		<path id="path3970_8_" sodipodi:nodetypes="cccccccc" fill="none" stroke="#B3B3B3" stroke-width="1.7716" stroke-linecap="round" stroke-linejoin="bevel" d="
		M354.67,152.75l-1.771,3.543l-3.543-7.086l-3.543,7.086l-3.543-7.086l-3.543,7.086l-3.544-7.086l-1.771,3.543"/>
</g>
<line fill="none" stroke="#000000" stroke-width="2" x1="664" y1="253" x2="685" y2="253"/>
<g id="g2428_8_">
	<g id="g2550_8_" transform="matrix(1.414214,1.414214,-1.414214,1.414214,166.7453,-193.52775)">
		<path id="path2542_8_" fill="none" stroke="#000000" d="M365.103-30.186v7.086"/>
		<path id="path2548_8_" fill="none" stroke="#000000" d="M363.803-26.643l1.3-3.543l1.215,3.543"/>
	</g>
	<g id="g2554_8_" transform="matrix(1.414214,1.414214,-1.414214,1.414214,175.9325,-193.52775)">
		<path id="path2556_8_" fill="none" stroke="#000000" d="M365.103-30.186l0,7.086"/>
		<path id="path2558_8_" fill="none" stroke="#000000" d="M363.803-26.643l1.3-3.543l1.215,3.543"/>
	</g>
	<path id="path6801_8_" sodipodi:nodetypes="cc" fill="none" stroke="#000000" stroke-width="3.544" stroke-linecap="square" d="
		M685.351,303.149h21.26"/>
	<path id="path6803_8_" sodipodi:nodetypes="cc" fill="none" stroke="#000000" stroke-width="3.5433" stroke-linecap="square" d="
		M734.956,303.149h14.174"/>
	<path id="path6805_8_" sodipodi:nodetypes="cccc" fill="none" stroke="#000000" stroke-width="3.5433" stroke-linecap="square" d="
		M734.956,303.149l-28.346,14.174v-28.347L734.956,303.149z"/>
	<path id="path6807_8_" sodipodi:nodetypes="cc" fill="none" stroke="#000000" stroke-width="3.5433" stroke-linecap="square" d="
		M734.956,288.976v28.347"/>
</g>
<g id="g4062_9_" transform="matrix(2,0,0,2,-56.118102,-52.352453)">
	<path id="path3938_9_" sodipodi:nodetypes="cc" fill="none" stroke="#B3B3B3" stroke-width="1.7716" d="M354.67,177.75h5.314"/>
	<path id="path3940_9_" sodipodi:nodetypes="cc" fill="none" stroke="#B3B3B3" stroke-width="1.7716" d="M328.095,177.75h5.315"/>
	
		<path id="path3970_9_" sodipodi:nodetypes="cccccccc" fill="none" stroke="#B3B3B3" stroke-width="1.7716" stroke-linecap="round" stroke-linejoin="bevel" d="
		M354.67,177.75l-1.771,3.543l-3.543-7.086l-3.543,7.086l-3.543-7.086l-3.543,7.086l-3.544-7.086l-1.771,3.543"/>
</g>
<line fill="none" stroke="#000000" stroke-width="2" x1="664" y1="303" x2="685" y2="303"/>
<g id="g2428_9_">
	<g id="g2550_9_" transform="matrix(1.414214,1.414214,-1.414214,1.414214,166.7453,-193.52775)">
		<path id="path2542_9_" fill="none" stroke="#000000" d="M382.781-12.508v7.086"/>
		<path id="path2548_9_" fill="none" stroke="#000000" d="M381.481-8.965l1.3-3.543l1.215,3.543"/>
	</g>
	<g id="g2554_9_" transform="matrix(1.414214,1.414214,-1.414214,1.414214,175.9325,-193.52775)">
		<path id="path2556_9_" fill="none" stroke="#000000" d="M382.781-12.508v7.086"/>
		<path id="path2558_9_" fill="none" stroke="#000000" d="M381.481-8.965l1.3-3.543l1.215,3.543"/>
	</g>
	<path id="path6801_9_" sodipodi:nodetypes="cc" fill="none" stroke="#000000" stroke-width="3.544" stroke-linecap="square" d="
		M685.35,353.149h21.26"/>
	<path id="path6803_9_" sodipodi:nodetypes="cc" fill="none" stroke="#000000" stroke-width="3.5433" stroke-linecap="square" d="
		M734.956,353.149h14.174"/>
	<path id="path6805_9_" sodipodi:nodetypes="cccc" fill="none" stroke="#000000" stroke-width="3.5433" stroke-linecap="square" d="
		M734.956,353.149l-28.346,14.174v-28.347L734.956,353.149z"/>
	<path id="path6807_9_" sodipodi:nodetypes="cc" fill="none" stroke="#000000" stroke-width="3.5433" stroke-linecap="square" d="
		M734.956,338.976v28.347"/>
</g>
<g id="g4062_10_" transform="matrix(2,0,0,2,-56.118102,-52.352453)">
	<path id="path3938_10_" sodipodi:nodetypes="cc" fill="none" stroke="#B3B3B3" stroke-width="1.7716" d="M354.67,202.751h5.314"/>
	<path id="path3940_10_" sodipodi:nodetypes="cc" fill="none" stroke="#B3B3B3" stroke-width="1.7716" d="M328.095,202.751h5.315"/>
	
		<path id="path3970_10_" sodipodi:nodetypes="cccccccc" fill="none" stroke="#B3B3B3" stroke-width="1.7716" stroke-linecap="round" stroke-linejoin="bevel" d="
		M354.67,202.751l-1.771,3.543l-3.543-7.086l-3.543,7.086l-3.543-7.086l-3.543,7.086l-3.544-7.086l-1.771,3.543"/>
</g>
<line fill="none" stroke="#000000" stroke-width="2" x1="664" y1="353" x2="685" y2="353"/>
<line fill="none" stroke="#000000" stroke-width="2" x1="770" y1="253" x2="749" y2="253"/>
<line fill="none" stroke="#000000" stroke-width="2" x1="770" y1="303" x2="749" y2="303"/>
<line fill="none" stroke="#000000" stroke-width="2" x1="770" y1="353" x2="749" y2="353"/>
<path stroke="#000000" stroke-width="2" d="M774.701,402.826c0-2.758-2.238-5-5-5c-2.761,0-5,2.242-5,5c0,2.76,2.239,5,5,5
	C772.463,407.826,774.701,405.586,774.701,402.826z"/>
<g id="g2428_1_">
	<g id="g2550_1_" transform="matrix(1.414214,1.414214,-1.414214,1.414214,166.7453,-193.52775)">
		<path id="path2542_1_" fill="none" stroke="#000000" d="M400.459,5.17v7.086"/>
		<path id="path2548_1_" fill="none" stroke="#000000" d="M399.158,8.713l1.3-3.543l1.215,3.543"/>
	</g>
	<g id="g2554_1_" transform="matrix(1.414214,1.414214,-1.414214,1.414214,175.9325,-193.52775)">
		<path id="path2556_1_" fill="none" stroke="#000000" d="M400.459,5.17l0,7.086"/>
		<path id="path2558_1_" fill="none" stroke="#000000" d="M399.158,8.713l1.3-3.543l1.215,3.543"/>
	</g>
	<path id="path6801_1_" sodipodi:nodetypes="cc" fill="none" stroke="#000000" stroke-width="3.544" stroke-linecap="square" d="
		M685.35,403.149h21.26"/>
	<path id="path6803_1_" sodipodi:nodetypes="cc" fill="none" stroke="#000000" stroke-width="3.5433" stroke-linecap="square" d="
		M734.956,403.149h14.174"/>
	<path id="path6805_1_" sodipodi:nodetypes="cccc" fill="none" stroke="#000000" stroke-width="3.5433" stroke-linecap="square" d="
		M734.956,403.149l-28.346,14.174v-28.347L734.956,403.149z"/>
	<path id="path6807_1_" sodipodi:nodetypes="cc" fill="none" stroke="#000000" stroke-width="3.5433" stroke-linecap="square" d="
		M734.956,388.976v28.347"/>
</g>
<g id="g4062_1_" transform="matrix(2,0,0,2,-56.118102,-52.352453)">
	<path id="path3938_1_" sodipodi:nodetypes="cc" fill="none" stroke="#B3B3B3" stroke-width="1.7716" d="M354.67,227.751h5.314"/>
	<path id="path3940_1_" sodipodi:nodetypes="cc" fill="none" stroke="#B3B3B3" stroke-width="1.7716" d="M328.095,227.751h5.315"/>
	
		<path id="path3970_1_" sodipodi:nodetypes="cccccccc" fill="none" stroke="#B3B3B3" stroke-width="1.7716" stroke-linecap="round" stroke-linejoin="bevel" d="
		M354.67,227.751l-1.771,3.543l-3.543-7.086l-3.543,7.086l-3.543-7.086l-3.543,7.086l-3.544-7.086l-1.771,3.543"/>
</g>
<line fill="none" stroke="#000000" stroke-width="2" x1="664" y1="403" x2="685" y2="403"/>
<line fill="none" stroke="#000000" stroke-width="2" x1="770" y1="403" x2="749" y2="403"/>
<path stroke="#000000" stroke-width="2" d="M774.701,452.826c0-2.758-2.238-5-5-5c-2.761,0-5,2.242-5,5c0,2.76,2.239,5,5,5
	C772.463,457.826,774.701,455.586,774.701,452.826z"/>
<g id="g2428_2_">
	<g id="g2550_2_" transform="matrix(1.414214,1.414214,-1.414214,1.414214,166.7453,-193.52775)">
		<path id="path2542_2_" fill="none" stroke="#000000" d="M418.136,22.847l0,7.086"/>
		<path id="path2548_2_" fill="none" stroke="#000000" d="M416.836,26.39l1.3-3.543l1.215,3.543"/>
	</g>
	<g id="g2554_2_" transform="matrix(1.414214,1.414214,-1.414214,1.414214,175.9325,-193.52775)">
		<path id="path2556_2_" fill="none" stroke="#000000" d="M418.136,22.847v7.086"/>
		<path id="path2558_2_" fill="none" stroke="#000000" d="M416.836,26.39l1.3-3.543l1.215,3.543"/>
	</g>
	<path id="path6801_2_" sodipodi:nodetypes="cc" fill="none" stroke="#000000" stroke-width="3.544" stroke-linecap="square" d="
		M685.35,453.149h21.26"/>
	<path id="path6803_2_" sodipodi:nodetypes="cc" fill="none" stroke="#000000" stroke-width="3.5433" stroke-linecap="square" d="
		M734.956,453.149h14.174"/>
	<path id="path6805_2_" sodipodi:nodetypes="cccc" fill="none" stroke="#000000" stroke-width="3.5433" stroke-linecap="square" d="
		M734.956,453.149l-28.346,14.174v-28.347L734.956,453.149z"/>
	<path id="path6807_2_" sodipodi:nodetypes="cc" fill="none" stroke="#000000" stroke-width="3.5433" stroke-linecap="square" d="
		M734.956,438.976v28.347"/>
</g>
<g id="g4062_2_" transform="matrix(2,0,0,2,-56.118102,-52.352453)">
	<path id="path3938_2_" sodipodi:nodetypes="cc" fill="none" stroke="#B3B3B3" stroke-width="1.7716" d="M354.67,252.751h5.314"/>
	<path id="path3940_2_" sodipodi:nodetypes="cc" fill="none" stroke="#B3B3B3" stroke-width="1.7716" d="M328.095,252.751h5.315"/>
	
		<path id="path3970_2_" sodipodi:nodetypes="cccccccc" fill="none" stroke="#B3B3B3" stroke-width="1.7716" stroke-linecap="round" stroke-linejoin="bevel" d="
		M354.67,252.751l-1.771,3.543l-3.543-7.086l-3.543,7.086l-3.543-7.086l-3.543,7.086l-3.544-7.086l-1.771,3.543"/>
</g>
<line fill="none" stroke="#000000" stroke-width="2" x1="664" y1="453" x2="685" y2="453"/>
<line fill="none" stroke="#000000" stroke-width="2" x1="770" y1="453" x2="749" y2="453"/>
<path stroke="#000000" stroke-width="2" d="M774.701,502.826c0-2.758-2.238-5-5-5c-2.761,0-5,2.242-5,5c0,2.76,2.239,5,5,5
	C772.463,507.826,774.701,505.586,774.701,502.826z"/>
<g id="g2428_3_">
	<g id="g2550_3_" transform="matrix(1.414214,1.414214,-1.414214,1.414214,166.7453,-193.52775)">
		<path id="path2542_3_" fill="none" stroke="#000000" d="M435.814,40.525v7.086"/>
		<path id="path2548_3_" fill="none" stroke="#000000" d="M434.514,44.068l1.3-3.543l1.215,3.543"/>
	</g>
	<g id="g2554_3_" transform="matrix(1.414214,1.414214,-1.414214,1.414214,175.9325,-193.52775)">
		<path id="path2556_3_" fill="none" stroke="#000000" d="M435.814,40.525v7.086"/>
		<path id="path2558_3_" fill="none" stroke="#000000" d="M434.514,44.068l1.3-3.543l1.215,3.543"/>
	</g>
	<path id="path6801_3_" sodipodi:nodetypes="cc" fill="none" stroke="#000000" stroke-width="3.544" stroke-linecap="square" d="
		M685.35,503.149h21.26"/>
	<path id="path6803_3_" sodipodi:nodetypes="cc" fill="none" stroke="#000000" stroke-width="3.5433" stroke-linecap="square" d="
		M734.956,503.149h14.174"/>
	<path id="path6805_3_" sodipodi:nodetypes="cccc" fill="none" stroke="#000000" stroke-width="3.5433" stroke-linecap="square" d="
		M734.956,503.149l-28.346,14.174v-28.347L734.956,503.149z"/>
	<path id="path6807_3_" sodipodi:nodetypes="cc" fill="none" stroke="#000000" stroke-width="3.5433" stroke-linecap="square" d="
		M734.956,488.976v28.347"/>
</g>
<g id="g4062_3_" transform="matrix(2,0,0,2,-56.118102,-52.352453)">
	<path id="path3938_3_" sodipodi:nodetypes="cc" fill="none" stroke="#B3B3B3" stroke-width="1.7716" d="M354.67,277.751h5.314"/>
	<path id="path3940_3_" sodipodi:nodetypes="cc" fill="none" stroke="#B3B3B3" stroke-width="1.7716" d="M328.095,277.751h5.315"/>
	
		<path id="path3970_3_" sodipodi:nodetypes="cccccccc" fill="none" stroke="#B3B3B3" stroke-width="1.7716" stroke-linecap="round" stroke-linejoin="bevel" d="
		M354.67,277.751l-1.771,3.543l-3.543-7.086l-3.543,7.086l-3.543-7.086l-3.543,7.086l-3.544-7.086l-1.771,3.543"/>
</g>
<line fill="none" stroke="#000000" stroke-width="2" x1="664" y1="503" x2="685" y2="503"/>
<line fill="none" stroke="#000000" stroke-width="2" x1="770" y1="503" x2="749" y2="503"/>
<line fill="none" stroke="#000000" stroke-width="2" x1="770" y1="567" x2="770" y2="253"/>
<g id="g3105_1_">
	
		<rect id="rect3713_2_" x="156.01" y="70.701" fill="none" stroke="#000000" stroke-width="3.5433" stroke-linecap="square" width="56.478" height="55.986"/>
	<text transform="matrix(1 0 0 1 164.112 106.4925)" font-family="'TrebuchetMS'" font-size="24">555</text>
	<path id="path3725_3_" sodipodi:nodetypes="cc" fill="none" stroke="#000000" stroke-width="3.5433" stroke-linecap="square" d="
		M212.69,77.418h7.086"/>
	<path id="path3727_3_" sodipodi:nodetypes="cc" fill="none" stroke="#000000" stroke-width="3.5433" stroke-linecap="square" d="
		M212.69,91.59h7.086"/>
	<path id="path3729_3_" sodipodi:nodetypes="cc" fill="none" stroke="#000000" stroke-width="3.5433" stroke-linecap="square" d="
		M212.69,105.764h7.086"/>
	<path id="path3731_3_" sodipodi:nodetypes="cc" fill="none" stroke="#000000" stroke-width="3.5433" stroke-linecap="square" d="
		M212.69,119.936h7.086"/>
	<path id="path3733_3_" sodipodi:nodetypes="cc" fill="none" stroke="#000000" stroke-width="3.5433" stroke-linecap="square" d="
		M148.911,77.418h7.086"/>
	<path id="path3735_3_" sodipodi:nodetypes="cc" fill="none" stroke="#000000" stroke-width="3.5433" stroke-linecap="square" d="
		M148.911,91.59h7.086"/>
	<path id="path3737_3_" sodipodi:nodetypes="cc" fill="none" stroke="#000000" stroke-width="3.5433" stroke-linecap="square" d="
		M148.911,105.764h7.086"/>
	<path id="path3739_3_" sodipodi:nodetypes="cc" fill="none" stroke="#000000" stroke-width="3.5433" stroke-linecap="square" d="
		M148.911,119.936h7.086"/>
	
		<path id="path5341_2_" sodipodi:ry="1.7716535" sodipodi:cy="92.007843" sodipodi:type="arc" sodipodi:rx="1.7716535" sodipodi:cx="265.89667" stroke="#000000" stroke-width="2.6469" stroke-linecap="square" d="
		M166.89,79.684c0,1.311-1.062,2.371-2.373,2.371c-1.31,0-2.371-1.061-2.371-2.371s1.062-2.373,2.371-2.373
		S166.89,78.373,166.89,79.684z"/>
</g>
<g id="g4062_14_" transform="matrix(2,0,0,2,-56.118102,-52.352453)">
	<path id="path3938_14_" sodipodi:nodetypes="cc" fill="none" stroke="#000000" stroke-width="1.7717" d="M154.014,80.557v-9.815"/>
	<path id="path3940_14_" sodipodi:nodetypes="cc" fill="none" stroke="#000000" stroke-width="1.7717" d="M154.014,118.132v-16.315"
		/>
	
		<path id="path3970_14_" sodipodi:nodetypes="cccccccc" fill="none" stroke="#000000" stroke-width="1.7717" stroke-linecap="round" stroke-linejoin="bevel" d="
		M154.014,80.558l3.543,1.772l-7.086,3.543l7.086,3.543l-7.086,3.543l7.086,3.543l-7.086,3.543l3.543,1.771"/>
</g>
<g id="g4062_13_" transform="matrix(2,0,0,2,-56.118102,-52.352453)">
	<path id="path3938_13_" sodipodi:nodetypes="cc" fill="none" stroke="#000000" stroke-width="1.7717" d="M154.014,38.518v-9.315"/>
	<path id="path3940_13_" sodipodi:nodetypes="cc" fill="none" stroke="#000000" stroke-width="1.7717" d="M154.014,72.593V59.778"/>
	
		<path id="path3970_13_" sodipodi:nodetypes="cccccccc" fill="none" stroke="#000000" stroke-width="1.7717" stroke-linecap="round" stroke-linejoin="bevel" d="
		M154.014,38.519l3.543,1.772l-7.086,3.543l7.086,3.543l-7.086,3.543l7.086,3.543l-7.086,3.543l3.543,1.772"/>
</g>
<line fill="none" stroke="#000000" stroke-width="2" x1="251" y1="92" x2="221" y2="92"/>
<path stroke="#000000" stroke-width="2" d="M257.701,91.826c0-2.758-2.238-5-5-5c-2.761,0-5,2.242-5,5c0,2.76,2.239,5,5,5
	C255.463,96.826,257.701,94.586,257.701,91.826z"/>
<path stroke="#000000" stroke-width="2" d="M142.701,183.826c0-2.758-2.238-5-5-5c-2.761,0-5,2.242-5,5c0,2.76,2.239,5,5,5
	C140.463,188.826,142.701,186.586,142.701,183.826z"/>
<path stroke="#000000" stroke-width="2" d="M311.701,550.826c0-2.758-2.238-5-5-5c-2.761,0-5,2.242-5,5c0,2.76,2.239,5,5,5
	C309.463,555.826,311.701,553.586,311.701,550.826z"/>
<path stroke="#000000" stroke-width="2" d="M311.701,363.826c0-2.758-2.238-5-5-5c-2.761,0-5,2.242-5,5c0,2.76,2.239,5,5,5
	C309.463,368.826,311.701,366.586,311.701,363.826z"/>
<path stroke="#000000" stroke-width="2" d="M230.701,183.826c0-2.758-2.238-5-5-5c-2.761,0-5,2.242-5,5c0,2.76,2.239,5,5,5
	C228.463,188.826,230.701,186.586,230.701,183.826z"/>
<path stroke="#000000" stroke-width="2" d="M230.701,6.826c0-2.758-2.238-5-5-5c-2.761,0-5,2.242-5,5c0,2.76,2.239,5,5,5
	C228.463,11.826,230.701,9.586,230.701,6.826z"/>
<path stroke="#000000" stroke-width="2" d="M257.701,6.826c0-2.758-2.238-5-5-5c-2.761,0-5,2.242-5,5c0,2.76,2.239,5,5,5
	C255.463,11.826,257.701,9.586,257.701,6.826z"/>
<path stroke="#000000" stroke-width="2" d="M361.701,6.826c0-2.758-2.238-5-5-5c-2.761,0-5,2.242-5,5c0,2.76,2.239,5,5,5
	C359.463,11.826,361.701,9.586,361.701,6.826z"/>
<path stroke="#000000" stroke-width="2" d="M69.701,6.826c0-2.758-2.238-5-5-5c-2.761,0-5,2.242-5,5c0,2.76,2.239,5,5,5
	C67.463,11.826,69.701,9.586,69.701,6.826z"/>
<path stroke="#000000" stroke-width="2" d="M148.701,6.826c0-2.758-2.238-5-5-5c-2.761,0-5,2.242-5,5c0,2.76,2.239,5,5,5
	C146.463,11.826,148.701,9.586,148.701,6.826z"/>
<path stroke="#000000" stroke-width="2" d="M69.701,76.826c0-2.758-2.238-5-5-5c-2.761,0-5,2.242-5,5c0,2.76,2.239,5,5,5
	C67.463,81.826,69.701,79.586,69.701,76.826z"/>
<g id="g4055_3_" transform="matrix(2,0,0,2,7.7479973,-48.554883)">
	<g id="g2803_3_" transform="translate(-56.01883,133.62338)">
		<path id="path2791_3_" sodipodi:nodetypes="cc" fill="none" stroke="#000000" stroke-width="1.7716" stroke-linecap="square" d="
			M120.645,5.457v-7.086"/>
		<path id="path2793_3_" sodipodi:nodetypes="cc" fill="none" stroke="#000000" stroke-width="1.7716" stroke-linecap="square" d="
			M120.645-5.173V-17.26"/>
	</g>
	<path id="path2795_3_" sodipodi:nodetypes="cc" fill="none" stroke="#000000" stroke-width="1.7716" stroke-linecap="square" d="
		M57.539,131.994h14.173"/>
	<path id="path2797_3_" sodipodi:nodetypes="cc" fill="none" stroke="#000000" stroke-width="1.7716" stroke-linecap="square" d="
		M57.539,128.45h14.173"/>
</g>
<line fill="none" stroke="#000000" stroke-width="2" x1="220" y1="106" x2="226" y2="106"/>
<line fill="none" stroke="#000000" stroke-width="2" x1="226" y1="106" x2="226" y2="184"/>
<line fill="none" stroke="#000000" stroke-width="2" x1="226" y1="184" x2="252" y2="184"/>
<line fill="none" stroke="#000000" stroke-width="2" x1="226" y1="184" x2="137" y2="184"/>
<line fill="none" stroke="#000000" stroke-width="2" x1="137" y1="185" x2="137" y2="91"/>
<line fill="none" stroke="#000000" stroke-width="2" x1="137" y1="92" x2="149" y2="92"/>
<line fill="none" stroke="#000000" stroke-width="2" x1="220" y1="77" x2="226" y2="77"/>
<line fill="none" stroke="#000000" stroke-width="2" x1="226" y1="77" x2="226" y2="6"/>
<line fill="none" stroke="#000000" stroke-width="2" x1="149" y1="77" x2="65" y2="77"/>
<g id="g4055_2_" transform="matrix(2,0,0,2,7.7479973,-48.554883)">
	<g id="g2803_2_" transform="translate(-56.01883,133.62338)">
		<path id="path2791_2_" sodipodi:nodetypes="cc" fill="none" stroke="#000000" stroke-width="1.7716" stroke-linecap="square" d="
			M84.645-62.543v-25.086"/>
		<path id="path2793_2_" sodipodi:nodetypes="cc" fill="none" stroke="#000000" stroke-width="1.7716" stroke-linecap="square" d="
			M84.645-91.173v-15.087"/>
	</g>
	<path id="path2795_2_" sodipodi:nodetypes="cc" fill="none" stroke="#000000" stroke-width="1.7716" stroke-linecap="square" d="
		M21.539,45.994h14.173"/>
	<path id="path2797_2_" sodipodi:nodetypes="cc" fill="none" stroke="#000000" stroke-width="1.7716" stroke-linecap="square" d="
		M21.539,42.45h14.173"/>
</g>
<line fill="none" stroke="#000000" stroke-width="2" x1="149" y1="120" x2="144" y2="120"/>
<line fill="none" stroke="#000000" stroke-width="2" x1="144" y1="121" x2="144" y2="6"/>
<line fill="none" stroke="#000000" stroke-width="2" x1="149" y1="106" x2="123" y2="106"/>
<rect x="59.874" y="183.518" fill="none" width="59.093" height="56.545"/>
<text transform="matrix(1 0 0 1 60.7536 205.6287)"><tspan x="0" y="0" font-family="'TrebuchetMS'" font-size="30">0.22 </tspan><tspan x="26.074" y="30" font-family="'TrebuchetMS'" font-size="30">µF</tspan></text>
<rect x="82.24" y="11.157" fill="none" width="59.093" height="56.545"/>
<text transform="matrix(1 0 0 1 82.2404 33.2679)"><tspan x="0" y="0" font-family="'TrebuchetMS'" font-size="30">0.01 </tspan><tspan x="0" y="30" font-family="'TrebuchetMS'" font-size="30">µF</tspan></text>
<g id="g2396_3_">
	<path id="path3980_3_" sodipodi:nodetypes="cc" fill="none" stroke="#000000" stroke-width="3.5433" stroke-linecap="square" d="
		M157.961,244h-42.52"/>
	<path id="path3984_3_" sodipodi:nodetypes="cc" fill="none" stroke="#000000" stroke-width="3.5433" d="M136.701,229.826V244"/>
	<path id="path3994_3_" sodipodi:nodetypes="cc" fill="none" stroke="#000000" stroke-width="3.5433" stroke-linecap="square" d="
		M150.873,251.088h-28.346"/>
	<path id="path3996_3_" sodipodi:nodetypes="cc" fill="none" stroke="#000000" stroke-width="3.5433" stroke-linecap="square" d="
		M143.787,258.174h-14.174"/>
</g>
<g id="g2396_4_">
	<path id="path3980_4_" sodipodi:nodetypes="cc" fill="none" stroke="#000000" stroke-width="3.5433" stroke-linecap="square" d="
		M86.259,108H43.74"/>
	<path id="path3984_4_" sodipodi:nodetypes="cc" fill="none" stroke="#000000" stroke-width="3.5433" d="M65,93.826V108"/>
	<path id="path3994_4_" sodipodi:nodetypes="cc" fill="none" stroke="#000000" stroke-width="3.5433" stroke-linecap="square" d="
		M79.172,115.088H50.826"/>
	<path id="path3996_4_" sodipodi:nodetypes="cc" fill="none" stroke="#000000" stroke-width="3.5433" stroke-linecap="square" d="
		M72.086,122.174H57.912"/>
</g>
<line fill="none" stroke="#000000" stroke-width="2" x1="84" y1="273" x2="24" y2="273"/>
<line fill="none" stroke="#000000" stroke-width="2" x1="24" y1="273" x2="24" y2="6"/>
<line fill="none" stroke="#000000" stroke-width="2" x1="123" y1="106" x2="123" y2="165"/>
<line fill="none" stroke="#000000" stroke-width="2" x1="123" y1="165" x2="298" y2="165"/>
<rect x="261.004" y="19.793" fill="none" width="95.759" height="24"/>
<text transform="matrix(1 0 0 1 261.0036 41.9031)" font-family="'TrebuchetMS'" font-size="30">180 kΩ</text>
<line fill="none" stroke="#754C24" stroke-width="10" x1="286" y1="47" x2="286" y2="72"/>
<line fill="none" stroke="#B3B3B3" stroke-width="10" x1="298" y1="47" x2="298" y2="72"/>
<line fill="none" stroke="#FFFF00" stroke-width="10" x1="310" y1="47" x2="310" y2="72"/>
<line fill="none" stroke="#FBC926" stroke-width="10" x1="321" y1="47" x2="321" y2="72"/>
<rect x="261.004" y="101.793" fill="none" width="93.718" height="24"/>
<text transform="matrix(1 0 0 1 261.0036 123.9031)" font-family="'TrebuchetMS'" font-size="30">180 kΩ</text>
<line fill="none" stroke="#754C24" stroke-width="10" x1="286" y1="129" x2="286" y2="154"/>
<line fill="none" stroke="#B3B3B3" stroke-width="10" x1="298" y1="129" x2="298" y2="154"/>
<line fill="none" stroke="#FFFF00" stroke-width="10" x1="310" y1="129" x2="310" y2="154"/>
<line fill="none" stroke="#FBC926" stroke-width="10" x1="321" y1="129" x2="321" y2="154"/>
<line fill="none" stroke="#000000" stroke-width="2" x1="498" y1="318" x2="506" y2="318"/>
<line fill="none" stroke="#000000" stroke-width="2" x1="506" y1="318" x2="506" y2="6"/>
<line fill="none" stroke="#000000" stroke-width="2" x1="427" y1="403" x2="419" y2="403"/>
<line fill="none" stroke="#000000" stroke-width="2" x1="419" y1="403" x2="419" y2="551"/>
<line fill="none" stroke="#000000" stroke-width="2" x1="498" y1="360" x2="537" y2="360"/>
<line fill="none" stroke="#000000" stroke-width="2" x1="537" y1="360" x2="537" y2="453"/>
<line fill="none" stroke="#000000" stroke-width="2" x1="537" y1="453" x2="600" y2="453"/>
<line fill="none" stroke="#000000" stroke-width="2" x1="498" y1="403" x2="600" y2="403"/>
<line fill="none" stroke="#000000" stroke-width="2" x1="360" y1="389" x2="360" y2="296"/>
<line fill="none" stroke="#000000" stroke-width="2" x1="360" y1="296" x2="555" y2="296"/>
<line fill="none" stroke="#000000" stroke-width="2" x1="555" y1="296" x2="555" y2="353"/>
<line fill="none" stroke="#000000" stroke-width="2" x1="555" y1="353" x2="600" y2="353"/>
<line fill="none" stroke="#000000" stroke-width="2" x1="427" y1="389" x2="360" y2="389"/>
<line fill="none" stroke="#000000" stroke-width="2" x1="427" y1="346" x2="367" y2="346"/>
<line fill="none" stroke="#000000" stroke-width="2" x1="367" y1="346" x2="367" y2="303"/>
<line fill="none" stroke="#000000" stroke-width="2" x1="600" y1="303" x2="367" y2="303"/>
<line fill="none" stroke="#000000" stroke-width="2" x1="216" y1="350" x2="164" y2="350"/>
<line fill="none" stroke="#000000" stroke-width="2" x1="600" y1="253" x2="164" y2="253"/>
<line fill="none" stroke="#000000" stroke-width="2" x1="164" y1="350" x2="164" y2="253"/>
<line fill="none" stroke="#000000" stroke-width="2" x1="216" y1="336" x2="176" y2="336"/>
<line fill="none" stroke="#000000" stroke-width="2" x1="176" y1="336" x2="176" y2="262"/>
<line fill="none" stroke="#000000" stroke-width="2" x1="176" y1="262" x2="411" y2="262"/>
<line fill="none" stroke="#000000" stroke-width="2" x1="411" y1="262" x2="411" y2="318"/>
<line fill="none" stroke="#000000" stroke-width="2" x1="411" y1="318" x2="427" y2="318"/>
<line fill="none" stroke="#000000" stroke-width="2" x1="216" y1="321" x2="189" y2="321"/>
<line fill="none" stroke="#000000" stroke-width="2" x1="189" y1="321" x2="189" y2="278"/>
<line fill="none" stroke="#000000" stroke-width="2" x1="189" y1="278" x2="581" y2="278"/>
<line fill="none" stroke="#000000" stroke-width="2" x1="581" y1="278" x2="581" y2="503"/>
<line fill="none" stroke="#000000" stroke-width="2" x1="581" y1="503" x2="600" y2="503"/>
<line fill="none" stroke="#000000" stroke-width="2" x1="216" y1="364" x2="201" y2="364"/>
<line fill="none" stroke="#000000" stroke-width="2" x1="201" y1="364" x2="201" y2="292"/>
<line fill="none" stroke="#000000" stroke-width="2" x1="201" y1="292" x2="327" y2="292"/>
<line fill="none" stroke="#000000" stroke-width="2" x1="327" y1="292" x2="327" y2="360"/>
<line fill="none" stroke="#000000" stroke-width="2" x1="327" y1="360" x2="427" y2="360"/>
<line fill="none" stroke="#000000" stroke-width="2" x1="216" y1="407" x2="178" y2="407"/>
<line fill="none" stroke="#000000" stroke-width="2" x1="498" y1="389" x2="510" y2="389"/>
<line fill="none" stroke="#000000" stroke-width="2" x1="510" y1="389" x2="510" y2="453"/>
<line fill="none" stroke="#000000" stroke-width="2" x1="510" y1="453" x2="178" y2="453"/>
<line fill="none" stroke="#000000" stroke-width="2" x1="178" y1="453" x2="178" y2="407"/>
<line fill="none" stroke="#000000" stroke-width="2" x1="287" y1="407" x2="336" y2="407"/>
<line fill="none" stroke="#000000" stroke-width="2" x1="336" y1="407" x2="336" y2="429"/>
<line fill="none" stroke="#000000" stroke-width="2" x1="336" y1="429" x2="545" y2="429"/>
<line fill="none" stroke="#000000" stroke-width="2" x1="545" y1="429" x2="545" y2="346"/>
<line fill="none" stroke="#000000" stroke-width="2" x1="545" y1="346" x2="498" y2="346"/>
<line fill="none" stroke="#000000" stroke-width="2" x1="356" y1="184" x2="310" y2="184"/>
<line fill="none" stroke="#000000" stroke-width="2" x1="310" y1="184" x2="310" y2="321"/>
<line fill="none" stroke="#000000" stroke-width="2" x1="154" y1="378" x2="154" y2="475"/>
<line fill="none" stroke="#000000" stroke-width="2" x1="154" y1="475" x2="528" y2="475"/>
<line fill="none" stroke="#000000" stroke-width="2" x1="528" y1="475" x2="528" y2="332"/>
<line fill="none" stroke="#000000" stroke-width="2" x1="528" y1="332" x2="498" y2="332"/>
<line fill="none" stroke="#000000" stroke-width="2" x1="216" y1="378" x2="154" y2="378"/>
<line fill="none" stroke="#000000" stroke-width="2" x1="216" y1="393" x2="166" y2="393"/>
<line fill="none" stroke="#000000" stroke-width="2" x1="166" y1="393" x2="166" y2="464"/>
<line fill="none" stroke="#000000" stroke-width="2" x1="166" y1="464" x2="519" y2="464"/>
<line fill="none" stroke="#000000" stroke-width="2" x1="519" y1="464" x2="519" y2="375"/>
<line fill="none" stroke="#000000" stroke-width="2" x1="519" y1="375" x2="498" y2="375"/>
<line fill="none" stroke="#000000" stroke-width="2" x1="287" y1="393" x2="347" y2="393"/>
<line fill="none" stroke="#000000" stroke-width="2" x1="347" y1="393" x2="347" y2="415"/>
<line fill="none" stroke="#000000" stroke-width="2" x1="347" y1="415" x2="387" y2="415"/>
<line fill="none" stroke="#000000" stroke-width="2" x1="387" y1="415" x2="387" y2="332"/>
<line fill="none" stroke="#000000" stroke-width="2" x1="387" y1="332" x2="427" y2="332"/>
<line fill="none" stroke="#000000" stroke-width="2" x1="287" y1="421" x2="321" y2="421"/>
<line fill="none" stroke="#000000" stroke-width="2" x1="321" y1="421" x2="321" y2="439"/>
<line fill="none" stroke="#000000" stroke-width="2" x1="321" y1="439" x2="395" y2="439"/>
<line fill="none" stroke="#000000" stroke-width="2" x1="395" y1="439" x2="395" y2="375"/>
<line fill="none" stroke="#000000" stroke-width="2" x1="395" y1="375" x2="427" y2="375"/>
<line fill="none" stroke="#000000" stroke-width="2" x1="287" y1="336" x2="307" y2="336"/>
<line fill="none" stroke="#000000" stroke-width="2" x1="307" y1="336" x2="307" y2="551"/>
<line fill="none" stroke="#000000" stroke-width="2" x1="287" y1="364" x2="307" y2="364"/>
</svg>
