<?xml version="1.0" encoding="utf-8"?>
<!-- Generator: Adobe Illustrator 15.1.0, SVG Export Plug-In . SVG Version: 6.00 Build 0)  -->
<!DOCTYPE svg PUBLIC "-//W3C//DTD SVG 1.1//EN" "http://www.w3.org/Graphics/SVG/1.1/DTD/svg11.dtd">
<svg version="1.1" id="Layer_1" xmlns="http://www.w3.org/2000/svg" xmlns:xlink="http://www.w3.org/1999/xlink" xmlns:inkscape="http://www.inkscape.org/namespaces/inkscape" xmlns:sodipodi="http://sodipodi.sourceforge.net/DTD/sodipodi-0.dtd" x="0px" y="0px"
	 width="800px" height="600px" viewBox="0 0 800 600" enable-background="new 0 0 800 600" xml:space="preserve">
<g id="g2428">
	<g id="g2550" transform="matrix(1.414214,1.414214,-1.414214,1.414214,166.7453,-193.52775)">
		<path id="path2542" fill="none" stroke="#000000" d="M294.204,72.889l-7.086,0"/>
		<path id="path2548" fill="none" stroke="#000000" d="M290.661,71.589l3.543,1.3l-3.543,1.215"/>
	</g>
	<g id="g2554" transform="matrix(1.414214,1.414214,-1.414214,1.414214,175.9325,-193.52775)">
		<path id="path2556" fill="none" stroke="#000000" d="M294.204,79.386l-7.086,0"/>
		<path id="path2558" fill="none" stroke="#000000" d="M290.661,78.085l3.543,1.3l-3.543,1.215"/>
	</g>
	<path id="path6801" sodipodi:nodetypes="cc" fill="none" stroke="#000000" stroke-width="3.544" stroke-linecap="square" d="
		M456.701,285.204v21.259"/>
	<path id="path6803" sodipodi:nodetypes="cc" fill="none" stroke="#000000" stroke-width="3.5433" stroke-linecap="square" d="
		M456.701,334.809v14.174"/>
	<path id="path6805" sodipodi:nodetypes="cccc" fill="none" stroke="#000000" stroke-width="3.5433" stroke-linecap="square" d="
		M456.701,334.809l-14.174-28.346h28.347L456.701,334.809z"/>
	<path id="path6807" sodipodi:nodetypes="cc" fill="none" stroke="#000000" stroke-width="3.5433" stroke-linecap="square" d="
		M470.874,334.809h-28.347"/>
</g>
<g id="g2402">
	<path id="path1315" sodipodi:nodetypes="cc" fill="none" stroke="#000000" stroke-width="3.5433" stroke-linecap="square" d="
		M390.961,267.967h-56.693"/>
	<path id="path1317" sodipodi:nodetypes="cc" fill="none" stroke="#000000" stroke-width="7.0866" stroke-linecap="square" d="
		M376.787,276.826h-28.346"/>
	<path id="path2220" sodipodi:nodetypes="cc" fill="none" stroke="#000000" stroke-width="3.5433" d="M362.614,255.566v14.174"/>
	<path id="path2222" sodipodi:nodetypes="cc" fill="none" stroke="#000000" stroke-width="3.5433" stroke-linecap="square" d="
		M362.614,276.826v14.172"/>
	<g id="g3965" transform="matrix(2,0,0,2,-258.79112,-56.482983)">
		<path id="path3967" sodipodi:nodetypes="cc" fill="none" stroke="#000000" d="M324.876,156.025h-7.087"/>
		<path id="path3969" sodipodi:nodetypes="cc" fill="none" stroke="#000000" d="M321.333,159.568v-7.087"/>
	</g>
</g>
<g id="g4062" transform="matrix(2,0,0,2,-56.118102,-52.352453)">
	<path id="path3938" sodipodi:nodetypes="cc" fill="none" stroke="#000000" stroke-width="1.7716" d="M256.41,147.713v5.315"/>
	<path id="path3940" sodipodi:nodetypes="cc" fill="none" stroke="#000000" stroke-width="1.7716" d="M256.41,121.139v5.315"/>
	
		<path id="path3970" sodipodi:nodetypes="cccccccc" fill="none" stroke="#000000" stroke-width="1.7716" stroke-linecap="round" stroke-linejoin="bevel" d="
		M256.41,147.713l-3.543-1.771l7.086-3.543l-7.086-3.543l7.086-3.543l-7.086-3.543l7.086-3.544l-3.543-1.771"/>
</g>
<line fill="none" stroke="#000000" stroke-width="2" x1="363" y1="256" x2="363" y2="164"/>
<line fill="none" stroke="#000000" stroke-width="2" x1="457" y1="254" x2="457" y2="285"/>
<line fill="none" stroke="#000000" stroke-width="2" x1="363" y1="165" x2="457" y2="165"/>
<line fill="none" stroke="#000000" stroke-width="2" x1="457" y1="165" x2="457" y2="190"/>
<line fill="none" stroke="#000000" stroke-width="2" x1="457" y1="349" x2="457" y2="407"/>
<line fill="none" stroke="#000000" stroke-width="2" x1="457" y1="378" x2="363" y2="378"/>
<line fill="none" stroke="#000000" stroke-width="2" x1="362.701" y1="377.826" x2="362.614" y2="290.998"/>
<path stroke="#000000" stroke-width="2" d="M461.701,377.826c0-2.758-2.238-5-5-5c-2.761,0-5,2.242-5,5c0,2.76,2.239,5,5,5
	C459.463,382.826,461.701,380.586,461.701,377.826z"/>
<g id="g2396">
	<path id="path3980" sodipodi:nodetypes="cc" fill="none" stroke="#000000" stroke-width="3.5433" stroke-linecap="square" d="
		M477.961,421h-42.52"/>
	<path id="path3984" sodipodi:nodetypes="cc" fill="none" stroke="#000000" stroke-width="3.5433" d="M456.701,406.826V421"/>
	<path id="path3994" sodipodi:nodetypes="cc" fill="none" stroke="#000000" stroke-width="3.5433" stroke-linecap="square" d="
		M470.873,428.088h-28.346"/>
	<path id="path3996" sodipodi:nodetypes="cc" fill="none" stroke="#000000" stroke-width="3.5433" stroke-linecap="square" d="
		M463.787,435.174h-14.174"/>
</g>
<rect x="277" y="259" fill="none" width="46" height="24"/>
<text transform="matrix(1 0 0 1 280.6074 281.1104)" font-family="'TrebuchetMS'" font-size="30">6 V</text>
<rect x="473.004" y="207.793" fill="none" width="91" height="24"/>
<text transform="matrix(1 0 0 1 473.0039 229.9029)" font-family="'TrebuchetMS'" font-size="30">220 Ω</text>
<line fill="none" stroke="#FF0000" stroke-width="10" x1="568" y1="205" x2="568" y2="230"/>
<line fill="none" stroke="#FF0000" stroke-width="10" x1="580" y1="205" x2="580" y2="230"/>
<line fill="none" stroke="#754C24" stroke-width="10" x1="592" y1="205" x2="592" y2="230"/>
<line fill="none" stroke="#FBC926" stroke-width="10" x1="603" y1="205" x2="603" y2="230"/>
</svg>
