<?xml version="1.0" encoding="utf-8"?>
<!-- Generator: Adobe Illustrator 15.1.0, SVG Export Plug-In . SVG Version: 6.00 Build 0)  -->
<!DOCTYPE svg PUBLIC "-//W3C//DTD SVG 1.1//EN" "http://www.w3.org/Graphics/SVG/1.1/DTD/svg11.dtd">
<svg version="1.1" id="Layer_1" xmlns="http://www.w3.org/2000/svg" xmlns:xlink="http://www.w3.org/1999/xlink" xmlns:inkscape="http://www.inkscape.org/namespaces/inkscape" xmlns:sodipodi="http://sodipodi.sourceforge.net/DTD/sodipodi-0.dtd" x="0px" y="0px"
	 width="800px" height="600px" viewBox="0 0 800 600" enable-background="new 0 0 800 600" xml:space="preserve">
<g id="g3105">
	
		<rect id="rect3713" x="304.011" y="271.702" fill="none" stroke="#000000" stroke-width="3.5433" stroke-linecap="square" width="56.478" height="55.986"/>
	<text transform="matrix(1 0 0 1 312.1123 307.4922)" font-family="'TrebuchetMS'" font-size="24">555</text>
	<path id="path3725" sodipodi:nodetypes="cc" fill="none" stroke="#000000" stroke-width="3.5433" stroke-linecap="square" d="
		M360.69,278.417h7.086"/>
	<path id="path3727" sodipodi:nodetypes="cc" fill="none" stroke="#000000" stroke-width="3.5433" stroke-linecap="square" d="
		M360.69,292.59h7.086"/>
	<path id="path3729" sodipodi:nodetypes="cc" fill="none" stroke="#000000" stroke-width="3.5433" stroke-linecap="square" d="
		M360.69,306.764h7.086"/>
	<path id="path3731" sodipodi:nodetypes="cc" fill="none" stroke="#000000" stroke-width="3.5433" stroke-linecap="square" d="
		M360.69,320.936h7.086"/>
	<path id="path3733" sodipodi:nodetypes="cc" fill="none" stroke="#000000" stroke-width="3.5433" stroke-linecap="square" d="
		M296.911,278.417h7.086"/>
	<path id="path3735" sodipodi:nodetypes="cc" fill="none" stroke="#000000" stroke-width="3.5433" stroke-linecap="square" d="
		M296.911,292.59h7.086"/>
	<path id="path3737" sodipodi:nodetypes="cc" fill="none" stroke="#000000" stroke-width="3.5433" stroke-linecap="square" d="
		M296.911,306.764h7.086"/>
	<path id="path3739" sodipodi:nodetypes="cc" fill="none" stroke="#000000" stroke-width="3.5433" stroke-linecap="square" d="
		M296.911,320.936h7.086"/>
	
		<path id="path5341" sodipodi:ry="1.7716535" sodipodi:cy="92.007843" sodipodi:type="arc" sodipodi:rx="1.7716535" sodipodi:cx="265.89667" stroke="#000000" stroke-width="2.6469" stroke-linecap="square" d="
		M314.891,280.683c0,1.311-1.062,2.372-2.373,2.372c-1.31,0-2.371-1.062-2.371-2.372c0-1.31,1.062-2.372,2.371-2.372
		S314.891,279.374,314.891,280.683z"/>
</g>
<g id="g4062" transform="matrix(2,0,0,2,-56.118102,-52.352453)">
	<path id="path3938" sodipodi:nodetypes="cc" fill="none" stroke="#000000" stroke-width="1.7717" d="M243.015,181.057v-9.815"/>
	<path id="path3940" sodipodi:nodetypes="cc" fill="none" stroke="#000000" stroke-width="1.7717" d="M243.015,207.632v-5.315"/>
	
		<path id="path3970" sodipodi:nodetypes="cccccccc" fill="none" stroke="#000000" stroke-width="1.7717" stroke-linecap="round" stroke-linejoin="bevel" d="
		M243.015,181.058l3.543,1.772l-7.086,3.543l7.086,3.543l-7.086,3.543l7.086,3.543l-7.086,3.543l3.543,1.771"/>
</g>
<g id="g4062_1_" transform="matrix(2,0,0,2,-56.118102,-52.352453)">
	<path id="path3938_1_" sodipodi:nodetypes="cc" fill="none" stroke="#000000" stroke-width="1.7717" d="M243.015,142.018v-5.315"/>
	<path id="path3940_1_" sodipodi:nodetypes="cc" fill="none" stroke="#000000" stroke-width="1.7717" d="M243.015,173.093v-9.815"/>
	
		<path id="path3970_1_" sodipodi:nodetypes="cccccccc" fill="none" stroke="#000000" stroke-width="1.7717" stroke-linecap="round" stroke-linejoin="bevel" d="
		M243.015,142.019l3.543,1.772l-7.086,3.543l7.086,3.543l-7.086,3.543l7.086,3.543l-7.086,3.543l3.543,1.772"/>
</g>
<line fill="none" stroke="#000000" stroke-width="2" x1="429" y1="293" x2="369" y2="293"/>
<path stroke="#000000" stroke-width="2" d="M435.701,292.826c0-2.758-2.238-5-5-5c-2.761,0-5,2.242-5,5c0,2.76,2.239,5,5,5
	C433.463,297.826,435.701,295.586,435.701,292.826z"/>
<path stroke="#000000" stroke-width="2" d="M435.701,372.826c0-2.758-2.238-5-5-5c-2.761,0-5,2.242-5,5c0,2.76,2.239,5,5,5
	C433.463,377.826,435.701,375.586,435.701,372.826z"/>
<path stroke="#000000" stroke-width="2" d="M408.701,372.826c0-2.758-2.238-5-5-5c-2.761,0-5,2.242-5,5c0,2.76,2.239,5,5,5
	C406.463,377.826,408.701,375.586,408.701,372.826z"/>
<path stroke="#000000" stroke-width="2" d="M408.701,221.826c0-2.758-2.238-5-5-5c-2.761,0-5,2.242-5,5c0,2.76,2.239,5,5,5
	C406.463,226.826,408.701,224.586,408.701,221.826z"/>
<path stroke="#000000" stroke-width="2" d="M158.701,221.826c0-2.758-2.238-5-5-5c-2.761,0-5,2.242-5,5c0,2.76,2.239,5,5,5
	C156.463,226.826,158.701,224.586,158.701,221.826z"/>
<path stroke="#000000" stroke-width="2" d="M287.701,221.826c0-2.758-2.238-5-5-5c-2.761,0-5,2.242-5,5c0,2.76,2.239,5,5,5
	C285.463,226.826,287.701,224.586,287.701,221.826z"/>
<path stroke="#000000" stroke-width="2" d="M158.701,277.826c0-2.758-2.238-5-5-5c-2.761,0-5,2.242-5,5c0,2.76,2.239,5,5,5
	C156.463,282.826,158.701,280.586,158.701,277.826z"/>
<g id="g4055" transform="matrix(2,0,0,2,7.7479973,-48.554883)">
	<g id="g2803" transform="translate(-56.01883,133.62338)">
		<path id="path2791" sodipodi:nodetypes="cc" fill="none" stroke="#000000" stroke-width="1.7716" stroke-linecap="square" d="
			M267.145,99.957V92.87"/>
		<path id="path2793" sodipodi:nodetypes="cc" fill="none" stroke="#000000" stroke-width="1.7716" stroke-linecap="square" d="
			M267.145,89.327V72.24"/>
	</g>
	<path id="path2795" sodipodi:nodetypes="cc" fill="none" stroke="#000000" stroke-width="1.7716" stroke-linecap="square" d="
		M204.039,226.494h14.173"/>
	<path id="path2797" sodipodi:nodetypes="cc" fill="none" stroke="#000000" stroke-width="1.7716" stroke-linecap="square" d="
		M204.039,222.95h14.173"/>
</g>
<g id="g2396">
	<path id="path3980" sodipodi:nodetypes="cc" fill="none" stroke="#000000" stroke-width="3.5433" stroke-linecap="square" d="
		M451.26,433.174h-42.52"/>
	<path id="path3984" sodipodi:nodetypes="cc" fill="none" stroke="#000000" stroke-width="3.5433" d="M430,419v14.174"/>
	<path id="path3994" sodipodi:nodetypes="cc" fill="none" stroke="#000000" stroke-width="3.5433" stroke-linecap="square" d="
		M444.172,440.262h-28.346"/>
	<path id="path3996" sodipodi:nodetypes="cc" fill="none" stroke="#000000" stroke-width="3.5433" stroke-linecap="square" d="
		M437.086,447.348h-14.174"/>
</g>
<g id="g2396_2_">
	<path id="path3980_2_" sodipodi:nodetypes="cc" fill="none" stroke="#000000" stroke-width="3.5433" stroke-linecap="square" d="
		M151.26,467.518h-42.52"/>
	<path id="path3984_2_" sodipodi:nodetypes="cc" fill="none" stroke="#000000" stroke-width="3.5433" d="M130,453.344v14.174"/>
	<path id="path3994_2_" sodipodi:nodetypes="cc" fill="none" stroke="#000000" stroke-width="3.5433" stroke-linecap="square" d="
		M144.172,474.605h-28.346"/>
	<path id="path3996_2_" sodipodi:nodetypes="cc" fill="none" stroke="#000000" stroke-width="3.5433" stroke-linecap="square" d="
		M137.086,481.691h-14.174"/>
</g>
<g id="g2396_1_">
	<path id="path3980_1_" sodipodi:nodetypes="cc" fill="none" stroke="#000000" stroke-width="3.5433" stroke-linecap="square" d="
		M115.26,303.833H72.74"/>
	<path id="path3984_1_" sodipodi:nodetypes="cc" fill="none" stroke="#000000" stroke-width="3.5433" d="M94,289.659v14.174"/>
	<path id="path3994_1_" sodipodi:nodetypes="cc" fill="none" stroke="#000000" stroke-width="3.5433" stroke-linecap="square" d="
		M108.172,310.921H79.826"/>
	<path id="path3996_1_" sodipodi:nodetypes="cc" fill="none" stroke="#000000" stroke-width="3.5433" stroke-linecap="square" d="
		M101.086,318.007H86.912"/>
</g>
<line fill="none" stroke="#000000" stroke-width="2" x1="368" y1="307" x2="404" y2="307"/>
<line fill="none" stroke="#000000" stroke-width="2" x1="404" y1="307" x2="404" y2="373"/>
<line fill="none" stroke="#000000" stroke-width="2" x1="404" y1="373" x2="430" y2="373"/>
<line fill="none" stroke="#000000" stroke-width="2" x1="404" y1="373" x2="269" y2="373"/>
<line fill="none" stroke="#000000" stroke-width="2" x1="269" y1="374" x2="269" y2="292"/>
<line fill="none" stroke="#000000" stroke-width="2" x1="269" y1="293" x2="297" y2="293"/>
<line fill="none" stroke="#000000" stroke-width="2" x1="368" y1="278" x2="404" y2="278"/>
<line fill="none" stroke="#000000" stroke-width="2" x1="404" y1="278" x2="404" y2="221"/>
<line fill="none" stroke="#000000" stroke-width="2" x1="94" y1="221" x2="430" y2="221"/>
<line fill="none" stroke="#000000" stroke-width="2" x1="297" y1="278" x2="94" y2="278"/>
<g id="g4055_1_" transform="matrix(2,0,0,2,7.7479973,-48.554883)">
	<g id="g2803_1_" transform="translate(-56.01883,133.62338)">
		<path id="path2791_1_" sodipodi:nodetypes="cc" fill="none" stroke="#000000" stroke-width="1.7716" stroke-linecap="square" d="
			M129.145,29.457V17.87"/>
		<path id="path2793_1_" sodipodi:nodetypes="cc" fill="none" stroke="#000000" stroke-width="1.7716" stroke-linecap="square" d="
			M129.145,14.327V1.24"/>
	</g>
	<path id="path2795_1_" sodipodi:nodetypes="cc" fill="none" stroke="#000000" stroke-width="1.7716" stroke-linecap="square" d="
		M66.039,151.494h14.173"/>
	<path id="path2797_1_" sodipodi:nodetypes="cc" fill="none" stroke="#000000" stroke-width="1.7716" stroke-linecap="square" d="
		M66.039,147.95h14.173"/>
</g>
<line fill="none" stroke="#000000" stroke-width="2" x1="297" y1="321" x2="283" y2="321"/>
<line fill="none" stroke="#000000" stroke-width="2" x1="283" y1="322" x2="283" y2="221"/>
<line fill="none" stroke="#000000" stroke-width="2" x1="297" y1="307" x2="130" y2="307"/>
<g id="g2402">
	<path id="path1315" sodipodi:nodetypes="cc" fill="none" stroke="#000000" stroke-width="3.5433" stroke-linecap="square" d="
		M122.347,244.115H65.653"/>
	<path id="path1317" sodipodi:nodetypes="cc" fill="none" stroke="#000000" stroke-width="7.0866" stroke-linecap="square" d="
		M108.173,252.975H79.827"/>
	<path id="path2220" sodipodi:nodetypes="cc" fill="none" stroke="#000000" stroke-width="3.5433" d="M94,231.715v14.174"/>
	<path id="path2222" sodipodi:nodetypes="cc" fill="none" stroke="#000000" stroke-width="3.5433" stroke-linecap="square" d="
		M94,252.975v14.172"/>
	<g id="g3965" transform="matrix(2,0,0,2,-258.79112,-56.482983)">
		<path id="path3967" sodipodi:nodetypes="cc" fill="none" stroke="#000000" d="M190.569,144.099h-7.087"/>
		<path id="path3969" sodipodi:nodetypes="cc" fill="none" stroke="#000000" d="M187.025,147.642v-7.087"/>
	</g>
</g>
<rect x="8.386" y="235.148" fill="none" width="46" height="24"/>
<text transform="matrix(1 0 0 1 11.9932 257.2588)" font-family="'TrebuchetMS'" font-size="30">6 V</text>
<line fill="none" stroke="#000000" stroke-width="2" x1="94" y1="221" x2="94" y2="232"/>
<line fill="none" stroke="#000000" stroke-width="2" x1="94" y1="268" x2="94" y2="291"/>
<path stroke="#000000" stroke-width="2" d="M98.701,277.826c0-2.758-2.238-5-5-5c-2.761,0-5,2.242-5,5c0,2.76,2.239,5,5,5
	C96.463,282.826,98.701,280.586,98.701,277.826z"/>
<rect x="447.004" y="240.793" fill="none" width="74" height="24"/>
<text transform="matrix(1 0 0 1 447.0039 262.9028)" font-family="'TrebuchetMS'" font-size="30">1 MΩ</text>
<line fill="none" stroke="#754C24" stroke-width="10" x1="525" y1="238" x2="525" y2="263"/>
<line fill="none" stroke="#000000" stroke-width="10" x1="537" y1="238" x2="537" y2="263"/>
<line fill="none" stroke="#39B54A" stroke-width="10" x1="549" y1="238" x2="549" y2="263"/>
<line fill="none" stroke="#FBC926" stroke-width="10" x1="560" y1="238" x2="560" y2="263"/>
<rect x="447.004" y="319.793" fill="none" width="74" height="24"/>
<text transform="matrix(1 0 0 1 447.0039 341.9023)" font-family="'TrebuchetMS'" font-size="30">2 MΩ</text>
<line fill="none" stroke="#FF0000" stroke-width="10" x1="525" y1="317" x2="525" y2="342"/>
<line fill="none" stroke="#000000" stroke-width="10" x1="537" y1="317" x2="537" y2="342"/>
<line fill="none" stroke="#39B54A" stroke-width="10" x1="549" y1="317" x2="549" y2="342"/>
<line fill="none" stroke="#FBC926" stroke-width="10" x1="560" y1="317" x2="560" y2="342"/>
<g id="g4062_2_" transform="matrix(2,0,0,2,-56.118102,-52.352453)">
	<path id="path3938_2_" sodipodi:nodetypes="cc" fill="none" stroke="#000000" stroke-width="1.7717" d="M93.059,185.693v-6.315"/>
	<path id="path3940_2_" sodipodi:nodetypes="cc" fill="none" stroke="#000000" stroke-width="1.7717" d="M93.059,212.268v-5.315"/>
	
		<path id="path3970_2_" sodipodi:nodetypes="cccccccc" fill="none" stroke="#000000" stroke-width="1.7717" stroke-linecap="round" stroke-linejoin="bevel" d="
		M93.059,185.694l3.543,1.772l-7.086,3.543l7.086,3.543l-7.086,3.543l7.086,3.543l-7.086,3.543l3.543,1.771"/>
</g>
<rect x="140.004" y="330.793" fill="none" width="78.667" height="24"/>
<text transform="matrix(1 0 0 1 140.0039 352.9023)" font-family="'TrebuchetMS'" font-size="30">150 Ω</text>
<line fill="none" stroke="#754C24" stroke-width="10" x1="223" y1="328" x2="223" y2="353"/>
<line fill="none" stroke="#39B54A" stroke-width="10" x1="235" y1="328" x2="235" y2="353"/>
<line fill="none" stroke="#754C24" stroke-width="10" x1="247" y1="328" x2="247" y2="353"/>
<line fill="none" stroke="#FBC926" stroke-width="10" x1="258" y1="328" x2="258" y2="353"/>
<rect x="452.26" y="387.518" fill="none" width="103.041" height="24"/>
<text transform="matrix(1 0 0 1 452.2598 409.6289)" font-family="'TrebuchetMS'" font-size="30">0.22 µF</text>
<rect x="175.5" y="240.793" fill="none" width="102.741" height="24"/>
<text transform="matrix(1 0 0 1 175.5 262.9038)" font-family="'TrebuchetMS'" font-size="30">0.01 µF</text>
<g id="g2428">
	<g id="g2550" transform="matrix(1.414214,1.414214,-1.414214,1.414214,166.7453,-193.52775)">
		<path id="path2542" fill="none" stroke="#000000" d="M209.736,219.128h-7.086"/>
		<path id="path2548" fill="none" stroke="#000000" d="M206.193,217.827l3.542,1.3l-3.542,1.215"/>
	</g>
	<g id="g2554" transform="matrix(1.414214,1.414214,-1.414214,1.414214,175.9325,-193.52775)">
		<path id="path2556" fill="none" stroke="#000000" d="M209.736,225.624l-7.086,0"/>
		<path id="path2558" fill="none" stroke="#000000" d="M206.193,224.322l3.543,1.3l-3.543,1.215"/>
	</g>
	<path id="path6801" sodipodi:nodetypes="cc" fill="none" stroke="#000000" stroke-width="3.544" stroke-linecap="square" d="
		M130.432,372.559v21.26"/>
	<path id="path6803" sodipodi:nodetypes="cc" fill="none" stroke="#000000" stroke-width="3.5433" stroke-linecap="square" d="
		M130.432,422.162v14.176"/>
	<path id="path6805" sodipodi:nodetypes="cccc" fill="none" stroke="#000000" stroke-width="3.5433" stroke-linecap="square" d="
		M130.432,422.162l-14.172-28.346h28.346L130.432,422.162z"/>
	<path id="path6807" sodipodi:nodetypes="cc" fill="none" stroke="#000000" stroke-width="3.5433" stroke-linecap="square" d="
		M144.605,422.162H116.26"/>
</g>
<line fill="none" stroke="#000000" stroke-width="2" x1="130" y1="454" x2="130" y2="437"/>
</svg>
