<?xml version="1.0" encoding="utf-8"?>
<!-- Generator: Adobe Illustrator 15.1.0, SVG Export Plug-In . SVG Version: 6.00 Build 0)  -->
<!DOCTYPE svg PUBLIC "-//W3C//DTD SVG 1.1//EN" "http://www.w3.org/Graphics/SVG/1.1/DTD/svg11.dtd">
<svg version="1.1" id="Layer_1" xmlns="http://www.w3.org/2000/svg" xmlns:xlink="http://www.w3.org/1999/xlink" xmlns:inkscape="http://www.inkscape.org/namespaces/inkscape" xmlns:sodipodi="http://sodipodi.sourceforge.net/DTD/sodipodi-0.dtd" x="0px" y="0px"
	 width="800px" height="600px" viewBox="0 0 800 600" enable-background="new 0 0 800 600" xml:space="preserve">
<g id="g2402">
	<path id="path1315" sodipodi:nodetypes="cc" fill="none" stroke="#000000" stroke-width="3.5433" stroke-linecap="square" d="
		M376.961,280.967h-56.693"/>
	<path id="path1317" sodipodi:nodetypes="cc" fill="none" stroke="#000000" stroke-width="7.0866" stroke-linecap="square" d="
		M362.787,289.826h-28.346"/>
	<path id="path2220" sodipodi:nodetypes="cc" fill="none" stroke="#000000" stroke-width="3.5433" d="M348.614,268.566v14.174"/>
	<path id="path2222" sodipodi:nodetypes="cc" fill="none" stroke="#000000" stroke-width="3.5433" stroke-linecap="square" d="
		M348.614,289.826v14.172"/>
	<g id="g3965" transform="matrix(2,0,0,2,-258.79112,-56.482983)">
		<path id="path3967" sodipodi:nodetypes="cc" fill="none" stroke="#000000" d="M317.876,162.525h-7.087"/>
		<path id="path3969" sodipodi:nodetypes="cc" fill="none" stroke="#000000" d="M314.333,166.068v-7.087"/>
	</g>
</g>
<line fill="none" stroke="#000000" stroke-width="2" x1="457" y1="349" x2="457" y2="407"/>
<line fill="none" stroke="#000000" stroke-width="2" x1="457" y1="378" x2="349" y2="378"/>
<line fill="none" stroke="#000000" stroke-width="2" x1="348.701" y1="377.826" x2="348.614" y2="303.998"/>
<path stroke="#000000" stroke-width="2" d="M461.701,377.826c0-2.758-2.238-5-5-5c-2.761,0-5,2.242-5,5c0,2.76,2.239,5,5,5
	C459.463,382.826,461.701,380.586,461.701,377.826z"/>
<g id="g2396">
	<path id="path3980" sodipodi:nodetypes="cc" fill="none" stroke="#000000" stroke-width="3.5433" stroke-linecap="square" d="
		M477.961,421h-42.52"/>
	<path id="path3984" sodipodi:nodetypes="cc" fill="none" stroke="#000000" stroke-width="3.5433" d="M456.701,406.826V421"/>
	<path id="path3994" sodipodi:nodetypes="cc" fill="none" stroke="#000000" stroke-width="3.5433" stroke-linecap="square" d="
		M470.873,428.088h-28.346"/>
	<path id="path3996" sodipodi:nodetypes="cc" fill="none" stroke="#000000" stroke-width="3.5433" stroke-linecap="square" d="
		M463.787,435.174h-14.174"/>
</g>
<rect x="263" y="272" fill="none" width="46" height="24"/>
<text transform="matrix(1 0 0 1 266.6074 294.1104)" font-family="'TrebuchetMS'" font-size="30">6 V</text>
<g id="g4062" transform="matrix(2,0,0,2,-56.118102,-52.352453)">
	<path id="path3938" sodipodi:nodetypes="cc" fill="none" stroke="#000000" stroke-width="1.7716" d="M256.41,153.713v5.315"/>
	<path id="path3940" sodipodi:nodetypes="cc" fill="none" stroke="#000000" stroke-width="1.7716" d="M256.41,127.139v5.315"/>
	
		<path id="path3970" sodipodi:nodetypes="cccccccc" fill="none" stroke="#000000" stroke-width="1.7716" stroke-linecap="round" stroke-linejoin="bevel" d="
		M256.41,153.713l-3.543-1.771l7.086-3.543l-7.086-3.543l7.086-3.543l-7.086-3.543l7.086-3.544l-3.543-1.771"/>
</g>
<g id="g4062_1_" transform="matrix(2,0,0,2,-56.118102,-52.352453)">
	<path id="path3938_1_" sodipodi:nodetypes="cc" fill="none" stroke="#000000" stroke-width="1.7716" d="M256.41,195.713v5.314"/>
	<path id="path3940_1_" sodipodi:nodetypes="cc" fill="none" stroke="#000000" stroke-width="1.7716" d="M256.41,159.139v15.315"/>
	
		<path id="path3970_1_" sodipodi:nodetypes="cccccccc" fill="none" stroke="#000000" stroke-width="1.7716" stroke-linecap="round" stroke-linejoin="bevel" d="
		M256.41,195.713l-3.543-1.771l7.086-3.543l-7.086-3.543l7.086-3.543l-7.086-3.543l7.086-3.544l-3.543-1.771"/>
</g>
<line fill="none" stroke="#000000" stroke-width="2" x1="349" y1="269" x2="349" y2="186"/>
<line fill="none" stroke="#000000" stroke-width="2" x1="349" y1="186" x2="457" y2="186"/>
<line fill="none" stroke="#000000" stroke-width="2" x1="457" y1="186" x2="457" y2="202"/>
<rect x="473.004" y="221.792" fill="none" width="91" height="24"/>
<text transform="matrix(1 0 0 1 473.0039 243.9028)" font-family="'TrebuchetMS'" font-size="30">360 Ω</text>
<line fill="none" stroke="#F15A24" stroke-width="10" x1="568" y1="219" x2="568" y2="244"/>
<line fill="none" stroke="#0000FF" stroke-width="10" x1="580" y1="219" x2="580" y2="244"/>
<line fill="none" stroke="#754C24" stroke-width="10" x1="592" y1="219" x2="592" y2="244"/>
<line fill="none" stroke="#FBC926" stroke-width="10" x1="603" y1="219" x2="603" y2="244"/>
<rect x="473.004" y="307.793" fill="none" width="91" height="24"/>
<text transform="matrix(1 0 0 1 473.0039 329.9023)" font-family="'TrebuchetMS'" font-size="30">1 kΩ</text>
<line fill="none" stroke="#754C24" stroke-width="10" x1="568" y1="305" x2="568" y2="330"/>
<line fill="none" stroke="#000000" stroke-width="10" x1="580" y1="305" x2="580" y2="330"/>
<line fill="none" stroke="#FF0000" stroke-width="10" x1="592" y1="305" x2="592" y2="330"/>
<line fill="none" stroke="#FBC926" stroke-width="10" x1="603" y1="305" x2="603" y2="330"/>
<path stroke="#000000" stroke-width="2" d="M461.701,275.826c0-2.758-2.238-5-5-5c-2.761,0-5,2.242-5,5c0,2.76,2.239,5,5,5
	C459.463,280.826,461.701,278.586,461.701,275.826z"/>
<rect x="624" y="262" fill="none" width="59" height="24.652"/>
<text transform="matrix(1 0 0 1 624 282.6357)" font-family="'TrebuchetMS'" font-size="28">Out</text>
<line fill="none" stroke="#000000" stroke-width="2" x1="457" y1="276" x2="614" y2="276"/>
</svg>
