<?xml version="1.0" encoding="utf-8"?>
<!-- Generator: Adobe Illustrator 15.1.0, SVG Export Plug-In . SVG Version: 6.00 Build 0)  -->
<!DOCTYPE svg PUBLIC "-//W3C//DTD SVG 1.1//EN" "http://www.w3.org/Graphics/SVG/1.1/DTD/svg11.dtd">
<svg version="1.1" id="Layer_1" xmlns="http://www.w3.org/2000/svg" xmlns:xlink="http://www.w3.org/1999/xlink" xmlns:inkscape="http://www.inkscape.org/namespaces/inkscape" xmlns:sodipodi="http://sodipodi.sourceforge.net/DTD/sodipodi-0.dtd" x="0px" y="0px"
	 width="800px" height="600px" viewBox="0 0 800 600" enable-background="new 0 0 800 600" xml:space="preserve">
<g id="g2402">
	<path id="path1315" sodipodi:nodetypes="cc" fill="none" stroke="#000000" stroke-width="3.5433" stroke-linecap="square" d="
		M230.961,217.967h-56.693"/>
	<path id="path1317" sodipodi:nodetypes="cc" fill="none" stroke="#000000" stroke-width="7.0866" stroke-linecap="square" d="
		M216.787,226.826h-28.346"/>
	<path id="path2220" sodipodi:nodetypes="cc" fill="none" stroke="#000000" stroke-width="3.5433" d="M202.614,205.566v14.174"/>
	<path id="path2222" sodipodi:nodetypes="cc" fill="none" stroke="#000000" stroke-width="3.5433" stroke-linecap="square" d="
		M202.614,226.826v14.172"/>
	<g id="g3965" transform="matrix(2,0,0,2,-258.79112,-56.482983)">
		<path id="path3967" sodipodi:nodetypes="cc" fill="none" stroke="#000000" d="M244.876,131.025h-7.087"/>
		<path id="path3969" sodipodi:nodetypes="cc" fill="none" stroke="#000000" d="M241.333,134.568v-7.087"/>
	</g>
</g>
<line fill="none" stroke="#000000" stroke-width="2" x1="203" y1="206" x2="203" y2="134"/>
<line fill="none" stroke="#000000" stroke-width="2" x1="368" y1="378" x2="368" y2="407"/>
<line fill="none" stroke="#000000" stroke-width="2" x1="368" y1="378" x2="203" y2="378"/>
<line fill="none" stroke="#000000" stroke-width="2" x1="202.701" y1="377.826" x2="202.614" y2="240.998"/>
<path stroke="#000000" stroke-width="2" d="M372.701,377.826c0-2.758-2.238-5-5-5c-2.761,0-5,2.242-5,5c0,2.76,2.239,5,5,5
	C370.463,382.826,372.701,380.586,372.701,377.826z"/>
<path stroke="#000000" stroke-width="2" d="M372.701,135.826c0-2.758-2.238-5-5-5c-2.761,0-5,2.242-5,5c0,2.76,2.239,5,5,5
	C370.463,140.826,372.701,138.586,372.701,135.826z"/>
<g id="g2396">
	<path id="path3980" sodipodi:nodetypes="cc" fill="none" stroke="#000000" stroke-width="3.5433" stroke-linecap="square" d="
		M388.961,421h-42.52"/>
	<path id="path3984" sodipodi:nodetypes="cc" fill="none" stroke="#000000" stroke-width="3.5433" d="M367.701,406.826V421"/>
	<path id="path3994" sodipodi:nodetypes="cc" fill="none" stroke="#000000" stroke-width="3.5433" stroke-linecap="square" d="
		M381.873,428.088h-28.346"/>
	<path id="path3996" sodipodi:nodetypes="cc" fill="none" stroke="#000000" stroke-width="3.5433" stroke-linecap="square" d="
		M374.787,435.174h-14.174"/>
</g>
<g id="g4062_1_" transform="matrix(2,0,0,2,-56.118102,-52.352453)">
	<path id="path3938_1_" sodipodi:nodetypes="cc" fill="none" stroke="#000000" stroke-width="1.7716" d="M187.04,93.583h5.315"/>
	<path id="path3940_1_" sodipodi:nodetypes="cc" fill="none" stroke="#000000" stroke-width="1.7716" d="M160.465,93.583h5.315"/>
	
		<path id="path3970_1_" sodipodi:nodetypes="cccccccc" fill="none" stroke="#000000" stroke-width="1.7716" stroke-linecap="round" stroke-linejoin="bevel" d="
		M187.04,93.583l-1.771,3.543l-3.543-7.086l-3.543,7.086l-3.543-7.086l-3.543,7.086l-3.544-7.086l-1.771,3.543"/>
</g>
<g id="g4062_2_" transform="matrix(2,0,0,2,-56.118102,-52.352453)">
	<path id="path3938_2_" sodipodi:nodetypes="cc" fill="none" stroke="#000000" stroke-width="1.7716" d="M182.04,171.583h5.315"/>
	<path id="path3940_2_" sodipodi:nodetypes="cc" fill="none" stroke="#000000" stroke-width="1.7716" d="M155.465,171.583h5.315"/>
	
		<path id="path3970_2_" sodipodi:nodetypes="cccccccc" fill="none" stroke="#000000" stroke-width="1.7716" stroke-linecap="round" stroke-linejoin="bevel" d="
		M182.04,171.583l-1.771,3.543l-3.543-7.086l-3.543,7.086l-3.543-7.086l-3.543,7.086l-3.544-7.086l-1.771,3.543"/>
</g>
<line fill="none" stroke="#000000" stroke-width="2" x1="328" y1="135" x2="457" y2="135"/>
<line fill="none" stroke="#000000" stroke-width="2" x1="203" y1="135" x2="265" y2="135"/>
<line fill="none" stroke="#000000" stroke-width="2" x1="368" y1="256" x2="368" y2="135"/>
<line fill="none" stroke="#000000" stroke-width="2" x1="368" y1="327" x2="368" y2="378"/>
<g id="g5420_1_" transform="matrix(2,0,0,2,7.574804,-52.525674)">
	
		<path id="path5124_1_" sodipodi:rx="14.173228" sodipodi:cx="421.65353" sodipodi:cy="100.86611" sodipodi:ry="10.629921" sodipodi:type="arc" fill="none" stroke="#000000" stroke-width="1.5343" stroke-linecap="square" d="
		M159.031,171.979c0-7.828,6.346-14.173,14.173-14.173c7.828,0,14.174,6.346,14.174,14.173c0,7.827-6.346,14.173-14.174,14.173
		C165.377,186.152,159.031,179.807,159.031,171.979z"/>
	<path id="path5126_1_" sodipodi:nodetypes="cc" fill="none" stroke="#000000" stroke-width="1.7716" d="M169.661,171.979h-14.173"
		/>
	<path id="path5128_1_" sodipodi:nodetypes="cc" fill="none" stroke="#000000" stroke-width="2.4803" stroke-linecap="square" d="
		M169.661,164.893v14.173"/>
	<path id="path5130_1_" sodipodi:nodetypes="ccc" fill="none" stroke="#000000" stroke-width="1.7716" d="M180.291,189.696
		l-0.043-7.13l-10.63-7.086"/>
	<path id="path5132_1_" sodipodi:nodetypes="ccc" fill="none" stroke="#000000" stroke-width="1.7716" d="M169.618,168.393
		l10.673-7.043v-7.087"/>
	<path id="path5134_1_" sodipodi:nodetypes="cccc" stroke="#000000" stroke-width="1.7716" stroke-linecap="square" d="
		M175.126,180.86l1.49-2.225l1.817,2.754L175.126,180.86z"/>
</g>
<rect x="222" y="279" fill="none" width="24" height="24.652"/>
<text transform="matrix(1 0 0 1 222.9082 299.6357)" font-family="'TrebuchetMS'" font-size="28">In</text>
<rect x="465" y="122" fill="none" width="59" height="24.652"/>
<text transform="matrix(1 0 0 1 465 142.6357)" font-family="'TrebuchetMS'" font-size="28">Out</text>
</svg>
